<svg width="100%" height="100%" viewBox="0 0 391 39" fill="none" xmlns="http://www.w3.org/2000/svg" preserveAspectRatio="none"><path d="M10.116 9.238L9.774 13H0.558L0.612 12.208L1.17 12.1C1.602 12.064 1.782 11.974 1.782 11.758V2.992C1.782 2.83 1.692 2.704 1.044 2.65L0.612 2.542L0.558 1.75H6.012L5.958 2.542L5.418 2.65C4.896 2.686 4.806 2.812 4.806 2.992V12.1H4.842C7.254 12.1 7.542 11.884 8.136 10.174L8.496 9.238H10.116ZM19.1257 10.426C18.6037 12.244 17.2357 13.27 15.1837 13.27C13.0057 13.27 11.2237 11.722 11.2237 9.166C11.2237 6.556 13.0957 4.486 15.8317 4.486C17.5777 4.486 19.0897 5.476 19.0897 7.366C19.0897 7.654 19.0537 8.05 18.9817 8.374L14.1037 8.302V8.5C14.1397 10.39 14.9677 11.506 16.3717 11.506C17.2537 11.506 18.0817 10.984 18.6937 10.192L19.1257 10.426ZM16.5157 7.6C16.5877 6.178 16.1917 5.386 15.5617 5.386C14.7337 5.386 14.1577 6.124 14.0857 7.672L16.5157 7.6ZM26.676 11.812C25.992 12.64 24.876 13.27 23.526 13.27C21.906 13.27 21.042 12.316 21.078 10.516L21.132 6.286L19.782 6.124L19.836 5.404L21.222 4.108L22.608 2.794L23.724 2.902L23.706 4.936H26.622L26.496 6.214H23.688L23.652 9.67C23.652 11.164 24.282 11.542 25.092 11.542C25.542 11.542 26.208 11.416 26.622 11.218L26.676 11.812ZM41.4954 12.28L41.4414 12.874L37.7154 13.27V11.884H37.6254C36.5634 12.712 35.6094 13.27 34.6014 13.27C34.0434 13.27 33.4674 13.018 33.0174 12.568C32.5674 12.118 32.3334 11.416 32.3334 10.444V5.908C32.3334 5.746 32.2434 5.656 31.5954 5.566L31.3074 5.53L31.2534 4.756H35.1234L35.0694 9.22C35.0514 11.002 35.6094 11.344 36.5454 11.344C36.9774 11.344 37.5354 11.146 37.7154 10.984V5.89C37.7154 5.71 37.6074 5.62 37.0314 5.566L36.6894 5.53L36.6174 4.756H40.4514V11.2C40.4514 11.632 40.5594 11.992 40.8654 12.082L41.4954 12.28ZM49.4586 10.552C49.4586 12.118 48.0726 13.27 45.5886 13.27C44.5626 13.27 43.2846 13.108 42.4746 12.784L42.4026 10.39H43.9326L44.4006 12.064C44.7246 12.172 45.1926 12.352 45.6786 12.352C46.6866 12.352 47.2266 11.866 47.2266 11.2C47.2266 10.444 46.1826 10.192 45.1566 9.832C43.7166 9.328 42.5106 8.77 42.5106 7.114C42.5106 5.53 43.8426 4.486 46.0026 4.486C46.7586 4.486 47.5686 4.612 48.0906 4.774L49.1166 4.594L49.1886 7.366H47.8026L47.1906 5.71C46.9026 5.566 46.5426 5.422 46.0386 5.422C45.2106 5.422 44.7246 5.836 44.7246 6.412C44.7246 7.222 45.4086 7.402 46.6326 7.816C48.0906 8.32 49.4586 8.878 49.4586 10.552ZM62.6109 2.128C62.6109 2.938 61.9989 3.406 61.3509 3.406C60.5229 3.406 60.0189 2.902 59.7489 1.606L59.7309 1.534L59.2089 1.498C58.7229 1.912 58.4529 2.668 58.4529 4.27V4.936H60.9189L60.7929 6.214H58.4529V11.866C58.4529 12.046 58.5609 12.154 59.1369 12.19L59.6589 12.226L59.7129 13H54.7269L54.7809 12.226L55.1409 12.19C55.5729 12.154 55.7529 12.064 55.7529 11.848V6.286L54.3489 6.124L54.4569 4.936H55.6629L55.6989 4.504C55.8969 2.2 57.8229 0.454 60.1809 0.454C61.4769 0.454 62.6109 1.12 62.6109 2.128ZM70.6916 8.824C70.6916 11.308 68.7116 13.27 65.9216 13.27C63.1136 13.27 61.5476 11.29 61.5476 8.968C61.5476 6.484 63.5636 4.486 66.3356 4.486C69.1436 4.486 70.6916 6.502 70.6916 8.824ZM67.6676 9.238C67.6676 7.6 67.4156 6.304 66.9296 5.818C66.6956 5.548 66.4076 5.422 66.0836 5.422C65.1476 5.422 64.5716 6.628 64.5716 8.554C64.5716 10.264 64.6616 11.452 65.2556 12.046C65.4716 12.262 65.8676 12.37 66.1376 12.37C67.0916 12.37 67.6676 11.056 67.6676 9.238ZM79.973 10.426C79.451 12.244 78.083 13.27 76.031 13.27C73.853 13.27 72.053 11.722 72.053 9.166C72.053 6.502 73.979 4.486 76.787 4.486C78.695 4.486 79.811 5.242 79.811 6.43C79.811 7.294 79.235 7.672 78.497 7.672C77.489 7.672 77.003 6.538 77.237 5.548V5.53C77.147 5.476 76.931 5.422 76.751 5.422C75.779 5.422 74.969 6.322 74.969 8.302C74.969 10.228 75.815 11.506 77.219 11.506C78.101 11.506 78.929 10.984 79.541 10.192L79.973 10.426ZM90.8747 12.28L90.8207 12.874L87.0947 13.27V11.884H87.0047C85.9427 12.712 84.9887 13.27 83.9807 13.27C83.4227 13.27 82.8467 13.018 82.3967 12.568C81.9467 12.118 81.7127 11.416 81.7127 10.444V5.908C81.7127 5.746 81.6227 5.656 80.9747 5.566L80.6867 5.53L80.6327 4.756H84.5027L84.4487 9.22C84.4307 11.002 84.9887 11.344 85.9247 11.344C86.3567 11.344 86.9147 11.146 87.0947 10.984V5.89C87.0947 5.71 86.9867 5.62 86.4107 5.566L86.0687 5.53L85.9967 4.756H89.8307V11.2C89.8307 11.632 89.9387 11.992 90.2447 12.082L90.8747 12.28ZM98.8379 10.552C98.8379 12.118 97.4519 13.27 94.9679 13.27C93.9419 13.27 92.6639 13.108 91.8539 12.784L91.7819 10.39H93.3119L93.7799 12.064C94.1039 12.172 94.5719 12.352 95.0579 12.352C96.0659 12.352 96.6059 11.866 96.6059 11.2C96.6059 10.444 95.5619 10.192 94.5359 9.832C93.0959 9.328 91.8899 8.77 91.8899 7.114C91.8899 5.53 93.2219 4.486 95.3819 4.486C96.1379 4.486 96.9479 4.612 97.4699 4.774L98.4959 4.594L98.5679 7.366H97.1819L96.5699 5.71C96.2819 5.566 95.9219 5.422 95.4179 5.422C94.5899 5.422 94.1039 5.836 94.1039 6.412C94.1039 7.222 94.7879 7.402 96.0119 7.816C97.4699 8.32 98.8379 8.878 98.8379 10.552ZM113.502 8.824C113.502 11.308 111.522 13.27 108.732 13.27C105.924 13.27 104.358 11.29 104.358 8.968C104.358 6.484 106.374 4.486 109.146 4.486C111.954 4.486 113.502 6.502 113.502 8.824ZM110.478 9.238C110.478 7.6 110.226 6.304 109.74 5.818C109.506 5.548 109.218 5.422 108.894 5.422C107.958 5.422 107.382 6.628 107.382 8.554C107.382 10.264 107.472 11.452 108.066 12.046C108.282 12.262 108.678 12.37 108.948 12.37C109.902 12.37 110.478 11.056 110.478 9.238ZM124.872 13H120.156L120.21 12.226L120.444 12.19C120.966 12.154 121.056 12.028 121.056 11.848V8.536C121.056 6.736 120.516 6.412 119.58 6.412C119.148 6.412 118.59 6.61 118.41 6.772V11.866C118.41 12.046 118.518 12.136 119.094 12.19L119.436 12.226L119.49 13H114.648L114.702 12.226L115.062 12.19C115.494 12.154 115.674 12.064 115.674 11.848V7.744C115.674 6.61 115.512 6.448 114.9 6.268L114.63 6.178L114.648 5.548L118.41 4.486V5.872H118.5C119.562 5.044 120.516 4.486 121.524 4.486C122.082 4.486 122.658 4.738 123.108 5.188C123.558 5.638 123.792 6.34 123.792 7.312V11.848C123.792 12.01 123.882 12.1 124.53 12.19L124.818 12.226L124.872 13ZM136.217 11.812C135.533 12.64 134.417 13.27 133.067 13.27C131.447 13.27 130.583 12.316 130.619 10.516L130.673 6.286L129.323 6.124L129.377 5.404L130.763 4.108L132.149 2.794L133.265 2.902L133.247 4.936H136.163L136.037 6.214H133.229L133.193 9.67C133.193 11.164 133.823 11.542 134.633 11.542C135.083 11.542 135.749 11.416 136.163 11.218L136.217 11.812ZM146.966 13H142.25L142.304 12.226L142.538 12.19C143.06 12.154 143.15 12.028 143.15 11.848V8.536C143.15 6.736 142.61 6.412 141.674 6.412C141.242 6.412 140.684 6.61 140.504 6.772V11.866C140.504 12.046 140.612 12.136 141.188 12.19L141.53 12.226L141.584 13H136.742L136.796 12.226L137.156 12.19C137.588 12.154 137.768 12.064 137.768 11.848V3.442C137.768 3.01 137.606 2.794 137.354 2.632L136.688 2.272L136.742 1.678L140.504 0.454V5.872H140.594C141.656 5.044 142.61 4.486 143.618 4.486C144.176 4.486 144.752 4.738 145.202 5.188C145.652 5.638 145.886 6.34 145.886 7.312V11.848C145.886 12.01 145.976 12.1 146.624 12.19L146.912 12.226L146.966 13ZM155.755 10.426C155.233 12.244 153.865 13.27 151.813 13.27C149.635 13.27 147.853 11.722 147.853 9.166C147.853 6.556 149.725 4.486 152.461 4.486C154.207 4.486 155.719 5.476 155.719 7.366C155.719 7.654 155.683 8.05 155.611 8.374L150.733 8.302V8.5C150.769 10.39 151.597 11.506 153.001 11.506C153.883 11.506 154.711 10.984 155.323 10.192L155.755 10.426ZM153.145 7.6C153.217 6.178 152.821 5.386 152.191 5.386C151.363 5.386 150.787 6.124 150.715 7.672L153.145 7.6ZM171.137 13H166.421L166.475 12.226L166.709 12.19C167.231 12.154 167.321 12.028 167.321 11.848V8.536C167.321 6.736 166.781 6.412 165.845 6.412C165.413 6.412 164.855 6.61 164.675 6.772V11.866C164.675 12.046 164.783 12.136 165.359 12.19L165.701 12.226L165.755 13H160.913L160.967 12.226L161.327 12.19C161.759 12.154 161.939 12.064 161.939 11.848V3.442C161.939 3.01 161.777 2.794 161.525 2.632L160.859 2.272L160.913 1.678L164.675 0.454V5.872H164.765C165.827 5.044 166.781 4.486 167.789 4.486C168.347 4.486 168.923 4.738 169.373 5.188C169.823 5.638 170.057 6.34 170.057 7.312V11.848C170.057 12.01 170.147 12.1 170.795 12.19L171.083 12.226L171.137 13ZM179.927 10.426C179.405 12.244 178.037 13.27 175.985 13.27C173.807 13.27 172.025 11.722 172.025 9.166C172.025 6.556 173.897 4.486 176.633 4.486C178.379 4.486 179.891 5.476 179.891 7.366C179.891 7.654 179.855 8.05 179.783 8.374L174.905 8.302V8.5C174.941 10.39 175.769 11.506 177.173 11.506C178.055 11.506 178.883 10.984 179.495 10.192L179.927 10.426ZM177.317 7.6C177.389 6.178 176.993 5.386 176.363 5.386C175.535 5.386 174.959 6.124 174.887 7.672L177.317 7.6ZM190.141 11.704C189.583 12.514 188.539 13.324 187.693 13.324C186.973 13.324 186.091 12.892 186.037 11.65H185.947C185.209 12.604 184.507 13.27 183.463 13.27C182.257 13.27 181.195 12.568 181.195 11.146C181.195 9.652 182.779 8.752 186.001 7.888V7.762C186.037 6.664 185.407 5.782 184.183 5.782C183.571 5.782 183.031 5.98 183.031 6.052C183.031 6.124 183.535 6.466 183.535 7.132C183.535 7.564 183.067 8.14 182.365 8.14C181.645 8.14 181.123 7.726 181.123 7.132C181.123 5.908 183.319 4.504 185.677 4.504C187.441 4.504 188.827 5.332 188.719 7.906L188.593 10.786C188.557 11.452 188.665 11.632 189.061 11.632C189.241 11.632 189.547 11.434 189.871 11.164L190.141 11.704ZM185.911 10.858L185.965 8.608C184.075 9.184 183.679 9.796 183.679 10.498C183.679 11.182 184.219 11.47 184.813 11.47C185.281 11.47 185.749 11.092 185.911 10.858ZM195.375 13H190.677L190.731 12.226L191.055 12.19C191.487 12.154 191.667 12.064 191.667 11.848V3.442C191.667 3.01 191.541 2.794 191.253 2.632L190.623 2.272L190.677 1.678L194.403 0.454V11.866C194.403 12.046 194.511 12.136 195.087 12.19L195.321 12.226L195.375 13ZM202.812 11.812C202.128 12.64 201.012 13.27 199.662 13.27C198.042 13.27 197.178 12.316 197.214 10.516L197.268 6.286L195.918 6.124L195.972 5.404L197.358 4.108L198.744 2.794L199.86 2.902L199.842 4.936H202.758L202.632 6.214H199.824L199.788 9.67C199.788 11.164 200.418 11.542 201.228 11.542C201.678 11.542 202.344 11.416 202.758 11.218L202.812 11.812ZM213.561 13H208.845L208.899 12.226L209.133 12.19C209.655 12.154 209.745 12.028 209.745 11.848V8.536C209.745 6.736 209.205 6.412 208.269 6.412C207.837 6.412 207.279 6.61 207.099 6.772V11.866C207.099 12.046 207.207 12.136 207.783 12.19L208.125 12.226L208.179 13H203.337L203.391 12.226L203.751 12.19C204.183 12.154 204.363 12.064 204.363 11.848V3.442C204.363 3.01 204.201 2.794 203.949 2.632L203.283 2.272L203.337 1.678L207.099 0.454V5.872H207.189C208.251 5.044 209.205 4.486 210.213 4.486C210.771 4.486 211.347 4.738 211.797 5.188C212.247 5.638 212.481 6.34 212.481 7.312V11.848C212.481 12.01 212.571 12.1 213.219 12.19L213.507 12.226L213.561 13ZM227.824 8.824C227.824 11.308 225.844 13.27 223.054 13.27C220.246 13.27 218.68 11.29 218.68 8.968C218.68 6.484 220.696 4.486 223.468 4.486C226.276 4.486 227.824 6.502 227.824 8.824ZM224.8 9.238C224.8 7.6 224.548 6.304 224.062 5.818C223.828 5.548 223.54 5.422 223.216 5.422C222.28 5.422 221.704 6.628 221.704 8.554C221.704 10.264 221.794 11.452 222.388 12.046C222.604 12.262 223 12.37 223.27 12.37C224.224 12.37 224.8 11.056 224.8 9.238ZM236.853 2.128C236.853 2.938 236.241 3.406 235.593 3.406C234.765 3.406 234.261 2.902 233.991 1.606L233.973 1.534L233.451 1.498C232.965 1.912 232.695 2.668 232.695 4.27V4.936H235.161L235.035 6.214H232.695V11.866C232.695 12.046 232.803 12.154 233.379 12.19L233.901 12.226L233.955 13H228.969L229.023 12.226L229.383 12.19C229.815 12.154 229.995 12.064 229.995 11.848V6.286L228.591 6.124L228.699 4.936H229.905L229.941 4.504C230.139 2.2 232.065 0.454 234.423 0.454C235.719 0.454 236.853 1.12 236.853 2.128ZM248.824 4.756L248.77 5.53L248.176 5.62C247.78 5.674 247.564 6.07 247.42 6.448L245.206 12.19L244.054 15.484C243.496 17.086 242.704 17.716 241.624 17.716C240.832 17.716 240.094 17.194 240.094 16.456C240.094 15.862 240.49 15.268 241.228 15.268C241.876 15.268 242.326 15.754 242.47 16.186C242.776 16.078 243.028 15.736 243.316 14.764L243.514 14.098V13.918L240.31 6.322C240.184 6.016 239.968 5.872 239.626 5.728L239.158 5.53L239.104 4.756H244.072L244.018 5.53L243.388 5.746C243.118 5.836 243.064 6.088 243.208 6.466L244.846 10.714L246.304 6.556C246.466 6.106 246.34 5.854 246.088 5.764L245.386 5.53L245.332 4.756H248.824ZM258.353 8.824C258.353 11.308 256.373 13.27 253.583 13.27C250.775 13.27 249.209 11.29 249.209 8.968C249.209 6.484 251.225 4.486 253.997 4.486C256.805 4.486 258.353 6.502 258.353 8.824ZM255.329 9.238C255.329 7.6 255.077 6.304 254.591 5.818C254.357 5.548 254.069 5.422 253.745 5.422C252.809 5.422 252.233 6.628 252.233 8.554C252.233 10.264 252.323 11.452 252.917 12.046C253.133 12.262 253.529 12.37 253.799 12.37C254.753 12.37 255.329 11.056 255.329 9.238ZM269.506 12.28L269.452 12.874L265.726 13.27V11.884H265.636C264.574 12.712 263.62 13.27 262.612 13.27C262.054 13.27 261.478 13.018 261.028 12.568C260.578 12.118 260.344 11.416 260.344 10.444V5.908C260.344 5.746 260.254 5.656 259.606 5.566L259.318 5.53L259.264 4.756H263.134L263.08 9.22C263.062 11.002 263.62 11.344 264.556 11.344C264.988 11.344 265.546 11.146 265.726 10.984V5.89C265.726 5.71 265.618 5.62 265.042 5.566L264.7 5.53L264.628 4.756H268.462V11.2C268.462 11.632 268.57 11.992 268.876 12.082L269.506 12.28ZM277.92 5.998C277.92 6.7 277.434 7.348 276.732 7.348C276.03 7.348 275.652 7.006 275.382 6.52C274.95 6.826 274.392 7.294 273.978 7.888V11.866C273.978 12.046 274.086 12.136 274.662 12.19L275.184 12.226L275.238 13H270.252L270.306 12.226L270.63 12.19C271.062 12.154 271.242 12.064 271.242 11.848V7.744C271.242 6.61 271.08 6.448 270.468 6.268L270.198 6.178L270.216 5.548L273.978 4.486V6.7H274.068C274.698 5.584 275.4 4.486 276.444 4.486C277.326 4.486 277.92 5.026 277.92 5.998ZM290.575 10.426C290.053 12.244 288.685 13.27 286.633 13.27C284.455 13.27 282.673 11.722 282.673 9.166C282.673 6.556 284.545 4.486 287.281 4.486C289.027 4.486 290.539 5.476 290.539 7.366C290.539 7.654 290.503 8.05 290.431 8.374L285.553 8.302V8.5C285.589 10.39 286.417 11.506 287.821 11.506C288.703 11.506 289.531 10.984 290.143 10.192L290.575 10.426ZM287.965 7.6C288.037 6.178 287.641 5.386 287.011 5.386C286.183 5.386 285.607 6.124 285.535 7.672L287.965 7.6ZM307.089 13H302.373L302.427 12.226L302.661 12.19C303.183 12.154 303.273 12.028 303.273 11.848V8.536C303.273 6.736 302.679 6.412 301.815 6.412C301.365 6.412 300.951 6.592 300.699 6.772V11.848C300.699 12.01 300.789 12.1 301.437 12.19L301.653 12.226L301.707 13H297.063L297.135 12.226L297.351 12.19C297.873 12.154 297.963 12.028 297.963 11.848V8.536C297.963 6.736 297.369 6.412 296.505 6.412C296.055 6.412 295.641 6.592 295.389 6.772V11.866C295.389 12.046 295.497 12.136 296.073 12.19L296.307 12.226L296.361 13H291.627L291.681 12.226L292.041 12.19C292.473 12.154 292.653 12.064 292.653 11.848V7.744C292.653 6.61 292.491 6.448 291.879 6.268L291.609 6.178L291.627 5.548L295.389 4.486V5.854H295.479C296.541 5.008 297.441 4.486 298.449 4.486C299.025 4.486 299.565 4.702 300.033 5.17C300.231 5.368 300.393 5.638 300.519 5.962H300.591C301.689 4.9 302.751 4.486 303.759 4.486C304.335 4.486 304.875 4.702 305.343 5.17C305.793 5.62 306.009 6.304 306.009 7.294V11.848C306.009 12.01 306.099 12.1 306.747 12.19L307.035 12.226L307.089 13ZM317.407 8.5C317.407 11.11 315.535 13.27 312.799 13.27C312.205 13.27 311.755 13.162 311.467 13.054H311.413V16.294C311.413 16.474 311.521 16.564 312.097 16.618L312.619 16.654L312.673 17.428H307.507L307.561 16.654L308.065 16.618C308.497 16.582 308.677 16.492 308.677 16.276V7.744C308.677 6.61 308.515 6.448 307.903 6.268L307.633 6.178L307.651 5.548L311.413 4.486V5.962H311.503C312.133 5.188 312.961 4.576 314.041 4.576C315.913 4.576 317.407 6.286 317.407 8.5ZM314.473 9.382C314.473 7.546 313.609 6.412 312.421 6.412C312.025 6.412 311.629 6.52 311.413 6.664V11.29C312.115 12.136 312.583 12.388 313.051 12.388C313.825 12.388 314.473 11.362 314.473 9.382ZM323.244 13H318.546L318.6 12.226L318.924 12.19C319.356 12.154 319.536 12.064 319.536 11.848V3.442C319.536 3.01 319.41 2.794 319.122 2.632L318.492 2.272L318.546 1.678L322.272 0.454V11.866C322.272 12.046 322.38 12.136 322.956 12.19L323.19 12.226L323.244 13ZM333.579 8.824C333.579 11.308 331.599 13.27 328.809 13.27C326.001 13.27 324.435 11.29 324.435 8.968C324.435 6.484 326.451 4.486 329.223 4.486C332.031 4.486 333.579 6.502 333.579 8.824ZM330.555 9.238C330.555 7.6 330.303 6.304 329.817 5.818C329.583 5.548 329.295 5.422 328.971 5.422C328.035 5.422 327.459 6.628 327.459 8.554C327.459 10.264 327.549 11.452 328.143 12.046C328.359 12.262 328.755 12.37 329.025 12.37C329.979 12.37 330.555 11.056 330.555 9.238ZM343.814 4.756L343.76 5.53L343.166 5.62C342.77 5.674 342.554 6.07 342.41 6.448L340.196 12.19L339.044 15.484C338.486 17.086 337.694 17.716 336.614 17.716C335.822 17.716 335.084 17.194 335.084 16.456C335.084 15.862 335.48 15.268 336.218 15.268C336.866 15.268 337.316 15.754 337.46 16.186C337.766 16.078 338.018 15.736 338.306 14.764L338.504 14.098V13.918L335.3 6.322C335.174 6.016 334.958 5.872 334.616 5.728L334.148 5.53L334.094 4.756H339.062L339.008 5.53L338.378 5.746C338.108 5.836 338.054 6.088 338.198 6.466L339.836 10.714L341.294 6.556C341.456 6.106 341.33 5.854 341.078 5.764L340.376 5.53L340.322 4.756H343.814ZM352.065 10.426C351.543 12.244 350.175 13.27 348.123 13.27C345.945 13.27 344.163 11.722 344.163 9.166C344.163 6.556 346.035 4.486 348.771 4.486C350.517 4.486 352.029 5.476 352.029 7.366C352.029 7.654 351.993 8.05 351.921 8.374L347.043 8.302V8.5C347.079 10.39 347.907 11.506 349.311 11.506C350.193 11.506 351.021 10.984 351.633 10.192L352.065 10.426ZM349.455 7.6C349.527 6.178 349.131 5.386 348.501 5.386C347.673 5.386 347.097 6.124 347.025 7.672L349.455 7.6ZM361.235 10.426C360.713 12.244 359.345 13.27 357.293 13.27C355.115 13.27 353.333 11.722 353.333 9.166C353.333 6.556 355.205 4.486 357.941 4.486C359.687 4.486 361.199 5.476 361.199 7.366C361.199 7.654 361.163 8.05 361.091 8.374L356.213 8.302V8.5C356.249 10.39 357.077 11.506 358.481 11.506C359.363 11.506 360.191 10.984 360.803 10.192L361.235 10.426ZM358.625 7.6C358.697 6.178 358.301 5.386 357.671 5.386C356.843 5.386 356.267 6.124 356.195 7.672L358.625 7.6ZM369.542 10.552C369.542 12.118 368.156 13.27 365.672 13.27C364.646 13.27 363.368 13.108 362.558 12.784L362.486 10.39H364.016L364.484 12.064C364.808 12.172 365.276 12.352 365.762 12.352C366.77 12.352 367.31 11.866 367.31 11.2C367.31 10.444 366.266 10.192 365.24 9.832C363.8 9.328 362.594 8.77 362.594 7.114C362.594 5.53 363.926 4.486 366.086 4.486C366.842 4.486 367.652 4.612 368.174 4.774L369.2 4.594L369.272 7.366H367.886L367.274 5.71C366.986 5.566 366.626 5.422 366.122 5.422C365.294 5.422 364.808 5.836 364.808 6.412C364.808 7.222 365.492 7.402 366.716 7.816C368.174 8.32 369.542 8.878 369.542 10.552ZM374.07 12.46C374.07 13.954 372.918 15.34 371.046 16.492L370.47 15.898C371.64 15.124 372.252 14.476 372.252 13.522C372.252 12.244 370.452 11.848 370.452 11.74C370.452 11.056 371.046 10.246 372.018 10.246C373.224 10.246 374.07 11.236 374.07 12.46ZM7.65 31.552C7.65 33.118 6.264 34.27 3.78 34.27C2.754 34.27 1.476 34.108 0.666 33.784L0.594 31.39H2.124L2.592 33.064C2.916 33.172 3.384 33.352 3.87 33.352C4.878 33.352 5.418 32.866 5.418 32.2C5.418 31.444 4.374 31.192 3.348 30.832C1.908 30.328 0.702 29.77 0.702 28.114C0.702 26.53 2.034 25.486 4.194 25.486C4.95 25.486 5.76 25.612 6.282 25.774L7.308 25.594L7.38 28.366H5.994L5.382 26.71C5.094 26.566 4.734 26.422 4.23 26.422C3.402 26.422 2.916 26.836 2.916 27.412C2.916 28.222 3.6 28.402 4.824 28.816C6.282 29.32 7.65 29.878 7.65 31.552ZM18.1186 29.824C18.1186 32.308 16.1386 34.27 13.3486 34.27C10.5406 34.27 8.97456 32.29 8.97456 29.968C8.97456 27.484 10.9906 25.486 13.7626 25.486C16.5706 25.486 18.1186 27.502 18.1186 29.824ZM15.0946 30.238C15.0946 28.6 14.8426 27.304 14.3566 26.818C14.1226 26.548 13.8346 26.422 13.5106 26.422C12.5746 26.422 11.9986 27.628 11.9986 29.554C11.9986 31.264 12.0886 32.452 12.6826 33.046C12.8986 33.262 13.2946 33.37 13.5646 33.37C14.5186 33.37 15.0946 32.056 15.0946 30.238ZM32.5497 25.756L32.4957 26.53L31.9017 26.62C31.5057 26.674 31.2897 27.07 31.1457 27.448L28.9317 33.19L27.7797 36.484C27.2217 38.086 26.4297 38.716 25.3497 38.716C24.5577 38.716 23.8197 38.194 23.8197 37.456C23.8197 36.862 24.2157 36.268 24.9537 36.268C25.6017 36.268 26.0517 36.754 26.1957 37.186C26.5017 37.078 26.7537 36.736 27.0417 35.764L27.2397 35.098V34.918L24.0357 27.322C23.9097 27.016 23.6937 26.872 23.3517 26.728L22.8837 26.53L22.8297 25.756H27.7977L27.7437 26.53L27.1137 26.746C26.8437 26.836 26.7897 27.088 26.9337 27.466L28.5717 31.714L30.0297 27.556C30.1917 27.106 30.0657 26.854 29.8137 26.764L29.1117 26.53L29.0577 25.756H32.5497ZM42.0787 29.824C42.0787 32.308 40.0987 34.27 37.3087 34.27C34.5007 34.27 32.9347 32.29 32.9347 29.968C32.9347 27.484 34.9507 25.486 37.7227 25.486C40.5307 25.486 42.0787 27.502 42.0787 29.824ZM39.0547 30.238C39.0547 28.6 38.8027 27.304 38.3167 26.818C38.0827 26.548 37.7947 26.422 37.4707 26.422C36.5347 26.422 35.9587 27.628 35.9587 29.554C35.9587 31.264 36.0487 32.452 36.6427 33.046C36.8587 33.262 37.2547 33.37 37.5247 33.37C38.4787 33.37 39.0547 32.056 39.0547 30.238ZM53.2321 33.28L53.1781 33.874L49.4521 34.27V32.884H49.3621C48.3001 33.712 47.3461 34.27 46.3381 34.27C45.7801 34.27 45.2041 34.018 44.7541 33.568C44.3041 33.118 44.0701 32.416 44.0701 31.444V26.908C44.0701 26.746 43.9801 26.656 43.3321 26.566L43.0441 26.53L42.9901 25.756H46.8601L46.8061 30.22C46.7881 32.002 47.3461 32.344 48.2821 32.344C48.7141 32.344 49.2721 32.146 49.4521 31.984V26.89C49.4521 26.71 49.3441 26.62 48.7681 26.566L48.4261 26.53L48.3541 25.756H52.1881V32.2C52.1881 32.632 52.2961 32.992 52.6021 33.082L53.2321 33.28ZM66.273 31.426C65.751 33.244 64.383 34.27 62.331 34.27C60.153 34.27 58.353 32.722 58.353 30.166C58.353 27.502 60.279 25.486 63.087 25.486C64.995 25.486 66.111 26.242 66.111 27.43C66.111 28.294 65.535 28.672 64.797 28.672C63.789 28.672 63.303 27.538 63.537 26.548V26.53C63.447 26.476 63.231 26.422 63.051 26.422C62.079 26.422 61.269 27.322 61.269 29.302C61.269 31.228 62.115 32.506 63.519 32.506C64.401 32.506 65.229 31.984 65.841 31.192L66.273 31.426ZM76.3287 32.704C75.7707 33.514 74.7267 34.324 73.8807 34.324C73.1607 34.324 72.2787 33.892 72.2247 32.65H72.1347C71.3967 33.604 70.6947 34.27 69.6507 34.27C68.4447 34.27 67.3827 33.568 67.3827 32.146C67.3827 30.652 68.9667 29.752 72.1887 28.888V28.762C72.2247 27.664 71.5947 26.782 70.3707 26.782C69.7587 26.782 69.2187 26.98 69.2187 27.052C69.2187 27.124 69.7227 27.466 69.7227 28.132C69.7227 28.564 69.2547 29.14 68.5527 29.14C67.8327 29.14 67.3107 28.726 67.3107 28.132C67.3107 26.908 69.5067 25.504 71.8647 25.504C73.6287 25.504 75.0147 26.332 74.9067 28.906L74.7807 31.786C74.7447 32.452 74.8527 32.632 75.2487 32.632C75.4287 32.632 75.7347 32.434 76.0587 32.164L76.3287 32.704ZM72.0987 31.858L72.1527 29.608C70.2627 30.184 69.8667 30.796 69.8667 31.498C69.8667 32.182 70.4067 32.47 71.0007 32.47C71.4687 32.47 71.9367 32.092 72.0987 31.858ZM87.0532 34H82.3372L82.3912 33.226L82.6252 33.19C83.1472 33.154 83.2372 33.028 83.2372 32.848V29.536C83.2372 27.736 82.6972 27.412 81.7612 27.412C81.3292 27.412 80.7712 27.61 80.5912 27.772V32.866C80.5912 33.046 80.6992 33.136 81.2752 33.19L81.6172 33.226L81.6712 34H76.8292L76.8832 33.226L77.2432 33.19C77.6752 33.154 77.8552 33.064 77.8552 32.848V28.744C77.8552 27.61 77.6932 27.448 77.0812 27.268L76.8112 27.178L76.8292 26.548L80.5912 25.486V26.872H80.6812C81.7432 26.044 82.6972 25.486 83.7052 25.486C84.2632 25.486 84.8392 25.738 85.2892 26.188C85.7392 26.638 85.9732 27.34 85.9732 28.312V32.848C85.9732 33.01 86.0632 33.1 86.7112 33.19L86.9992 33.226L87.0532 34ZM99.7843 23.128C99.7843 23.938 99.1723 24.406 98.5243 24.406C97.6963 24.406 97.1923 23.902 96.9223 22.606L96.9043 22.534L96.3823 22.498C95.8963 22.912 95.6263 23.668 95.6263 25.27V25.936H98.0923L97.9663 27.214H95.6263V32.866C95.6263 33.046 95.7343 33.154 96.3103 33.19L96.8323 33.226L96.8863 34H91.9003L91.9543 33.226L92.3143 33.19C92.7463 33.154 92.9263 33.064 92.9263 32.848V27.286L91.5223 27.124L91.6303 25.936H92.8363L92.8723 25.504C93.0703 23.2 94.9963 21.454 97.3543 21.454C98.6503 21.454 99.7843 22.12 99.7843 23.128ZM107.865 29.824C107.865 32.308 105.885 34.27 103.095 34.27C100.287 34.27 98.721 32.29 98.721 29.968C98.721 27.484 100.737 25.486 103.509 25.486C106.317 25.486 107.865 27.502 107.865 29.824ZM104.841 30.238C104.841 28.6 104.589 27.304 104.103 26.818C103.869 26.548 103.581 26.422 103.257 26.422C102.321 26.422 101.745 27.628 101.745 29.554C101.745 31.264 101.835 32.452 102.429 33.046C102.645 33.262 103.041 33.37 103.311 33.37C104.265 33.37 104.841 32.056 104.841 30.238ZM117.146 31.426C116.624 33.244 115.256 34.27 113.204 34.27C111.026 34.27 109.226 32.722 109.226 30.166C109.226 27.502 111.152 25.486 113.96 25.486C115.868 25.486 116.984 26.242 116.984 27.43C116.984 28.294 116.408 28.672 115.67 28.672C114.662 28.672 114.176 27.538 114.41 26.548V26.53C114.32 26.476 114.104 26.422 113.924 26.422C112.952 26.422 112.142 27.322 112.142 29.302C112.142 31.228 112.988 32.506 114.392 32.506C115.274 32.506 116.102 31.984 116.714 31.192L117.146 31.426ZM128.048 33.28L127.994 33.874L124.268 34.27V32.884H124.178C123.116 33.712 122.162 34.27 121.154 34.27C120.596 34.27 120.02 34.018 119.57 33.568C119.12 33.118 118.886 32.416 118.886 31.444V26.908C118.886 26.746 118.796 26.656 118.148 26.566L117.86 26.53L117.806 25.756H121.676L121.622 30.22C121.604 32.002 122.162 32.344 123.098 32.344C123.53 32.344 124.088 32.146 124.268 31.984V26.89C124.268 26.71 124.16 26.62 123.584 26.566L123.242 26.53L123.17 25.756H127.004V32.2C127.004 32.632 127.112 32.992 127.418 33.082L128.048 33.28ZM136.011 31.552C136.011 33.118 134.625 34.27 132.141 34.27C131.115 34.27 129.837 34.108 129.027 33.784L128.955 31.39H130.485L130.953 33.064C131.277 33.172 131.745 33.352 132.231 33.352C133.239 33.352 133.779 32.866 133.779 32.2C133.779 31.444 132.735 31.192 131.709 30.832C130.269 30.328 129.063 29.77 129.063 28.114C129.063 26.53 130.395 25.486 132.555 25.486C133.311 25.486 134.121 25.612 134.643 25.774L135.669 25.594L135.741 28.366H134.355L133.743 26.71C133.455 26.566 133.095 26.422 132.591 26.422C131.763 26.422 131.277 26.836 131.277 27.412C131.277 28.222 131.961 28.402 133.185 28.816C134.643 29.32 136.011 29.878 136.011 31.552ZM150.676 29.824C150.676 32.308 148.696 34.27 145.906 34.27C143.098 34.27 141.532 32.29 141.532 29.968C141.532 27.484 143.548 25.486 146.32 25.486C149.128 25.486 150.676 27.502 150.676 29.824ZM147.652 30.238C147.652 28.6 147.4 27.304 146.914 26.818C146.68 26.548 146.392 26.422 146.068 26.422C145.132 26.422 144.556 27.628 144.556 29.554C144.556 31.264 144.646 32.452 145.24 33.046C145.456 33.262 145.852 33.37 146.122 33.37C147.076 33.37 147.652 32.056 147.652 30.238ZM162.045 34H157.329L157.383 33.226L157.617 33.19C158.139 33.154 158.229 33.028 158.229 32.848V29.536C158.229 27.736 157.689 27.412 156.753 27.412C156.321 27.412 155.763 27.61 155.583 27.772V32.866C155.583 33.046 155.691 33.136 156.267 33.19L156.609 33.226L156.663 34H151.821L151.875 33.226L152.235 33.19C152.667 33.154 152.847 33.064 152.847 32.848V28.744C152.847 27.61 152.685 27.448 152.073 27.268L151.803 27.178L151.821 26.548L155.583 25.486V26.872H155.673C156.735 26.044 157.689 25.486 158.697 25.486C159.255 25.486 159.831 25.738 160.281 26.188C160.731 26.638 160.965 27.34 160.965 28.312V32.848C160.965 33.01 161.055 33.1 161.703 33.19L161.991 33.226L162.045 34ZM173.39 32.812C172.706 33.64 171.59 34.27 170.24 34.27C168.62 34.27 167.756 33.316 167.792 31.516L167.846 27.286L166.496 27.124L166.55 26.404L167.936 25.108L169.322 23.794L170.438 23.902L170.42 25.936H173.336L173.21 27.214H170.402L170.366 30.67C170.366 32.164 170.996 32.542 171.806 32.542C172.256 32.542 172.922 32.416 173.336 32.218L173.39 32.812ZM184.14 34H179.424L179.478 33.226L179.712 33.19C180.234 33.154 180.324 33.028 180.324 32.848V29.536C180.324 27.736 179.784 27.412 178.848 27.412C178.416 27.412 177.858 27.61 177.678 27.772V32.866C177.678 33.046 177.786 33.136 178.362 33.19L178.704 33.226L178.758 34H173.916L173.97 33.226L174.33 33.19C174.762 33.154 174.942 33.064 174.942 32.848V24.442C174.942 24.01 174.78 23.794 174.528 23.632L173.862 23.272L173.916 22.678L177.678 21.454V26.872H177.768C178.83 26.044 179.784 25.486 180.792 25.486C181.35 25.486 181.926 25.738 182.376 26.188C182.826 26.638 183.06 27.34 183.06 28.312V32.848C183.06 33.01 183.15 33.1 183.798 33.19L184.086 33.226L184.14 34ZM192.929 31.426C192.407 33.244 191.039 34.27 188.987 34.27C186.809 34.27 185.027 32.722 185.027 30.166C185.027 27.556 186.899 25.486 189.635 25.486C191.381 25.486 192.893 26.476 192.893 28.366C192.893 28.654 192.857 29.05 192.785 29.374L187.907 29.302V29.5C187.943 31.39 188.771 32.506 190.175 32.506C191.057 32.506 191.885 31.984 192.497 31.192L192.929 31.426ZM190.319 28.6C190.391 27.178 189.995 26.386 189.365 26.386C188.537 26.386 187.961 27.124 187.889 28.672L190.319 28.6ZM208.311 34H203.595L203.649 33.226L203.883 33.19C204.405 33.154 204.495 33.028 204.495 32.848V29.536C204.495 27.736 203.955 27.412 203.019 27.412C202.587 27.412 202.029 27.61 201.849 27.772V32.866C201.849 33.046 201.957 33.136 202.533 33.19L202.875 33.226L202.929 34H198.087L198.141 33.226L198.501 33.19C198.933 33.154 199.113 33.064 199.113 32.848V24.442C199.113 24.01 198.951 23.794 198.699 23.632L198.033 23.272L198.087 22.678L201.849 21.454V26.872H201.939C203.001 26.044 203.955 25.486 204.963 25.486C205.521 25.486 206.097 25.738 206.547 26.188C206.997 26.638 207.231 27.34 207.231 28.312V32.848C207.231 33.01 207.321 33.1 207.969 33.19L208.257 33.226L208.311 34ZM217.1 31.426C216.578 33.244 215.21 34.27 213.158 34.27C210.98 34.27 209.198 32.722 209.198 30.166C209.198 27.556 211.07 25.486 213.806 25.486C215.552 25.486 217.064 26.476 217.064 28.366C217.064 28.654 217.028 29.05 216.956 29.374L212.078 29.302V29.5C212.114 31.39 212.942 32.506 214.346 32.506C215.228 32.506 216.056 31.984 216.668 31.192L217.1 31.426ZM214.49 28.6C214.562 27.178 214.166 26.386 213.536 26.386C212.708 26.386 212.132 27.124 212.06 28.672L214.49 28.6ZM227.314 32.704C226.756 33.514 225.712 34.324 224.866 34.324C224.146 34.324 223.264 33.892 223.21 32.65H223.12C222.382 33.604 221.68 34.27 220.636 34.27C219.43 34.27 218.368 33.568 218.368 32.146C218.368 30.652 219.952 29.752 223.174 28.888V28.762C223.21 27.664 222.58 26.782 221.356 26.782C220.744 26.782 220.204 26.98 220.204 27.052C220.204 27.124 220.708 27.466 220.708 28.132C220.708 28.564 220.24 29.14 219.538 29.14C218.818 29.14 218.296 28.726 218.296 28.132C218.296 26.908 220.492 25.504 222.85 25.504C224.614 25.504 226 26.332 225.892 28.906L225.766 31.786C225.73 32.452 225.838 32.632 226.234 32.632C226.414 32.632 226.72 32.434 227.044 32.164L227.314 32.704ZM223.084 31.858L223.138 29.608C221.248 30.184 220.852 30.796 220.852 31.498C220.852 32.182 221.392 32.47 221.986 32.47C222.454 32.47 222.922 32.092 223.084 31.858ZM232.549 34H227.851L227.905 33.226L228.229 33.19C228.661 33.154 228.841 33.064 228.841 32.848V24.442C228.841 24.01 228.715 23.794 228.427 23.632L227.797 23.272L227.851 22.678L231.577 21.454V32.866C231.577 33.046 231.685 33.136 232.261 33.19L232.495 33.226L232.549 34ZM239.985 32.812C239.301 33.64 238.185 34.27 236.835 34.27C235.215 34.27 234.351 33.316 234.387 31.516L234.441 27.286L233.091 27.124L233.145 26.404L234.531 25.108L235.917 23.794L237.033 23.902L237.015 25.936H239.931L239.805 27.214H236.997L236.961 30.67C236.961 32.164 237.591 32.542 238.401 32.542C238.851 32.542 239.517 32.416 239.931 32.218L239.985 32.812ZM250.735 34H246.019L246.073 33.226L246.307 33.19C246.829 33.154 246.919 33.028 246.919 32.848V29.536C246.919 27.736 246.379 27.412 245.443 27.412C245.011 27.412 244.453 27.61 244.273 27.772V32.866C244.273 33.046 244.381 33.136 244.957 33.19L245.299 33.226L245.353 34H240.511L240.565 33.226L240.925 33.19C241.357 33.154 241.537 33.064 241.537 32.848V24.442C241.537 24.01 241.375 23.794 241.123 23.632L240.457 23.272L240.511 22.678L244.273 21.454V26.872H244.363C245.425 26.044 246.379 25.486 247.387 25.486C247.945 25.486 248.521 25.738 248.971 26.188C249.421 26.638 249.655 27.34 249.655 28.312V32.848C249.655 33.01 249.745 33.1 250.393 33.19L250.681 33.226L250.735 34ZM264.997 29.824C264.997 32.308 263.017 34.27 260.227 34.27C257.419 34.27 255.853 32.29 255.853 29.968C255.853 27.484 257.869 25.486 260.641 25.486C263.449 25.486 264.997 27.502 264.997 29.824ZM261.973 30.238C261.973 28.6 261.721 27.304 261.235 26.818C261.001 26.548 260.713 26.422 260.389 26.422C259.453 26.422 258.877 27.628 258.877 29.554C258.877 31.264 258.967 32.452 259.561 33.046C259.777 33.262 260.173 33.37 260.443 33.37C261.397 33.37 261.973 32.056 261.973 30.238ZM274.027 23.128C274.027 23.938 273.415 24.406 272.767 24.406C271.939 24.406 271.435 23.902 271.165 22.606L271.147 22.534L270.625 22.498C270.139 22.912 269.869 23.668 269.869 25.27V25.936H272.335L272.209 27.214H269.869V32.866C269.869 33.046 269.977 33.154 270.553 33.19L271.075 33.226L271.129 34H266.143L266.197 33.226L266.557 33.19C266.989 33.154 267.169 33.064 267.169 32.848V27.286L265.765 27.124L265.873 25.936H267.079L267.115 25.504C267.313 23.2 269.239 21.454 271.597 21.454C272.893 21.454 274.027 22.12 274.027 23.128ZM285.997 25.756L285.943 26.53L285.349 26.62C284.953 26.674 284.737 27.07 284.593 27.448L282.379 33.19L281.227 36.484C280.669 38.086 279.877 38.716 278.797 38.716C278.005 38.716 277.267 38.194 277.267 37.456C277.267 36.862 277.663 36.268 278.401 36.268C279.049 36.268 279.499 36.754 279.643 37.186C279.949 37.078 280.201 36.736 280.489 35.764L280.687 35.098V34.918L277.483 27.322C277.357 27.016 277.141 26.872 276.799 26.728L276.331 26.53L276.277 25.756H281.245L281.191 26.53L280.561 26.746C280.291 26.836 280.237 27.088 280.381 27.466L282.019 31.714L283.477 27.556C283.639 27.106 283.513 26.854 283.261 26.764L282.559 26.53L282.505 25.756H285.997ZM295.526 29.824C295.526 32.308 293.546 34.27 290.756 34.27C287.948 34.27 286.382 32.29 286.382 29.968C286.382 27.484 288.398 25.486 291.17 25.486C293.978 25.486 295.526 27.502 295.526 29.824ZM292.502 30.238C292.502 28.6 292.25 27.304 291.764 26.818C291.53 26.548 291.242 26.422 290.918 26.422C289.982 26.422 289.406 27.628 289.406 29.554C289.406 31.264 289.496 32.452 290.09 33.046C290.306 33.262 290.702 33.37 290.972 33.37C291.926 33.37 292.502 32.056 292.502 30.238ZM306.68 33.28L306.626 33.874L302.9 34.27V32.884H302.81C301.748 33.712 300.794 34.27 299.786 34.27C299.228 34.27 298.652 34.018 298.202 33.568C297.752 33.118 297.518 32.416 297.518 31.444V26.908C297.518 26.746 297.428 26.656 296.78 26.566L296.492 26.53L296.438 25.756H300.308L300.254 30.22C300.236 32.002 300.794 32.344 301.73 32.344C302.162 32.344 302.72 32.146 302.9 31.984V26.89C302.9 26.71 302.792 26.62 302.216 26.566L301.874 26.53L301.802 25.756H305.636V32.2C305.636 32.632 305.744 32.992 306.05 33.082L306.68 33.28ZM315.093 26.998C315.093 27.7 314.607 28.348 313.905 28.348C313.203 28.348 312.825 28.006 312.555 27.52C312.123 27.826 311.565 28.294 311.151 28.888V32.866C311.151 33.046 311.259 33.136 311.835 33.19L312.357 33.226L312.411 34H307.425L307.479 33.226L307.803 33.19C308.235 33.154 308.415 33.064 308.415 32.848V28.744C308.415 27.61 308.253 27.448 307.641 27.268L307.371 27.178L307.389 26.548L311.151 25.486V27.7H311.241C311.871 26.584 312.573 25.486 313.617 25.486C314.499 25.486 315.093 26.026 315.093 26.998ZM329.206 29.5C329.206 32.11 327.352 34.27 324.436 34.27C323.788 34.27 322.96 34.072 322.042 33.73H322.024L320.764 34.378H320.476V24.442C320.476 24.01 320.35 23.794 320.062 23.632L319.432 23.272L319.486 22.678L323.212 21.454V26.962H323.302C323.932 26.188 324.76 25.576 325.84 25.576C327.712 25.576 329.206 27.286 329.206 29.5ZM326.272 30.382C326.272 28.546 325.408 27.412 324.22 27.412C323.824 27.412 323.428 27.52 323.212 27.664V32.29C323.914 33.136 324.382 33.388 324.85 33.388C325.624 33.388 326.272 32.362 326.272 30.382ZM340.338 33.28L340.284 33.874L336.558 34.27V32.884H336.468C335.406 33.712 334.452 34.27 333.444 34.27C332.886 34.27 332.31 34.018 331.86 33.568C331.41 33.118 331.176 32.416 331.176 31.444V26.908C331.176 26.746 331.086 26.656 330.438 26.566L330.15 26.53L330.096 25.756H333.966L333.912 30.22C333.894 32.002 334.452 32.344 335.388 32.344C335.82 32.344 336.378 32.146 336.558 31.984V26.89C336.558 26.71 336.45 26.62 335.874 26.566L335.532 26.53L335.46 25.756H339.294V32.2C339.294 32.632 339.402 32.992 339.708 33.082L340.338 33.28ZM348.301 31.552C348.301 33.118 346.915 34.27 344.431 34.27C343.405 34.27 342.127 34.108 341.317 33.784L341.245 31.39H342.775L343.243 33.064C343.567 33.172 344.035 33.352 344.521 33.352C345.529 33.352 346.069 32.866 346.069 32.2C346.069 31.444 345.025 31.192 343.999 30.832C342.559 30.328 341.353 29.77 341.353 28.114C341.353 26.53 342.685 25.486 344.845 25.486C345.601 25.486 346.411 25.612 346.933 25.774L347.959 25.594L348.031 28.366H346.645L346.033 26.71C345.745 26.566 345.385 26.422 344.881 26.422C344.053 26.422 343.567 26.836 343.567 27.412C343.567 28.222 344.251 28.402 345.475 28.816C346.933 29.32 348.301 29.878 348.301 31.552ZM353.369 22.948C353.369 23.83 352.631 24.55 351.749 24.55C350.867 24.55 350.165 23.83 350.165 22.948C350.165 22.066 350.867 21.346 351.749 21.346C352.631 21.346 353.369 22.066 353.369 22.948ZM354.233 34H349.517L349.571 33.226L349.895 33.19C350.327 33.154 350.507 33.064 350.507 32.848V28.744C350.507 27.61 350.345 27.448 349.733 27.268L349.463 27.178L349.481 26.548L353.243 25.486V32.866C353.243 33.046 353.351 33.136 353.927 33.19L354.179 33.226L354.233 34ZM365.463 34H360.747L360.801 33.226L361.035 33.19C361.557 33.154 361.647 33.028 361.647 32.848V29.536C361.647 27.736 361.107 27.412 360.171 27.412C359.739 27.412 359.181 27.61 359.001 27.772V32.866C359.001 33.046 359.109 33.136 359.685 33.19L360.027 33.226L360.081 34H355.239L355.293 33.226L355.653 33.19C356.085 33.154 356.265 33.064 356.265 32.848V28.744C356.265 27.61 356.103 27.448 355.491 27.268L355.221 27.178L355.239 26.548L359.001 25.486V26.872H359.091C360.153 26.044 361.107 25.486 362.115 25.486C362.673 25.486 363.249 25.738 363.699 26.188C364.149 26.638 364.383 27.34 364.383 28.312V32.848C364.383 33.01 364.473 33.1 365.121 33.19L365.409 33.226L365.463 34ZM374.232 31.426C373.71 33.244 372.342 34.27 370.29 34.27C368.112 34.27 366.33 32.722 366.33 30.166C366.33 27.556 368.202 25.486 370.938 25.486C372.684 25.486 374.196 26.476 374.196 28.366C374.196 28.654 374.16 29.05 374.088 29.374L369.21 29.302V29.5C369.246 31.39 370.074 32.506 371.478 32.506C372.36 32.506 373.188 31.984 373.8 31.192L374.232 31.426ZM371.622 28.6C371.694 27.178 371.298 26.386 370.668 26.386C369.84 26.386 369.264 27.124 369.192 28.672L371.622 28.6ZM382.539 31.552C382.539 33.118 381.153 34.27 378.669 34.27C377.643 34.27 376.365 34.108 375.555 33.784L375.483 31.39H377.013L377.481 33.064C377.805 33.172 378.273 33.352 378.759 33.352C379.767 33.352 380.307 32.866 380.307 32.2C380.307 31.444 379.263 31.192 378.237 30.832C376.797 30.328 375.591 29.77 375.591 28.114C375.591 26.53 376.923 25.486 379.083 25.486C379.839 25.486 380.649 25.612 381.171 25.774L382.197 25.594L382.269 28.366H380.883L380.271 26.71C379.983 26.566 379.623 26.422 379.119 26.422C378.291 26.422 377.805 26.836 377.805 27.412C377.805 28.222 378.489 28.402 379.713 28.816C381.171 29.32 382.539 29.878 382.539 31.552ZM390.865 31.552C390.865 33.118 389.479 34.27 386.995 34.27C385.969 34.27 384.691 34.108 383.881 33.784L383.809 31.39H385.339L385.807 33.064C386.131 33.172 386.599 33.352 387.085 33.352C388.093 33.352 388.633 32.866 388.633 32.2C388.633 31.444 387.589 31.192 386.563 30.832C385.123 30.328 383.917 29.77 383.917 28.114C383.917 26.53 385.249 25.486 387.409 25.486C388.165 25.486 388.975 25.612 389.497 25.774L390.523 25.594L390.595 28.366H389.209L388.597 26.71C388.309 26.566 387.949 26.422 387.445 26.422C386.617 26.422 386.131 26.836 386.131 27.412C386.131 28.222 386.815 28.402 388.039 28.816C389.497 29.32 390.865 29.878 390.865 31.552Z" fill="#484849" data-color-group="0"/></svg>