<svg width="100%" height="100%" viewBox="0 0 188 57" fill="none" xmlns="http://www.w3.org/2000/svg" preserveAspectRatio="none"><path d="M21.061 19.5H12.826L12.907 18.312L13.744 18.258C14.527 18.204 14.662 17.961 14.662 17.691V11.643H8.209V17.718C8.209 17.988 8.371 18.15 9.235 18.204L9.991 18.312L10.072 19.5H1.837L1.918 18.312L2.755 18.204C3.403 18.15 3.673 18.015 3.673 17.691V4.434C3.673 4.191 3.538 4.002 2.566 3.921L1.918 3.813L1.837 2.625H10.072L9.991 3.813L9.127 3.921C8.344 3.975 8.209 4.164 8.209 4.434V10.158H14.662V4.407C14.662 4.137 14.5 3.975 13.636 3.921L12.907 3.813L12.826 2.625H21.061L20.98 3.813L20.116 3.921C19.468 3.975 19.198 4.11 19.198 4.434V17.691C19.198 17.934 19.333 18.123 20.305 18.204L20.98 18.312L21.061 19.5ZM34.7538 15.639C33.9708 18.366 31.9188 19.905 28.8408 19.905C25.5738 19.905 22.9008 17.583 22.9008 13.749C22.9008 9.834 25.7088 6.729 29.8128 6.729C32.4318 6.729 34.6998 8.214 34.6998 11.049C34.6998 11.481 34.6458 12.075 34.5378 12.561L27.2208 12.453V12.75C27.2748 15.585 28.5168 17.259 30.6228 17.259C31.9458 17.259 33.1878 16.476 34.1058 15.288L34.7538 15.639ZM30.8388 11.4C30.9468 9.267 30.3528 8.079 29.4078 8.079C28.1658 8.079 27.3018 9.186 27.1938 11.508L30.8388 11.4ZM47.8383 8.997C47.8383 10.05 47.1093 11.022 46.0563 11.022C45.0033 11.022 44.4363 10.509 44.0313 9.78C43.3833 10.239 42.5463 10.941 41.9253 11.832V17.799C41.9253 18.069 42.0873 18.204 42.9513 18.285L43.7343 18.339L43.8153 19.5H36.3363L36.4173 18.339L36.9033 18.285C37.5513 18.231 37.8213 18.096 37.8213 17.772V11.616C37.8213 9.915 37.5783 9.672 36.6603 9.402L36.2553 9.267L36.2823 8.322L41.9253 6.729V10.05H42.0603C43.0053 8.376 44.0583 6.729 45.6243 6.729C46.9473 6.729 47.8383 7.539 47.8383 8.997ZM60.4772 15.639C59.6943 18.366 57.6423 19.905 54.5642 19.905C51.2972 19.905 48.6242 17.583 48.6242 13.749C48.6242 9.834 51.4322 6.729 55.5362 6.729C58.1552 6.729 60.4232 8.214 60.4232 11.049C60.4232 11.481 60.3692 12.075 60.2613 12.561L52.9442 12.453V12.75C52.9982 15.585 54.2402 17.259 56.3462 17.259C57.6692 17.259 58.9112 16.476 59.8293 15.288L60.4772 15.639ZM56.5622 11.4C56.6702 9.267 56.0762 8.079 55.1312 8.079C53.8892 8.079 53.0252 9.186 52.9172 11.508L56.5622 11.4ZM77.9963 17.718C76.9703 18.96 75.2963 19.905 73.2713 19.905C70.8413 19.905 69.5453 18.474 69.5993 15.774L69.6803 9.429L67.6553 9.186L67.7363 8.106L69.8153 6.162L71.8943 4.191L73.5683 4.353L73.5413 7.404H77.9153L77.7263 9.321H73.5143L73.4603 14.505C73.4603 16.746 74.4053 17.313 75.6203 17.313C76.2953 17.313 77.2943 17.124 77.9153 16.827L77.9963 17.718ZM92.7001 13.236C92.7001 16.962 89.7301 19.905 85.5451 19.905C81.3331 19.905 78.9841 16.935 78.9841 13.452C78.9841 9.726 82.0081 6.729 86.1661 6.729C90.3781 6.729 92.7001 9.753 92.7001 13.236ZM88.1641 13.857C88.1641 11.4 87.7861 9.456 87.0571 8.727C86.7061 8.322 86.2741 8.133 85.7881 8.133C84.3841 8.133 83.5201 9.942 83.5201 12.831C83.5201 15.396 83.6551 17.178 84.5461 18.069C84.8701 18.393 85.4641 18.555 85.8691 18.555C87.3001 18.555 88.1641 16.584 88.1641 13.857ZM107.713 19.5H100.666L100.747 18.339L101.233 18.285C101.881 18.231 102.151 18.096 102.151 17.772V5.163C102.151 4.515 101.962 4.191 101.53 3.948L100.585 3.408L100.666 2.517L106.255 0.680999V17.799C106.255 18.069 106.417 18.204 107.281 18.285L107.632 18.339L107.713 19.5ZM115.064 2.922C115.064 4.245 113.957 5.325 112.634 5.325C111.311 5.325 110.258 4.245 110.258 2.922C110.258 1.599 111.311 0.519 112.634 0.519C113.957 0.519 115.064 1.599 115.064 2.922ZM116.36 19.5H109.286L109.367 18.339L109.853 18.285C110.501 18.231 110.771 18.096 110.771 17.772V11.616C110.771 9.915 110.528 9.672 109.61 9.402L109.205 9.267L109.232 8.322L114.875 6.729V17.799C114.875 18.069 115.037 18.204 115.901 18.285L116.279 18.339L116.36 19.5ZM131.292 10.077L128.916 9.645V9.753C128.97 9.915 129.132 10.347 129.132 10.833C129.132 13.911 127.08 15.801 123.246 15.801C122.76 15.801 122.301 15.747 121.815 15.666C121.626 15.774 121.383 16.179 121.383 16.476C121.383 17.313 121.815 17.61 123.057 17.61C124.083 17.61 125.514 17.529 126.621 17.529C128.916 17.529 130.698 19.041 130.698 21.444C130.698 24.225 127.674 26.925 122.787 26.925C119.52 26.925 117.36 25.737 117.36 23.793C117.36 22.281 118.332 21.498 120.033 20.931V20.796C118.845 20.31 118.089 19.473 118.089 18.285C118.089 17.07 119.196 15.774 120.654 15.477V15.369C119.331 14.829 118.008 13.776 118.008 11.481C118.008 9.105 119.547 6.729 123.624 6.729C124.947 6.729 126.297 7.08 127.215 7.566H131.4L131.292 10.077ZM127.62 22.902C127.62 21.957 127.242 21.579 126.675 21.282C126.27 21.066 124.704 21.093 121.194 21.093C120.951 21.336 120.573 21.903 120.573 22.821C120.573 24.171 121.842 25.359 124.191 25.359C126.054 25.359 127.62 24.252 127.62 22.902ZM125.271 11.427C125.271 9.915 124.974 8.889 124.461 8.376C124.218 8.133 123.894 7.971 123.597 7.971C122.49 7.971 121.923 8.889 121.923 11.265C121.923 12.696 122.139 13.695 122.652 14.208C122.895 14.451 123.219 14.586 123.516 14.586C123.921 14.586 124.326 14.478 124.596 14.208C125.055 13.749 125.271 12.831 125.271 11.427ZM147.068 19.5H139.994L140.075 18.339L140.426 18.285C141.209 18.231 141.344 18.042 141.344 17.772V12.804C141.344 10.104 140.534 9.618 139.13 9.618C138.482 9.618 137.645 9.915 137.375 10.158V17.799C137.375 18.069 137.537 18.204 138.401 18.285L138.914 18.339L138.995 19.5H131.732L131.813 18.339L132.353 18.285C133.001 18.231 133.271 18.096 133.271 17.772V5.163C133.271 4.515 133.028 4.191 132.65 3.948L131.651 3.408L131.732 2.517L137.375 0.680999V8.808H137.51C139.103 7.566 140.534 6.729 142.046 6.729C142.883 6.729 143.747 7.107 144.422 7.782C145.097 8.457 145.448 9.51 145.448 10.968V17.772C145.448 18.015 145.583 18.15 146.555 18.285L146.987 18.339L147.068 19.5ZM157.771 17.718C156.745 18.96 155.071 19.905 153.046 19.905C150.616 19.905 149.32 18.474 149.374 15.774L149.455 9.429L147.43 9.186L147.511 8.106L149.59 6.162L151.669 4.191L153.343 4.353L153.316 7.404H157.69L157.501 9.321H153.289L153.235 14.505C153.235 16.746 154.18 17.313 155.395 17.313C156.07 17.313 157.069 17.124 157.69 16.827L157.771 17.718ZM170.558 15.639C169.775 18.366 167.723 19.905 164.645 19.905C161.378 19.905 158.705 17.583 158.705 13.749C158.705 9.834 161.513 6.729 165.617 6.729C168.236 6.729 170.504 8.214 170.504 11.049C170.504 11.481 170.45 12.075 170.342 12.561L163.025 12.453V12.75C163.079 15.585 164.321 17.259 166.427 17.259C167.75 17.259 168.992 16.476 169.91 15.288L170.558 15.639ZM166.643 11.4C166.751 9.267 166.157 8.079 165.212 8.079C163.97 8.079 163.106 9.186 162.998 11.508L166.643 11.4ZM187.423 19.5H180.349L180.43 18.339L180.781 18.285C181.564 18.231 181.699 18.042 181.699 17.772V12.804C181.699 10.104 180.889 9.618 179.485 9.618C178.837 9.618 178 9.915 177.73 10.158V17.799C177.73 18.069 177.892 18.204 178.756 18.285L179.269 18.339L179.35 19.5H172.087L172.168 18.339L172.708 18.285C173.356 18.231 173.626 18.096 173.626 17.772V11.616C173.626 9.915 173.383 9.672 172.465 9.402L172.06 9.267L172.087 8.322L177.73 6.729V8.808H177.865C179.458 7.566 180.889 6.729 182.401 6.729C183.238 6.729 184.102 7.107 184.777 7.782C185.452 8.457 185.803 9.51 185.803 10.968V17.772C185.803 18.015 185.938 18.15 186.91 18.285L187.342 18.339L187.423 19.5ZM15.229 37.134L15.148 38.295L14.257 38.43C13.663 38.511 13.339 39.105 13.123 39.672L9.802 48.285L8.074 53.226C7.237 55.629 6.049 56.574 4.429 56.574C3.241 56.574 2.134 55.791 2.134 54.684C2.134 53.793 2.728 52.902 3.835 52.902C4.807 52.902 5.482 53.631 5.698 54.279C6.157 54.117 6.535 53.604 6.967 52.146L7.264 51.147V50.877L2.458 39.483C2.269 39.024 1.945 38.808 1.432 38.592L0.73 38.295L0.649 37.134H8.101L8.02 38.295L7.075 38.619C6.67 38.754 6.589 39.132 6.805 39.699L9.262 46.071L11.449 39.834C11.692 39.159 11.503 38.781 11.125 38.646L10.072 38.295L9.991 37.134H15.229ZM29.4726 43.236C29.4726 46.962 26.5026 49.905 22.3176 49.905C18.1056 49.905 15.7566 46.935 15.7566 43.452C15.7566 39.726 18.7806 36.729 22.9386 36.729C27.1506 36.729 29.4726 39.753 29.4726 43.236ZM24.9366 43.857C24.9366 41.4 24.5586 39.456 23.8296 38.727C23.4786 38.322 23.0466 38.133 22.5606 38.133C21.1566 38.133 20.2926 39.942 20.2926 42.831C20.2926 45.396 20.4276 47.178 21.3186 48.069C21.6426 48.393 22.2366 48.555 22.6416 48.555C24.0726 48.555 24.9366 46.584 24.9366 43.857ZM46.1527 48.42L46.0717 49.311L40.4827 49.905V47.826H40.3477C38.7547 49.068 37.3237 49.905 35.8117 49.905C34.9747 49.905 34.1107 49.527 33.4357 48.852C32.7607 48.177 32.4097 47.124 32.4097 45.666V38.862C32.4097 38.619 32.2747 38.484 31.3027 38.349L30.8707 38.295L30.7897 37.134H36.5947L36.5137 43.83C36.4867 46.503 37.3237 47.016 38.7277 47.016C39.3757 47.016 40.2127 46.719 40.4827 46.476V38.835C40.4827 38.565 40.3207 38.43 39.4567 38.349L38.9437 38.295L38.8357 37.134H44.5867V46.8C44.5867 47.448 44.7487 47.988 45.2077 48.123L46.1527 48.42ZM58.7225 38.997C58.7225 40.05 57.9935 41.022 56.9405 41.022C55.8875 41.022 55.3205 40.509 54.9155 39.78C54.2675 40.239 53.4305 40.941 52.8095 41.832V47.799C52.8095 48.069 52.9715 48.204 53.8355 48.285L54.6185 48.339L54.6995 49.5H47.2205L47.3015 48.339L47.7875 48.285C48.4355 48.231 48.7055 48.096 48.7055 47.772V41.616C48.7055 39.915 48.4625 39.672 47.5445 39.402L47.1395 39.267L47.1665 38.322L52.8095 36.729V40.05H52.9445C53.8895 38.376 54.9425 36.729 56.5085 36.729C57.8315 36.729 58.7225 37.539 58.7225 38.997ZM72.529 49.5H65.482L65.563 48.339L66.049 48.285C66.697 48.231 66.967 48.096 66.967 47.772V35.163C66.967 34.515 66.778 34.191 66.346 33.948L65.401 33.408L65.482 32.517L71.071 30.681V47.799C71.071 48.069 71.233 48.204 72.097 48.285L72.448 48.339L72.529 49.5ZM87.9804 43.236C87.9804 46.962 85.0104 49.905 80.8254 49.905C76.6134 49.905 74.2644 46.935 74.2644 43.452C74.2644 39.726 77.2884 36.729 81.4464 36.729C85.6584 36.729 87.9804 39.753 87.9804 43.236ZM83.4444 43.857C83.4444 41.4 83.0664 39.456 82.3374 38.727C81.9864 38.322 81.5544 38.133 81.0684 38.133C79.6644 38.133 78.8004 39.942 78.8004 42.831C78.8004 45.396 78.9354 47.178 79.8264 48.069C80.1504 48.393 80.7444 48.555 81.1494 48.555C82.5804 48.555 83.4444 46.584 83.4444 43.857ZM103.391 47.556C102.554 48.771 100.988 49.986 99.7195 49.986C98.6395 49.986 97.3165 49.338 97.2355 47.475H97.1005C95.9935 48.906 94.9405 49.905 93.3745 49.905C91.5655 49.905 89.9725 48.852 89.9725 46.719C89.9725 44.478 92.3485 43.128 97.1815 41.832V41.643C97.2355 39.996 96.2905 38.673 94.4545 38.673C93.5365 38.673 92.7265 38.97 92.7265 39.078C92.7265 39.186 93.4825 39.699 93.4825 40.698C93.4825 41.346 92.7805 42.21 91.7275 42.21C90.6475 42.21 89.8645 41.589 89.8645 40.698C89.8645 38.862 93.1585 36.756 96.6955 36.756C99.3415 36.756 101.42 37.998 101.258 41.859L101.069 46.179C101.015 47.178 101.177 47.448 101.771 47.448C102.041 47.448 102.5 47.151 102.986 46.746L103.391 47.556ZM97.0465 46.287L97.1275 42.912C94.2925 43.776 93.6985 44.694 93.6985 45.747C93.6985 46.773 94.5085 47.205 95.3995 47.205C96.1015 47.205 96.8035 46.638 97.0465 46.287ZM119.077 48.42L118.996 49.311L113.407 49.905V47.907H113.326C112.408 49.014 110.815 49.878 109.411 49.878C106.333 49.878 104.443 47.34 104.443 44.019C104.443 40.104 107.089 36.864 111.679 36.864C112.165 36.864 112.786 36.918 113.38 37.026H113.407V34.002C113.407 33.354 113.218 32.976 112.84 32.787L111.463 32.193L111.571 31.329L117.511 30.681V46.8C117.511 47.448 117.673 47.988 118.132 48.123L119.077 48.42ZM113.407 46.557V39.861C112.354 38.592 111.679 38.214 110.977 38.214C109.816 38.214 108.844 39.753 108.844 42.723C108.844 45.477 110.005 47.367 111.625 47.367C112.165 47.367 112.84 47.016 113.407 46.557Z" fill="white" data-color-group="0"/></svg>