<svg width="100%" height="100%" viewBox="0 0 116 30" fill="none" xmlns="http://www.w3.org/2000/svg" preserveAspectRatio="none"><rect width="116" height="30" fill="#0074B3" data-color-group="0"/><path d="M10.056 20.5V9.828H17.608V11.78H12.328V14.1H17.496V16.052H12.328V18.532H17.608V20.5H10.056ZM24.1201 20.5L22.3601 17.892L20.5841 20.5H18.3281L21.0641 16.532L18.4881 12.772H20.7601L22.3601 15.156L23.9441 12.772H26.2161L23.6241 16.532L26.3921 20.5H24.1201ZM29.4306 23.444H27.3986V12.772H29.4306V13.748C30.0226 12.996 30.8706 12.58 31.8146 12.58C33.7986 12.58 35.2386 14.052 35.2386 16.628C35.2386 19.204 33.7986 20.692 31.8146 20.692C30.9026 20.692 30.0546 20.308 29.4306 19.508V23.444ZM33.1266 16.628C33.1266 15.3 32.3426 14.388 31.1746 14.388C30.5186 14.388 29.7666 14.772 29.4306 15.268V18.004C29.7666 18.484 30.5186 18.884 31.1746 18.884C32.3426 18.884 33.1266 17.972 33.1266 16.628ZM36.758 20.5V9.828H38.79V20.5H36.758ZM44.3889 20.692C41.8449 20.692 40.3089 18.836 40.3089 16.628C40.3089 14.436 41.8449 12.58 44.3889 12.58C46.9489 12.58 48.4849 14.436 48.4849 16.628C48.4849 18.836 46.9489 20.692 44.3889 20.692ZM44.3889 18.884C45.6529 18.884 46.3729 17.844 46.3729 16.628C46.3729 15.428 45.6529 14.388 44.3889 14.388C43.1249 14.388 42.4209 15.428 42.4209 16.628C42.4209 17.844 43.1249 18.884 44.3889 18.884ZM49.9924 20.5V12.772H52.0244V13.828C52.5684 13.14 53.5284 12.596 54.4884 12.596V14.58C54.3444 14.548 54.1524 14.516 53.9284 14.516C53.2564 14.516 52.3604 14.9 52.0244 15.396V20.5H49.9924ZM55.262 16.628C55.262 14.388 56.91 12.58 59.262 12.58C61.566 12.58 63.134 14.308 63.134 16.836V17.284H57.39C57.518 18.26 58.302 19.076 59.614 19.076C60.334 19.076 61.182 18.788 61.678 18.308L62.574 19.62C61.806 20.324 60.59 20.692 59.39 20.692C57.038 20.692 55.262 19.108 55.262 16.628ZM59.262 14.196C57.998 14.196 57.454 15.14 57.358 15.908H61.166C61.118 15.172 60.606 14.196 59.262 14.196ZM70.7275 23.444H68.6955V12.772H70.7275V13.748C71.3195 12.996 72.1675 12.58 73.1115 12.58C75.0955 12.58 76.5355 14.052 76.5355 16.628C76.5355 19.204 75.0955 20.692 73.1115 20.692C72.1995 20.692 71.3515 20.308 70.7275 19.508V23.444ZM74.4235 16.628C74.4235 15.3 73.6395 14.388 72.4715 14.388C71.8155 14.388 71.0635 14.772 70.7275 15.268V18.004C71.0635 18.484 71.8155 18.884 72.4715 18.884C73.6395 18.884 74.4235 17.972 74.4235 16.628ZM78.0549 20.5V9.828H80.0869V20.5H78.0549ZM86.7418 20.5V19.7C86.2138 20.324 85.3018 20.692 84.2938 20.692C83.0618 20.692 81.6058 19.86 81.6058 18.132C81.6058 16.324 83.0618 15.668 84.2938 15.668C85.3177 15.668 86.2298 15.988 86.7418 16.612V15.54C86.7418 14.756 86.0698 14.244 85.0458 14.244C84.2138 14.244 83.4457 14.548 82.7898 15.156L82.0218 13.796C82.9658 12.964 84.1818 12.58 85.3978 12.58C87.1578 12.58 88.7738 13.284 88.7738 15.508V20.5H86.7418ZM86.7418 18.644V17.684C86.4058 17.236 85.7658 17.012 85.1098 17.012C84.3098 17.012 83.6538 17.428 83.6538 18.18C83.6538 18.9 84.3098 19.316 85.1098 19.316C85.7658 19.316 86.4058 19.092 86.7418 18.644ZM96.0053 20.5V15.828C96.0053 14.756 95.4453 14.388 94.5813 14.388C93.7812 14.388 93.1573 14.836 92.8213 15.3V20.5H90.7893V12.772H92.8213V13.78C93.3173 13.188 94.2613 12.58 95.5253 12.58C97.2213 12.58 98.0373 13.54 98.0373 15.044V20.5H96.0053ZM99.3829 19.492L100.263 18.068C100.823 18.596 101.975 19.124 102.935 19.124C103.815 19.124 104.231 18.82 104.231 18.34C104.231 17.796 103.559 17.604 102.679 17.428C101.351 17.172 99.6389 16.852 99.6389 15.012C99.6389 13.716 100.775 12.58 102.807 12.58C104.119 12.58 105.159 13.028 105.927 13.636L105.111 15.028C104.647 14.532 103.767 14.132 102.823 14.132C102.087 14.132 101.607 14.404 101.607 14.852C101.607 15.332 102.215 15.508 103.079 15.684C104.407 15.94 106.183 16.292 106.183 18.212C106.183 19.62 104.983 20.692 102.839 20.692C101.495 20.692 100.199 20.244 99.3829 19.492Z" fill="white" data-color-group="1"/></svg>