<svg width="100%" height="100%" viewBox="0 0 176 122" fill="none" xmlns="http://www.w3.org/2000/svg" preserveAspectRatio="none"><path d="M30.72 25H18.52L18.64 23.24L19.88 23.16C21.04 23.08 21.24 22.72 21.24 22.32V13.36H11.68V22.36C11.68 22.76 11.92 23 13.2 23.08L14.32 23.24L14.44 25H2.24L2.36 23.24L3.6 23.08C4.56 23 4.96 22.8 4.96 22.32V2.68C4.96 2.32 4.76 2.04 3.32 1.92L2.36 1.76L2.24 0H14.44L14.32 1.76L13.04 1.92C11.88 2 11.68 2.28 11.68 2.68V11.16H21.24V2.64C21.24 2.24 21 2 19.72 1.92L18.64 1.76L18.52 0H30.72L30.6 1.76L29.32 1.92C28.36 2 27.96 2.2 27.96 2.68V22.32C27.96 22.68 28.16 22.96 29.6 23.08L30.6 23.24L30.72 25ZM50.9575 19.28C49.7975 23.32 46.7575 25.6 42.1975 25.6C37.3575 25.6 33.3975 22.16 33.3975 16.48C33.3975 10.68 37.5575 6.08 43.6375 6.08C47.5175 6.08 50.8775 8.28 50.8775 12.48C50.8775 13.12 50.7975 14 50.6375 14.72L39.7975 14.56V15C39.8775 19.2 41.7175 21.68 44.8375 21.68C46.7975 21.68 48.6375 20.52 49.9975 18.76L50.9575 19.28ZM45.1575 13C45.3175 9.84 44.4375 8.08 43.0375 8.08C41.1975 8.08 39.9175 9.72 39.7575 13.16L45.1575 13ZM70.2938 9.44C70.2938 11 69.2138 12.44 67.6538 12.44C66.0938 12.44 65.2538 11.68 64.6538 10.6C63.6938 11.28 62.4538 12.32 61.5338 13.64V22.48C61.5338 22.88 61.7738 23.08 63.0538 23.2L64.2138 23.28L64.3338 25H53.2538L53.3738 23.28L54.0938 23.2C55.0538 23.12 55.4538 22.92 55.4538 22.44V13.32C55.4538 10.8 55.0938 10.44 53.7338 10.04L53.1338 9.84L53.1738 8.44L61.5338 6.08V11H61.7338C63.1338 8.52 64.6938 6.08 67.0138 6.08C68.9738 6.08 70.2938 7.28 70.2938 9.44ZM88.97 19.28C87.81 23.32 84.77 25.6 80.21 25.6C75.37 25.6 71.41 22.16 71.41 16.48C71.41 10.68 75.57 6.08 81.65 6.08C85.53 6.08 88.89 8.28 88.89 12.48C88.89 13.12 88.81 14 88.65 14.72L77.81 14.56V15C77.89 19.2 79.73 21.68 82.85 21.68C84.81 21.68 86.65 20.52 88.01 18.76L88.97 19.28ZM83.17 13C83.33 9.84 82.45 8.08 81.05 8.08C79.21 8.08 77.93 9.72 77.77 13.16L83.17 13ZM114.828 22.36C113.308 24.2 110.828 25.6 107.828 25.6C104.228 25.6 102.308 23.48 102.388 19.48L102.508 10.08L99.5078 9.72L99.6278 8.12L102.708 5.24L105.788 2.32L108.268 2.56L108.228 7.08H114.708L114.428 9.92H108.188L108.108 17.6C108.108 20.92 109.508 21.76 111.308 21.76C112.308 21.76 113.788 21.48 114.708 21.04L114.828 22.36ZM136.563 15.72C136.563 21.24 132.163 25.6 125.963 25.6C119.723 25.6 116.243 21.2 116.243 16.04C116.243 10.52 120.723 6.08 126.883 6.08C133.123 6.08 136.563 10.56 136.563 15.72ZM129.843 16.64C129.843 13 129.283 10.12 128.203 9.04C127.683 8.44 127.043 8.16 126.323 8.16C124.243 8.16 122.963 10.84 122.963 15.12C122.963 18.92 123.163 21.56 124.483 22.88C124.963 23.36 125.843 23.6 126.443 23.6C128.563 23.6 129.843 20.68 129.843 16.64ZM12.4 68H1.96L2.08 66.28L2.8 66.2C3.76 66.12 4.16 65.92 4.16 65.44V46.76C4.16 45.8 3.88 45.32 3.24 44.96L1.84 44.16L1.96 42.84L10.24 40.12V65.48C10.24 65.88 10.48 66.08 11.76 66.2L12.28 66.28L12.4 68ZM23.2428 43.44C23.2428 45.4 21.6028 47 19.6428 47C17.6828 47 16.1228 45.4 16.1228 43.44C16.1228 41.48 17.6828 39.88 19.6428 39.88C21.6028 39.88 23.2428 41.48 23.2428 43.44ZM25.1628 68H14.6828L14.8028 66.28L15.5228 66.2C16.4828 66.12 16.8828 65.92 16.8828 65.44V56.32C16.8828 53.8 16.5228 53.44 15.1628 53.04L14.5628 52.84L14.6028 51.44L22.9628 49.08V65.48C22.9628 65.88 23.2028 66.08 24.4828 66.2L25.0428 66.28L25.1628 68ZM47.2353 54.04L43.7153 53.4V53.56C43.7953 53.8 44.0353 54.44 44.0353 55.16C44.0353 59.72 40.9953 62.52 35.3153 62.52C34.5953 62.52 33.9153 62.44 33.1953 62.32C32.9153 62.48 32.5553 63.08 32.5553 63.52C32.5553 64.76 33.1953 65.2 35.0353 65.2C36.5553 65.2 38.6753 65.08 40.3153 65.08C43.7153 65.08 46.3553 67.32 46.3553 70.88C46.3553 75 41.8753 79 34.6353 79C29.7953 79 26.5953 77.24 26.5953 74.36C26.5953 72.12 28.0353 70.96 30.5553 70.12V69.92C28.7953 69.2 27.6753 67.96 27.6753 66.2C27.6753 64.4 29.3153 62.48 31.4753 62.04V61.88C29.5153 61.08 27.5553 59.52 27.5553 56.12C27.5553 52.6 29.8353 49.08 35.8753 49.08C37.8353 49.08 39.8353 49.6 41.1953 50.32H47.3953L47.2353 54.04ZM41.7953 73.04C41.7953 71.64 41.2353 71.08 40.3953 70.64C39.7953 70.32 37.4753 70.36 32.2753 70.36C31.9153 70.72 31.3553 71.56 31.3553 72.92C31.3553 74.92 33.2353 76.68 36.7153 76.68C39.4753 76.68 41.7953 75.04 41.7953 73.04ZM38.3153 56.04C38.3153 53.8 37.8753 52.28 37.1153 51.52C36.7553 51.16 36.2753 50.92 35.8353 50.92C34.1953 50.92 33.3553 52.28 33.3553 55.8C33.3553 57.92 33.6753 59.4 34.4353 60.16C34.7953 60.52 35.2753 60.72 35.7153 60.72C36.3153 60.72 36.9153 60.56 37.3153 60.16C37.9953 59.48 38.3153 58.12 38.3153 56.04ZM70.5594 68H60.0794L60.1994 66.28L60.7194 66.2C61.8794 66.12 62.0794 65.84 62.0794 65.44V58.08C62.0794 54.08 60.8794 53.36 58.7994 53.36C57.8394 53.36 56.5994 53.8 56.1994 54.16V65.48C56.1994 65.88 56.4394 66.08 57.7194 66.2L58.4794 66.28L58.5994 68H47.8394L47.9594 66.28L48.7594 66.2C49.7194 66.12 50.1194 65.92 50.1194 65.44V46.76C50.1194 45.8 49.7594 45.32 49.1994 44.96L47.7194 44.16L47.8394 42.84L56.1994 40.12V52.16H56.3994C58.7594 50.32 60.8794 49.08 63.1194 49.08C64.3594 49.08 65.6394 49.64 66.6394 50.64C67.6394 51.64 68.1594 53.2 68.1594 55.36V65.44C68.1594 65.8 68.3594 66 69.7994 66.2L70.4394 66.28L70.5594 68ZM86.3684 65.36C84.8484 67.2 82.3684 68.6 79.3684 68.6C75.7684 68.6 73.8484 66.48 73.9284 62.48L74.0484 53.08L71.0484 52.72L71.1684 51.12L74.2484 48.24L77.3284 45.32L79.8084 45.56L79.7684 50.08H86.2484L85.9684 52.92H79.7284L79.6484 60.6C79.6484 63.92 81.0484 64.76 82.8484 64.76C83.8484 64.76 85.3284 64.48 86.2484 64.04L86.3684 65.36ZM105.264 62.28C104.104 66.32 101.064 68.6 96.5038 68.6C91.6638 68.6 87.7038 65.16 87.7038 59.48C87.7038 53.68 91.8638 49.08 97.9438 49.08C101.824 49.08 105.184 51.28 105.184 55.48C105.184 56.12 105.104 57 104.944 57.72L94.1038 57.56V58C94.1838 62.2 96.0238 64.68 99.1438 64.68C101.104 64.68 102.944 63.52 104.304 61.76L105.264 62.28ZM99.4638 56C99.6238 52.84 98.7438 51.08 97.3438 51.08C95.5038 51.08 94.2238 52.72 94.0638 56.16L99.4638 56ZM130.2 68H119.72L119.84 66.28L120.36 66.2C121.52 66.12 121.72 65.84 121.72 65.44V58.08C121.72 54.08 120.52 53.36 118.44 53.36C117.48 53.36 116.24 53.8 115.84 54.16V65.48C115.84 65.88 116.08 66.08 117.36 66.2L118.12 66.28L118.24 68H107.48L107.6 66.28L108.4 66.2C109.36 66.12 109.76 65.92 109.76 65.44V56.32C109.76 53.8 109.4 53.44 108.04 53.04L107.44 52.84L107.48 51.44L115.84 49.08V52.16H116.04C118.4 50.32 120.52 49.08 122.76 49.08C124 49.08 125.28 49.64 126.28 50.64C127.28 51.64 127.8 53.2 127.8 55.36V65.44C127.8 65.8 128 66 129.44 66.2L130.08 66.28L130.2 68ZM22.08 92.68L21.96 94.4L20.64 94.6C19.76 94.72 19.28 95.6 18.96 96.44L14.04 109.2L11.48 116.52C10.24 120.08 8.48 121.48 6.08 121.48C4.32 121.48 2.68 120.32 2.68 118.68C2.68 117.36 3.56 116.04 5.2 116.04C6.64 116.04 7.64 117.12 7.96 118.08C8.64 117.84 9.2 117.08 9.84 114.92L10.28 113.44V113.04L3.16 96.16C2.88 95.48 2.4 95.16 1.64 94.84L0.6 94.4L0.48 92.68H11.52L11.4 94.4L10 94.88C9.4 95.08 9.28 95.64 9.6 96.48L13.24 105.92L16.48 96.68C16.84 95.68 16.56 95.12 16 94.92L14.44 94.4L14.32 92.68H22.08ZM43.1334 101.72C43.1334 107.24 38.7334 111.6 32.5334 111.6C26.2934 111.6 22.8134 107.2 22.8134 102.04C22.8134 96.52 27.2934 92.08 33.4534 92.08C39.6934 92.08 43.1334 96.56 43.1334 101.72ZM36.4134 102.64C36.4134 99 35.8534 96.12 34.7734 95.04C34.2534 94.44 33.6134 94.16 32.8934 94.16C30.8134 94.16 29.5334 96.84 29.5334 101.12C29.5334 104.92 29.7334 107.56 31.0534 108.88C31.5334 109.36 32.4134 109.6 33.0134 109.6C35.1334 109.6 36.4134 106.68 36.4134 102.64ZM67.7966 109.4L67.6766 110.72L59.3966 111.6V108.52H59.1966C56.8366 110.36 54.7166 111.6 52.4766 111.6C51.2366 111.6 49.9566 111.04 48.9566 110.04C47.9566 109.04 47.4366 107.48 47.4366 105.32V95.24C47.4366 94.88 47.2366 94.68 45.7966 94.48L45.1566 94.4L45.0366 92.68H53.6366L53.5166 102.6C53.4766 106.56 54.7166 107.32 56.7966 107.32C57.7566 107.32 58.9966 106.88 59.3966 106.52V95.2C59.3966 94.8 59.1566 94.6 57.8766 94.48L57.1166 94.4L56.9566 92.68H65.4766V107C65.4766 107.96 65.7166 108.76 66.3966 108.96L67.7966 109.4ZM86.3703 95.44C86.3703 97 85.2903 98.44 83.7303 98.44C82.1703 98.44 81.3303 97.68 80.7303 96.6C79.7703 97.28 78.5303 98.32 77.6103 99.64V108.48C77.6103 108.88 77.8503 109.08 79.1303 109.2L80.2903 109.28L80.4103 111H69.3303L69.4503 109.28L70.1703 109.2C71.1303 109.12 71.5303 108.92 71.5303 108.44V99.32C71.5303 96.8 71.1703 96.44 69.8103 96.04L69.2103 95.84L69.2503 94.44L77.6103 92.08V97H77.8103C79.2103 94.52 80.7703 92.08 83.0903 92.08C85.0503 92.08 86.3703 93.28 86.3703 95.44ZM106.728 111H96.2881L96.4081 109.28L97.1281 109.2C98.0881 109.12 98.4881 108.92 98.4881 108.44V89.76C98.4881 88.8 98.2081 88.32 97.5681 87.96L96.1681 87.16L96.2881 85.84L104.568 83.12V108.48C104.568 108.88 104.808 109.08 106.088 109.2L106.608 109.28L106.728 111ZM129.571 101.72C129.571 107.24 125.171 111.6 118.971 111.6C112.731 111.6 109.251 107.2 109.251 102.04C109.251 96.52 113.731 92.08 119.891 92.08C126.131 92.08 129.571 96.56 129.571 101.72ZM122.851 102.64C122.851 99 122.291 96.12 121.211 95.04C120.691 94.44 120.051 94.16 119.331 94.16C117.251 94.16 115.971 96.84 115.971 101.12C115.971 104.92 116.171 107.56 117.491 108.88C117.971 109.36 118.851 109.6 119.451 109.6C121.571 109.6 122.851 106.68 122.851 102.64ZM152.354 108.12C151.114 109.92 148.794 111.72 146.914 111.72C145.314 111.72 143.354 110.76 143.234 108H143.034C141.394 110.12 139.834 111.6 137.514 111.6C134.834 111.6 132.474 110.04 132.474 106.88C132.474 103.56 135.994 101.56 143.154 99.64V99.36C143.234 96.92 141.834 94.96 139.114 94.96C137.754 94.96 136.554 95.4 136.554 95.56C136.554 95.72 137.674 96.48 137.674 97.96C137.674 98.92 136.634 100.2 135.074 100.2C133.474 100.2 132.314 99.28 132.314 97.96C132.314 95.24 137.194 92.12 142.434 92.12C146.354 92.12 149.434 93.96 149.194 99.68L148.914 106.08C148.834 107.56 149.074 107.96 149.954 107.96C150.354 107.96 151.034 107.52 151.754 106.92L152.354 108.12ZM142.954 106.24L143.074 101.24C138.874 102.52 137.994 103.88 137.994 105.44C137.994 106.96 139.194 107.6 140.514 107.6C141.554 107.6 142.594 106.76 142.954 106.24ZM175.544 109.4L175.424 110.72L167.144 111.6V108.64H167.024C165.664 110.28 163.304 111.56 161.224 111.56C156.664 111.56 153.864 107.8 153.864 102.88C153.864 97.08 157.784 92.28 164.584 92.28C165.304 92.28 166.224 92.36 167.104 92.52H167.144V88.04C167.144 87.08 166.864 86.52 166.304 86.24L164.264 85.36L164.424 84.08L173.224 83.12V107C173.224 107.96 173.464 108.76 174.144 108.96L175.544 109.4ZM167.144 106.64V96.72C165.584 94.84 164.584 94.28 163.544 94.28C161.824 94.28 160.384 96.56 160.384 100.96C160.384 105.04 162.104 107.84 164.504 107.84C165.304 107.84 166.304 107.32 167.144 106.64Z" fill="white" data-color-group="0"/></svg>