<svg width="100%" height="100%" viewBox="0 0 174 53" fill="none" xmlns="http://www.w3.org/2000/svg" preserveAspectRatio="none"><path d="M19.575 18H11.95L12.025 16.9L12.8 16.85C13.525 16.8 13.65 16.575 13.65 16.325V10.725H7.675V16.35C7.675 16.6 7.825 16.75 8.625 16.8L9.325 16.9L9.4 18H1.775L1.85 16.9L2.625 16.8C3.225 16.75 3.475 16.625 3.475 16.325V4.05C3.475 3.825 3.35 3.65 2.45 3.575L1.85 3.475L1.775 2.375H9.4L9.325 3.475L8.525 3.575C7.8 3.625 7.675 3.8 7.675 4.05V9.35H13.65V4.025C13.65 3.775 13.5 3.625 12.7 3.575L12.025 3.475L11.95 2.375H19.575L19.5 3.475L18.7 3.575C18.1 3.625 17.85 3.75 17.85 4.05V16.325C17.85 16.55 17.975 16.725 18.875 16.8L19.5 16.9L19.575 18ZM32.2609 14.425C31.5359 16.95 29.6359 18.375 26.7859 18.375C23.7609 18.375 21.2859 16.225 21.2859 12.675C21.2859 9.05 23.8859 6.175 27.6859 6.175C30.1109 6.175 32.2109 7.55 32.2109 10.175C32.2109 10.575 32.1609 11.125 32.0609 11.575L25.2859 11.475V11.75C25.3359 14.375 26.4859 15.925 28.4359 15.925C29.6609 15.925 30.8109 15.2 31.6609 14.1L32.2609 14.425ZM28.6359 10.5C28.7359 8.525 28.1859 7.425 27.3109 7.425C26.1609 7.425 25.3609 8.45 25.2609 10.6L28.6359 10.5ZM44.3836 8.275C44.3836 9.25 43.7086 10.15 42.7336 10.15C41.7586 10.15 41.2336 9.675 40.8586 9C40.2586 9.425 39.4836 10.075 38.9086 10.9V16.425C38.9086 16.675 39.0586 16.8 39.8586 16.875L40.5836 16.925L40.6586 18H33.7336L33.8086 16.925L34.2586 16.875C34.8586 16.825 35.1086 16.7 35.1086 16.4V10.7C35.1086 9.125 34.8836 8.9 34.0336 8.65L33.6586 8.525L33.6836 7.65L38.9086 6.175V9.25H39.0336C39.9086 7.7 40.8836 6.175 42.3336 6.175C43.5586 6.175 44.3836 6.925 44.3836 8.275ZM56.0937 14.425C55.3688 16.95 53.4688 18.375 50.6187 18.375C47.5937 18.375 45.1187 16.225 45.1187 12.675C45.1187 9.05 47.7187 6.175 51.5187 6.175C53.9437 6.175 56.0437 7.55 56.0437 10.175C56.0437 10.575 55.9937 11.125 55.8938 11.575L49.1187 11.475V11.75C49.1687 14.375 50.3187 15.925 52.2687 15.925C53.4937 15.925 54.6437 15.2 55.4938 14.1L56.0937 14.425ZM52.4687 10.5C52.5687 8.525 52.0187 7.425 51.1437 7.425C49.9937 7.425 49.1937 8.45 49.0937 10.6L52.4687 10.5ZM72.3299 16.35C71.3799 17.5 69.8299 18.375 67.9549 18.375C65.7049 18.375 64.5049 17.05 64.5549 14.55L64.6299 8.675L62.7549 8.45L62.8299 7.45L64.7549 5.65L66.6799 3.825L68.2299 3.975L68.2049 6.8H72.2549L72.0799 8.575H68.1799L68.1299 13.375C68.1299 15.45 69.0049 15.975 70.1299 15.975C70.7549 15.975 71.6799 15.8 72.2549 15.525L72.3299 16.35ZM85.952 12.2C85.952 15.65 83.202 18.375 79.327 18.375C75.427 18.375 73.252 15.625 73.252 12.4C73.252 8.95 76.052 6.175 79.902 6.175C83.802 6.175 85.952 8.975 85.952 12.2ZM81.752 12.775C81.752 10.5 81.402 8.7 80.727 8.025C80.402 7.65 80.002 7.475 79.552 7.475C78.252 7.475 77.452 9.15 77.452 11.825C77.452 14.2 77.577 15.85 78.402 16.675C78.702 16.975 79.252 17.125 79.627 17.125C80.952 17.125 81.752 15.3 81.752 12.775ZM99.8674 18H93.3424L93.4174 16.925L93.8674 16.875C94.4674 16.825 94.7174 16.7 94.7174 16.4V4.725C94.7174 4.125 94.5424 3.825 94.1424 3.6L93.2674 3.1L93.3424 2.275L98.5174 0.574999V16.425C98.5174 16.675 98.6674 16.8 99.4674 16.875L99.7924 16.925L99.8674 18ZM106.682 2.65C106.682 3.875 105.657 4.875 104.432 4.875C103.207 4.875 102.232 3.875 102.232 2.65C102.232 1.425 103.207 0.425 104.432 0.425C105.657 0.425 106.682 1.425 106.682 2.65ZM107.882 18H101.332L101.407 16.925L101.857 16.875C102.457 16.825 102.707 16.7 102.707 16.4V10.7C102.707 9.125 102.482 8.9 101.632 8.65L101.257 8.525L101.282 7.65L106.507 6.175V16.425C106.507 16.675 106.657 16.8 107.457 16.875L107.807 16.925L107.882 18ZM121.714 9.275L119.514 8.875V8.975C119.564 9.125 119.714 9.525 119.714 9.975C119.714 12.825 117.814 14.575 114.264 14.575C113.814 14.575 113.389 14.525 112.939 14.45C112.764 14.55 112.539 14.925 112.539 15.2C112.539 15.975 112.939 16.25 114.089 16.25C115.039 16.25 116.364 16.175 117.389 16.175C119.514 16.175 121.164 17.575 121.164 19.8C121.164 22.375 118.364 24.875 113.839 24.875C110.814 24.875 108.814 23.775 108.814 21.975C108.814 20.575 109.714 19.85 111.289 19.325V19.2C110.189 18.75 109.489 17.975 109.489 16.875C109.489 15.75 110.514 14.55 111.864 14.275V14.175C110.639 13.675 109.414 12.7 109.414 10.575C109.414 8.375 110.839 6.175 114.614 6.175C115.839 6.175 117.089 6.5 117.939 6.95H121.814L121.714 9.275ZM118.314 21.15C118.314 20.275 117.964 19.925 117.439 19.65C117.064 19.45 115.614 19.475 112.364 19.475C112.139 19.7 111.789 20.225 111.789 21.075C111.789 22.325 112.964 23.425 115.139 23.425C116.864 23.425 118.314 22.4 118.314 21.15ZM116.139 10.525C116.139 9.125 115.864 8.175 115.389 7.7C115.164 7.475 114.864 7.325 114.589 7.325C113.564 7.325 113.039 8.175 113.039 10.375C113.039 11.7 113.239 12.625 113.714 13.1C113.939 13.325 114.239 13.45 114.514 13.45C114.889 13.45 115.264 13.35 115.514 13.1C115.939 12.675 116.139 11.825 116.139 10.525ZM136.329 18H129.779L129.854 16.925L130.179 16.875C130.904 16.825 131.029 16.65 131.029 16.4V11.8C131.029 9.3 130.279 8.85 128.979 8.85C128.379 8.85 127.604 9.125 127.354 9.35V16.425C127.354 16.675 127.504 16.8 128.304 16.875L128.779 16.925L128.854 18H122.129L122.204 16.925L122.704 16.875C123.304 16.825 123.554 16.7 123.554 16.4V4.725C123.554 4.125 123.329 3.825 122.979 3.6L122.054 3.1L122.129 2.275L127.354 0.574999V8.1H127.479C128.954 6.95 130.279 6.175 131.679 6.175C132.454 6.175 133.254 6.525 133.879 7.15C134.504 7.775 134.829 8.75 134.829 10.1V16.4C134.829 16.625 134.954 16.75 135.854 16.875L136.254 16.925L136.329 18ZM146.248 16.35C145.298 17.5 143.748 18.375 141.873 18.375C139.623 18.375 138.423 17.05 138.473 14.55L138.548 8.675L136.673 8.45L136.748 7.45L138.673 5.65L140.598 3.825L142.148 3.975L142.123 6.8H146.173L145.998 8.575H142.098L142.048 13.375C142.048 15.45 142.923 15.975 144.048 15.975C144.673 15.975 145.598 15.8 146.173 15.525L146.248 16.35ZM158.095 14.425C157.37 16.95 155.47 18.375 152.62 18.375C149.595 18.375 147.12 16.225 147.12 12.675C147.12 9.05 149.72 6.175 153.52 6.175C155.945 6.175 158.045 7.55 158.045 10.175C158.045 10.575 157.995 11.125 157.895 11.575L151.12 11.475V11.75C151.17 14.375 152.32 15.925 154.27 15.925C155.495 15.925 156.645 15.2 157.495 14.1L158.095 14.425ZM154.47 10.5C154.57 8.525 154.02 7.425 153.145 7.425C151.995 7.425 151.195 8.45 151.095 10.6L154.47 10.5ZM173.717 18H167.167L167.242 16.925L167.567 16.875C168.292 16.825 168.417 16.65 168.417 16.4V11.8C168.417 9.3 167.667 8.85 166.367 8.85C165.767 8.85 164.992 9.125 164.742 9.35V16.425C164.742 16.675 164.892 16.8 165.692 16.875L166.167 16.925L166.242 18H159.517L159.592 16.925L160.092 16.875C160.692 16.825 160.942 16.7 160.942 16.4V10.7C160.942 9.125 160.717 8.9 159.867 8.65L159.492 8.525L159.517 7.65L164.742 6.175V8.1H164.867C166.342 6.95 167.667 6.175 169.067 6.175C169.842 6.175 170.642 6.525 171.267 7.15C171.892 7.775 172.217 8.75 172.217 10.1V16.4C172.217 16.625 172.342 16.75 173.242 16.875L173.642 16.925L173.717 18ZM14.175 34.55L14.1 35.625L13.275 35.75C12.725 35.825 12.425 36.375 12.225 36.9L9.15 44.875L7.55 49.45C6.775 51.675 5.675 52.55 4.175 52.55C3.075 52.55 2.05 51.825 2.05 50.8C2.05 49.975 2.6 49.15 3.625 49.15C4.525 49.15 5.15 49.825 5.35 50.425C5.775 50.275 6.125 49.8 6.525 48.45L6.8 47.525V47.275L2.35 36.725C2.175 36.3 1.875 36.1 1.4 35.9L0.75 35.625L0.675 34.55H7.575L7.5 35.625L6.625 35.925C6.25 36.05 6.175 36.4 6.375 36.925L8.65 42.825L10.675 37.05C10.9 36.425 10.725 36.075 10.375 35.95L9.4 35.625L9.325 34.55H14.175ZM27.3709 40.2C27.3709 43.65 24.6209 46.375 20.7459 46.375C16.8459 46.375 14.6709 43.625 14.6709 40.4C14.6709 36.95 17.4709 34.175 21.3209 34.175C25.2209 34.175 27.3709 36.975 27.3709 40.2ZM23.1709 40.775C23.1709 38.5 22.8209 36.7 22.1459 36.025C21.8209 35.65 21.4209 35.475 20.9709 35.475C19.6709 35.475 18.8709 37.15 18.8709 39.825C18.8709 42.2 18.9959 43.85 19.8209 44.675C20.1209 44.975 20.6709 45.125 21.0459 45.125C22.3709 45.125 23.1709 43.3 23.1709 40.775ZM42.8229 45L42.7479 45.825L37.5729 46.375V44.45H37.4479C35.9729 45.6 34.6479 46.375 33.2479 46.375C32.4729 46.375 31.6729 46.025 31.0479 45.4C30.4229 44.775 30.0979 43.8 30.0979 42.45V36.15C30.0979 35.925 29.9729 35.8 29.0729 35.675L28.6729 35.625L28.5979 34.55H33.9729L33.8979 40.75C33.8729 43.225 34.6479 43.7 35.9479 43.7C36.5479 43.7 37.3229 43.425 37.5729 43.2V36.125C37.5729 35.875 37.4229 35.75 36.6229 35.675L36.1479 35.625L36.0479 34.55H41.3729V43.5C41.3729 44.1 41.5229 44.6 41.9479 44.725L42.8229 45ZM54.4689 36.275C54.4689 37.25 53.7939 38.15 52.8189 38.15C51.8439 38.15 51.3189 37.675 50.9439 37C50.3439 37.425 49.5689 38.075 48.9939 38.9V44.425C48.9939 44.675 49.1439 44.8 49.9439 44.875L50.6689 44.925L50.7439 46H43.8189L43.8939 44.925L44.3439 44.875C44.9439 44.825 45.1939 44.7 45.1939 44.4V38.7C45.1939 37.125 44.9689 36.9 44.1189 36.65L43.7439 36.525L43.7689 35.65L48.9939 34.175V37.25H49.1189C49.9939 35.7 50.9689 34.175 52.4189 34.175C53.6439 34.175 54.4689 34.925 54.4689 36.275ZM67.2676 46H60.7426L60.8176 44.925L61.2676 44.875C61.8676 44.825 62.1176 44.7 62.1176 44.4V32.725C62.1176 32.125 61.9426 31.825 61.5426 31.6L60.6676 31.1L60.7426 30.275L65.9176 28.575V44.425C65.9176 44.675 66.0676 44.8 66.8676 44.875L67.1926 44.925L67.2676 46ZM81.5818 40.2C81.5818 43.65 78.8318 46.375 74.9568 46.375C71.0568 46.375 68.8818 43.625 68.8818 40.4C68.8818 36.95 71.6818 34.175 75.5318 34.175C79.4318 34.175 81.5818 36.975 81.5818 40.2ZM77.3818 40.775C77.3818 38.5 77.0318 36.7 76.3568 36.025C76.0318 35.65 75.6318 35.475 75.1818 35.475C73.8818 35.475 73.0818 37.15 73.0818 39.825C73.0818 42.2 73.2068 43.85 74.0318 44.675C74.3318 44.975 74.8818 45.125 75.2568 45.125C76.5818 45.125 77.3818 43.3 77.3818 40.775ZM95.8588 44.2C95.0838 45.325 93.6338 46.45 92.4588 46.45C91.4588 46.45 90.2338 45.85 90.1588 44.125H90.0338C89.0088 45.45 88.0338 46.375 86.5838 46.375C84.9088 46.375 83.4338 45.4 83.4338 43.425C83.4338 41.35 85.6338 40.1 90.1088 38.9V38.725C90.1588 37.2 89.2838 35.975 87.5838 35.975C86.7338 35.975 85.9838 36.25 85.9838 36.35C85.9838 36.45 86.6838 36.925 86.6838 37.85C86.6838 38.45 86.0338 39.25 85.0588 39.25C84.0588 39.25 83.3338 38.675 83.3338 37.85C83.3338 36.15 86.3838 34.2 89.6588 34.2C92.1088 34.2 94.0338 35.35 93.8838 38.925L93.7088 42.925C93.6588 43.85 93.8088 44.1 94.3588 44.1C94.6088 44.1 95.0338 43.825 95.4838 43.45L95.8588 44.2ZM89.9838 43.025L90.0588 39.9C87.4338 40.7 86.8838 41.55 86.8838 42.525C86.8838 43.475 87.6338 43.875 88.4588 43.875C89.1088 43.875 89.7588 43.35 89.9838 43.025ZM110.39 45L110.315 45.825L105.14 46.375V44.525H105.065C104.215 45.55 102.74 46.35 101.44 46.35C98.59 46.35 96.84 44 96.84 40.925C96.84 37.3 99.29 34.3 103.54 34.3C103.99 34.3 104.565 34.35 105.115 34.45H105.14V31.65C105.14 31.05 104.965 30.7 104.615 30.525L103.34 29.975L103.44 29.175L108.94 28.575V43.5C108.94 44.1 109.09 44.6 109.515 44.725L110.39 45ZM105.14 43.275V37.075C104.165 35.9 103.54 35.55 102.89 35.55C101.815 35.55 100.915 36.975 100.915 39.725C100.915 42.275 101.99 44.025 103.49 44.025C103.99 44.025 104.615 43.7 105.14 43.275Z" fill="white" data-color-group="0"/></svg>