<svg width="100%" height="100%" viewBox="0 0 107 34" fill="none" xmlns="http://www.w3.org/2000/svg" preserveAspectRatio="none"><path d="M24.2318 19.6198H18.2594L18.3448 20.6537L18.9857 20.7658C20.0537 21.0587 20.2502 22.084 19.43 25.0652L17.9005 30.6397H17.6784L15.8157 23.161C15.3543 21.412 15.4142 20.8519 16.2173 20.7399L16.9521 20.6537L17.0205 19.6198H9.56134L9.6297 20.6537L10.2705 20.8088C10.8686 20.9639 11.2702 21.343 11.424 21.9461L11.7828 23.3161L9.49299 30.657H9.27084L7.25439 23.161C6.76737 21.524 6.9468 20.8347 7.65597 20.7399L8.39078 20.6537L8.45913 19.6198H1L1.06835 20.6537L1.70917 20.8088C2.40126 20.9467 2.6405 21.2569 2.86265 21.9461L6.61357 33.6037H9.80912L12.5177 25.2978H12.7398L15.0468 33.6037H18.1739L20.8825 25.0565C21.9676 21.6101 22.4632 21.1879 23.6764 20.8002L24.1891 20.6451L24.2318 19.6112V19.6198ZM32.8273 30.4071L32.2976 30.1142C31.5457 31.0964 30.5204 31.7512 29.4353 31.7512C27.7008 31.7512 26.684 30.364 26.6413 28.0118V27.7706L32.6565 27.8568C32.7419 27.4518 32.7932 26.9607 32.7932 26.5988C32.7932 24.2466 30.9305 23.0145 28.7774 23.0145C25.4024 23.0145 23.0954 25.5907 23.0954 28.8304C23.0954 32.07 25.2913 33.9311 27.9742 33.9311C30.5033 33.9311 32.1865 32.6559 32.8359 30.3985M29.6062 26.8918L26.6071 26.9779C26.6926 25.0565 27.4103 24.1346 28.4271 24.1346C29.2046 24.1346 29.6916 25.1169 29.6062 26.8831M54.3674 33.6037L54.2991 32.6214L53.7437 32.5353C52.9405 32.4663 52.8294 32.3113 52.8294 32.1131V21.1276C52.8294 20.8605 53.0516 20.7485 53.5813 20.7054L54.2905 20.6193L54.3589 19.637H47.5918L47.6602 20.6193L48.2583 20.7054C48.9674 20.7485 49.1041 20.8864 49.1041 21.1104V25.8751H43.7982V21.1276C43.7982 20.9036 43.9092 20.7485 44.5501 20.7054L45.2592 20.6193L45.3276 19.637H38.5605L38.6289 20.6193L39.1586 20.7054C39.9618 20.7744 40.0729 20.9295 40.0729 21.1276V32.1131C40.0729 32.3802 39.8507 32.4922 39.321 32.5353L38.6289 32.6214L38.5605 33.6037H45.3276L45.2592 32.6214L44.6355 32.5353C43.9263 32.4922 43.7896 32.3543 43.7896 32.1303V27.0985H49.0956V32.1131C49.0956 32.3371 48.9845 32.5353 48.3437 32.587L47.6516 32.63L47.5833 33.6123H54.3503L54.3674 33.6037ZM65.2442 30.4071L64.7145 30.1142C63.9626 31.0964 62.9373 31.7512 61.8522 31.7512C60.1177 31.7512 59.1009 30.364 59.0582 28.0118V27.7706L65.0733 27.8568C65.1588 27.4518 65.2015 26.9607 65.2015 26.5988C65.2015 24.2466 63.3389 23.0145 61.1857 23.0145C57.8107 23.0145 55.5038 25.5907 55.5038 28.8304C55.5038 32.07 57.6997 33.9311 60.3911 33.9311C62.9202 33.9311 64.612 32.6559 65.2528 30.3985M62.0231 26.8918L59.024 26.9779C59.1095 25.0565 59.8272 24.1346 60.8439 24.1346C61.6215 24.1346 62.1085 25.1169 62.0231 26.8831M77.8812 31.9925L77.548 31.3204C77.1464 31.6564 76.7704 31.9063 76.5483 31.9063C76.0613 31.9063 75.9246 31.6823 75.9673 30.8551L76.1211 27.2709C76.2492 24.0743 74.5404 23.0404 72.3701 23.0404C69.4651 23.0404 66.7566 24.7894 66.7566 26.3059C66.7566 27.0468 67.3974 27.5638 68.286 27.5638C69.1746 27.5638 69.73 26.8487 69.73 26.3059C69.73 25.4787 69.1062 25.0565 69.1062 24.9618C69.1062 24.867 69.7727 24.6257 70.5246 24.6257C72.0369 24.6257 72.8144 25.72 72.7632 27.0899V27.245C68.7901 28.322 66.8335 29.4421 66.8335 31.2946C66.8335 33.147 68.1407 33.9311 69.6274 33.9311C70.9176 33.9311 71.7806 33.1039 72.6948 31.9149H72.8059C72.8743 33.4572 73.9594 34 74.848 34C75.8904 34 77.1806 32.9919 77.8641 31.9838M72.6692 30.9413C72.4727 31.2342 71.8917 31.6995 71.3192 31.6995C70.5844 31.6995 69.9179 31.3376 69.9179 30.4933C69.9179 29.6489 70.405 28.8562 72.7375 28.1411L72.6692 30.9413ZM84.5713 33.6037L84.503 32.6387L84.2125 32.5956C83.5033 32.5267 83.3666 32.4146 83.3666 32.1906V18L78.7698 19.525L78.7014 20.266L79.479 20.7141C79.8378 20.9122 79.9916 21.1793 79.9916 21.7221V32.1734C79.9916 32.4405 79.7695 32.5525 79.2397 32.5956L78.8381 32.6387L78.7698 33.6037H84.5628H84.5713ZM93.4659 32.1303L93.3976 31.3893C92.8849 31.6392 92.0647 31.7943 91.5093 31.7943C90.5096 31.7943 89.7321 31.3204 89.7321 29.468L89.7748 25.1686H93.2352L93.389 23.5832H89.7919L89.809 21.0501L88.4333 20.9208L86.7245 22.5579L85.0156 24.1691L84.9473 25.0652L86.6134 25.2633L86.5451 30.5277C86.5023 32.7679 87.5618 33.9483 89.5612 33.9483C91.2273 33.9483 92.6029 33.1642 93.4488 32.1389M107 33.6037L106.932 32.6387L106.573 32.5956C105.778 32.4836 105.667 32.3716 105.667 32.1734V26.5299C105.667 25.3236 105.377 24.4448 104.821 23.8848C104.266 23.3247 103.557 23.0145 102.865 23.0145C101.626 23.0145 100.447 23.7038 99.1393 24.7377H99.0282V18L94.3887 19.525L94.3203 20.266L95.1406 20.7141C95.4482 20.9122 95.6532 21.1793 95.6532 21.7221V32.1734C95.6532 32.4405 95.4311 32.5525 94.9013 32.5956L94.457 32.6387L94.3887 33.6037H100.361L100.293 32.6387L99.8741 32.5956C99.1649 32.5267 99.0282 32.4146 99.0282 32.1906V25.8578C99.2504 25.6597 99.9425 25.4098 100.472 25.4098C101.626 25.4098 102.292 25.8148 102.292 28.0463V32.1648C102.292 32.3888 102.181 32.5439 101.54 32.587L101.25 32.63L101.181 33.595H107V33.6037Z" fill="white" data-color-group="0"/><path d="M14.1892 6.40071V1.55648H0.473834L0 6.40071H2.08487L2.50701 4.95244C3.11007 2.92152 4.00605 2.61356 5.1691 2.61356H5.30694V13.6171C5.30694 13.8751 5.08294 13.9834 4.5488 14.025L3.60975 14.1082L3.54083 15.0571H10.8379L10.7689 14.1082L9.91605 14.025C9.20099 13.9834 9.06315 13.8502 9.06315 13.6338V2.61356H9.2613C10.3123 2.61356 11.2514 2.76338 11.8545 4.88585L12.2766 6.40071H14.1806H14.1892ZM26.2418 10.0547C26.2418 7.26635 24.3206 4.84423 20.8228 4.84423C17.3251 4.84423 14.8698 7.24138 14.8698 10.2295C14.8698 13.0178 16.8168 15.3983 20.3059 15.3983C23.7951 15.3983 26.2332 13.0428 26.2332 10.0547M22.4856 10.5541C22.4856 12.7348 21.7705 14.3163 20.5816 14.3163C20.2456 14.3163 19.7546 14.1914 19.4875 13.9251C18.7466 13.2093 18.6346 11.786 18.6346 9.73008C18.6346 7.41617 19.3496 5.9679 20.5127 5.9679C20.9176 5.9679 21.2708 6.11772 21.5637 6.44233C22.1668 7.02497 22.4856 8.58145 22.4856 10.5458M38.7079 7.52438L38.7941 5.51011H35.3222C34.564 5.11891 33.444 4.83591 32.3413 4.83591C28.9642 4.83591 27.6891 6.74197 27.6891 8.63971C27.6891 10.5375 28.7832 11.3199 29.886 11.7527V11.8359C28.6799 12.0773 27.758 13.1094 27.758 14.0832C27.758 15.0571 28.3869 15.7063 29.3691 16.0975V16.2057C27.9562 16.6635 27.155 17.2878 27.155 18.4946C27.155 20.0511 28.9469 21 31.6521 21C35.7012 21 38.2082 18.8359 38.2082 16.6136C38.2082 14.6908 36.735 13.4756 34.8311 13.4756C33.9093 13.4756 32.729 13.5422 31.8761 13.5422C30.8509 13.5422 30.489 13.3008 30.489 12.635C30.489 12.3936 30.6958 12.069 30.8509 11.9857C31.2558 12.0523 31.6349 12.0939 32.0398 12.0939C35.2188 12.0939 36.916 10.5791 36.916 8.11534C36.916 7.72414 36.7781 7.38288 36.735 7.2497V7.16647L38.7079 7.51605V7.52438ZM35.6668 17.7955C35.6668 18.8775 34.3659 19.7598 32.8238 19.7598C30.8767 19.7598 29.8257 18.8109 29.8257 17.7289C29.8257 16.9964 30.1358 16.5386 30.3426 16.3472C33.2545 16.3472 34.5468 16.3222 34.8828 16.497C35.3566 16.7301 35.6668 17.038 35.6668 17.7955ZM33.7197 8.60642C33.7197 9.73008 33.5388 10.4625 33.1597 10.8288C32.9358 11.0452 32.5998 11.1284 32.2638 11.1284C32.0139 11.1284 31.7469 11.0202 31.5487 10.8288C31.1266 10.4209 30.9456 9.62188 30.9456 8.47325C30.9456 6.56718 31.4195 5.83472 32.3327 5.83472C32.5825 5.83472 32.8496 5.95957 33.0477 6.15933C33.4785 6.56718 33.7197 7.3912 33.7197 8.60642ZM49.3132 11.9774L48.779 11.6944C48.0209 12.6433 46.9871 13.2759 45.893 13.2759C44.1441 13.2759 43.1189 11.9358 43.0758 9.6635V9.42212L49.1409 9.50535C49.227 9.11415 49.2787 8.63972 49.2787 8.29845C49.2787 6.02616 47.4006 4.83591 45.2296 4.83591C41.8266 4.83591 39.5005 7.32461 39.5005 10.4542C39.5005 13.5838 41.7146 15.3817 44.4284 15.3817C46.9785 15.3817 48.6843 14.1498 49.3304 11.9691M46.0653 8.58145L43.0413 8.66468C43.1275 6.80856 43.8425 5.91795 44.8764 5.91795C45.6603 5.91795 46.1514 6.86683 46.0653 8.57313M58.8588 13.6421L58.7898 12.9263C58.2729 13.1677 57.4459 13.3175 56.8859 13.3175C55.8779 13.3175 55.0939 12.8597 55.0939 11.0702L55.137 6.91677H58.6262L58.7812 5.38526H55.1542L55.1801 2.93817L53.793 2.81332L52.07 4.39477L50.347 5.95125L50.2781 6.81688L51.958 7.00832L51.8891 12.0856C51.846 14.2497 52.9143 15.39 54.9303 15.39C56.6102 15.39 57.9973 14.6326 58.8415 13.6421M72.5052 15.0654L72.4363 14.1332L72.083 14.0916C71.2732 13.9834 71.1612 13.8751 71.1612 13.6837V8.23187C71.1612 7.06659 70.8683 6.2176 70.3083 5.6849C69.7483 5.14388 69.0333 4.84423 68.3354 4.84423C67.0862 4.84423 65.8973 5.51843 64.5792 6.50892H64.4672V0L59.7892 1.47325L59.7203 2.18906L60.5473 2.62188C60.8661 2.81332 61.0642 3.07967 61.0642 3.59572V13.692C61.0642 13.9501 60.8403 14.0583 60.3061 14.0999L59.8581 14.1415L59.7892 15.0737H65.8112L65.7423 14.1415L65.3201 14.0999C64.6051 14.0333 64.4672 13.9251 64.4672 13.7087V7.59096C64.6912 7.39952 65.3804 7.15815 65.9232 7.15815C67.0862 7.15815 67.7582 7.54935 67.7582 9.71344V13.692C67.7582 13.9084 67.6462 14.0583 67.0001 14.0999L66.7072 14.1415L66.6383 15.0737H72.5052V15.0654ZM83.1621 11.9774L82.628 11.6944C81.8699 12.6433 80.836 13.2759 79.7419 13.2759C77.993 13.2759 76.9678 11.9358 76.9248 9.6635V9.42212L82.9898 9.50535C83.076 9.11415 83.1277 8.63972 83.1277 8.29845C83.1277 6.02616 81.2496 4.83591 79.0785 4.83591C75.6756 4.83591 73.3495 7.32461 73.3495 10.4542C73.3495 13.5838 75.5636 15.3817 78.2687 15.3817C80.8188 15.3817 82.5246 14.1498 83.1707 11.9691M79.9142 8.58145L76.8903 8.66468C76.9764 6.80856 77.6915 5.91795 78.7253 5.91795C79.5093 5.91795 80.0004 6.86683 79.9142 8.57313M93.9914 6.65874C93.9914 5.49346 93.2505 4.84423 92.1564 4.84423C90.8555 4.84423 89.9853 6.15933 89.2014 7.49941H89.0894V4.84423L84.4113 6.11772L84.3855 6.87515L84.7215 6.98335C85.4796 7.19976 85.6864 7.3912 85.6864 8.75624V13.6837C85.6864 13.9417 85.4624 14.0499 84.9282 14.0916L84.5233 14.1332L84.4544 15.0654H90.6573L90.5884 14.1332L89.9423 14.0916C89.2272 14.025 89.0894 13.9168 89.0894 13.7004V8.92271C89.6063 8.2069 90.2955 7.64923 90.8382 7.283C91.1742 7.86564 91.6481 8.27348 92.5182 8.27348C93.3883 8.27348 94 7.49941 94 6.65042" fill="white" data-color-group="0"/></svg>