<svg width="100%" height="100%" viewBox="0 0 91 68" fill="none" xmlns="http://www.w3.org/2000/svg" preserveAspectRatio="none"><g clip-path="url(#clip0_3707_7)"><path d="M91 0H0V68H91V0Z" fill="#0074B3" data-color-group="0"/><path d="M59.8652 53.7326C59.8645 53.5623 59.9145 53.3957 60.0088 53.2537C60.1032 53.1117 60.2377 53.0008 60.3953 52.935C60.5529 52.8692 60.7266 52.8514 60.8943 52.8839C61.0621 52.9164 61.2164 52.9977 61.3378 53.1176C61.4592 53.2375 61.5421 53.3905 61.5762 53.5574C61.6102 53.7242 61.5939 53.8974 61.5291 54.055C61.4644 54.2126 61.3542 54.3475 61.2125 54.4427C61.0708 54.5379 60.904 54.5891 60.7331 54.5898C60.6196 54.5903 60.5071 54.5685 60.4021 54.5257C60.2971 54.4829 60.2015 54.4199 60.1209 54.3403C60.0404 54.2607 59.9763 54.166 59.9324 54.0618C59.8886 53.9575 59.8657 53.8457 59.8652 53.7326ZM61.4569 53.7326C61.4569 53.5871 61.4136 53.4448 61.3324 53.3238C61.2512 53.2028 61.1359 53.1085 61.0009 53.0528C60.866 52.9971 60.7175 52.9825 60.5742 53.0109C60.4309 53.0393 60.2993 53.1094 60.196 53.2123C60.0928 53.3152 60.0224 53.4463 59.9939 53.5891C59.9654 53.7318 59.98 53.8797 60.0359 54.0142C60.0918 54.1486 60.1865 54.2636 60.308 54.3444C60.4294 54.4253 60.5722 54.4684 60.7183 54.4684C60.817 54.4749 60.9159 54.4604 61.0085 54.4257C61.1011 54.391 61.1851 54.337 61.255 54.2673C61.325 54.1977 61.3792 54.1139 61.414 54.0217C61.4488 53.9295 61.4634 53.8309 61.4569 53.7326ZM60.5337 54.2182H60.4081V53.2396H60.8328C61.0913 53.2396 61.1799 53.3316 61.1799 53.5082C61.1799 53.6848 61.047 53.7694 60.8734 53.7804L61.1688 54.2182H61.0248L60.7478 53.7804H60.5337V54.2182ZM60.7109 53.6701C60.8475 53.6701 61.0433 53.6921 61.0433 53.5045C61.0433 53.3169 60.9251 53.3537 60.8069 53.3537H60.5337V53.6701H60.7109Z" fill="white" data-color-group="1"/><path d="M55.8032 54.818C59.3115 52.8975 61.4423 49.8439 62.5391 46.4886C63.6765 43.0082 63.4697 38.8545 62.1698 36.2865C60.2088 37.3015 58.0315 37.8314 55.8217 37.8318C53.6103 37.8336 51.4317 37.2995 49.4736 36.2755C48.1553 38.8509 47.9485 43.0082 49.1044 46.4886C50.2122 49.8439 52.3282 52.8975 55.8402 54.818H55.8032Z" fill="white" data-color-group="1"/><path d="M55.7995 53.2433C58.6873 51.4737 60.231 48.9351 61.2133 46.0691C62.0922 43.5269 62.3211 40.5505 61.3425 38.2291C60.3443 38.5815 59.3141 38.8365 58.2663 38.9906C57.453 39.1206 56.6306 39.1858 55.8069 39.1856C54.9832 39.1861 54.1607 39.1209 53.3474 38.9906C52.2996 38.8369 51.2694 38.5819 50.2713 38.2291C49.3111 40.5505 49.5327 43.5269 50.3968 46.0691C51.3865 48.9351 52.9227 51.4737 55.8143 53.2433H55.7995Z" fill="#0074B3" data-color-group="0"/><path d="M55.8032 52.5406C57.7567 51.3265 59.9724 48.5636 60.855 44.9323C61.3277 43.0082 61.4607 40.8375 60.855 39.1231C60.0219 39.3556 59.1744 39.5338 58.318 39.6566C57.4885 39.7758 56.6523 39.8434 55.8143 39.8589C54.1095 39.8276 52.4156 39.5804 50.7735 39.1231C50.1642 40.8375 50.2934 43.0082 50.7735 44.9323C51.6598 48.5636 53.8792 51.3265 55.829 52.5406H55.8032Z" fill="white" data-color-group="1"/><path d="M53.7204 41.1466C53.3953 41.3186 53.1492 41.6087 53.033 41.9567C52.9168 42.3046 52.9395 42.6838 53.0963 43.0156C53.2402 43.276 53.4416 43.5004 53.6854 43.6718C53.9291 43.8433 54.2088 43.9573 54.5033 44.0052C54.7958 44.0758 55.0934 44.1237 55.3933 44.1487C55.7499 44.1699 56.1043 44.2191 56.4531 44.2959C56.5612 44.3159 56.6605 44.3685 56.7375 44.4467C56.8446 44.6159 56.7375 44.7521 56.5529 44.8146C56.5529 45.1273 56.5085 45.7748 56.5085 45.7748C56.5085 45.7748 58.0596 45.613 57.8011 44.2554C57.7455 44.0838 57.6548 43.9255 57.5347 43.7906C57.4145 43.6557 57.2676 43.5471 57.1031 43.4718C56.335 43.0781 55.4967 43.2179 54.7064 42.9677C54.4812 42.8978 54.2116 42.7911 54.1488 42.5373C54.1119 42.3754 54.1119 42.2135 54.23 42.1473C54.411 42.0406 54.5439 42.2098 54.832 42.2761C55.0031 42.3173 55.1816 42.3173 55.3527 42.2761C55.4191 42.2761 55.5041 42.2393 55.5152 42.1914C55.5262 42.1436 55.3748 42.1105 55.3379 42.0921C55.2581 42.062 55.1768 42.0362 55.0942 42.0148C54.9341 41.9368 54.7788 41.8496 54.6289 41.7536C54.812 41.7243 54.9979 41.7169 55.1828 41.7316C55.3828 41.7537 55.5847 41.7537 55.7847 41.7316C55.8106 41.7316 55.866 41.7021 55.8401 41.6617C55.8143 41.6212 55.722 41.5623 55.674 41.4961C55.5891 41.3405 55.4609 41.2127 55.3047 41.1282C55.0547 41.0179 54.7839 40.9624 54.5105 40.9656C54.2372 40.9688 53.9677 41.0305 53.7204 41.1466Z" fill="#0074B3" data-color-group="0"/><path d="M56.2426 45.9441L56.2796 44.5755C56.1242 44.5185 55.9611 44.485 55.7958 44.4761L55.2603 44.4357V44.5534C55.2603 44.5534 55.0387 44.5828 55.0129 44.6307C54.9981 44.6537 54.9902 44.6805 54.9902 44.7079C54.9902 44.7353 54.9981 44.7621 55.0129 44.7852C55.2195 45.097 55.3603 45.4475 55.4265 45.8153C55.7293 45.8558 55.9324 45.8852 56.2426 45.9441Z" fill="#0074B3" data-color-group="0"/><path d="M54.0195 45.7601C53.9825 46.3892 54.4885 46.7277 55.1532 46.8344C55.5225 46.8969 55.8622 46.9374 56.2352 46.9815C56.3172 46.9856 56.398 47.0017 56.4752 47.0294C56.5028 47.0397 56.5271 47.0571 56.5459 47.0796C56.5646 47.1022 56.5772 47.1293 56.5823 47.1581C56.5895 47.1832 56.5898 47.2096 56.5833 47.2348C56.5768 47.26 56.5637 47.2831 56.5454 47.3016C56.5211 47.3323 56.4874 47.3542 56.4494 47.3641L56.4272 48.1C56.6056 48.0855 56.7785 48.0314 56.9332 47.9418C57.0385 47.8864 57.131 47.8097 57.2048 47.7165C57.2786 47.6234 57.332 47.5159 57.3615 47.4009C57.3953 47.2776 57.3978 47.1478 57.3688 47.0232C57.3398 46.8986 57.2802 46.7832 57.1954 46.6872C57.0508 46.5149 56.8599 46.3873 56.6451 46.3193C56.1827 46.2027 55.7125 46.1191 55.2381 46.0691C55.168 46.0691 55.0535 46.0176 55.0424 45.9146C55.0313 45.8116 55.1717 45.7748 55.1717 45.7748L55.083 45.4952C55.0197 45.3407 54.9482 45.1897 54.8688 45.0427C54.4922 45.1494 54.0453 45.3443 54.0195 45.7601Z" fill="#0074B3" data-color-group="0"/><path d="M56.2019 47.2207L56.176 48.4605L55.888 48.306L55.5999 48.1699L55.5334 47.1471L56.2019 47.2207Z" fill="#0074B3" data-color-group="0"/><path d="M54.6288 47.905C54.5844 48.0035 54.5617 48.1104 54.5623 48.2183C54.5628 48.3263 54.5867 48.433 54.6322 48.531C54.6777 48.629 54.7439 48.7161 54.8261 48.7865C54.9083 48.8569 55.0048 48.9088 55.1089 48.9388C55.3046 49.0271 55.5816 49.1044 55.7921 49.1816C56.0293 49.2755 56.2398 49.4258 56.4051 49.6194C56.4091 49.6418 56.4071 49.6647 56.3994 49.6861C56.3916 49.7074 56.3783 49.7263 56.3608 49.7408L56.3387 50.2706C56.4735 50.238 56.5995 50.1765 56.7079 50.0903C56.7943 50.0263 56.8637 49.9422 56.91 49.8454C56.9564 49.7486 56.9783 49.642 56.9738 49.5348C56.9738 49.2515 56.8372 49.0749 56.4236 48.8358C56.0783 48.6524 55.7233 48.4878 55.36 48.3428C55.325 48.3295 55.2961 48.3037 55.279 48.2704C55.262 48.2371 55.2579 48.1986 55.2677 48.1625C55.2746 48.1444 55.2854 48.128 55.2995 48.1146C55.3135 48.1013 55.3305 48.0912 55.349 48.0853L55.301 47.4635C55.2061 47.4919 55.1145 47.5302 55.0277 47.5776C54.9206 47.6364 54.6953 47.7468 54.6288 47.905Z" fill="#0074B3" data-color-group="0"/><path d="M56.1614 49.7224C56.1614 49.6783 56.1614 49.6746 56.1281 49.6415C56.0575 49.5756 55.9809 49.5165 55.8992 49.4649C55.804 49.4179 55.7052 49.3785 55.6038 49.3472C55.6038 49.3472 55.6333 50.69 55.6592 51.4001C55.6592 51.562 55.7293 51.6171 55.8881 51.6135C56.0469 51.6098 56.1097 51.5325 56.1134 51.4369C56.1318 51.2088 56.1503 50.2412 56.1614 49.7224Z" fill="#0074B3" data-color-group="0"/><path d="M56.3681 40.8375C56.4346 40.889 56.4383 40.9001 56.4568 41.0031C56.5048 41.2238 56.4198 41.5439 56.4568 41.6984C56.4608 41.7083 56.4671 41.7171 56.4751 41.7242C56.4832 41.7313 56.4927 41.7365 56.5031 41.7393C56.5134 41.7422 56.5243 41.7426 56.5348 41.7406C56.5453 41.7386 56.5553 41.7343 56.5639 41.7278C56.8317 41.5198 57.1103 41.3257 57.3984 41.1466C57.5425 41.084 57.9635 41.2937 57.8674 41.5954C57.8231 41.7352 57.7899 41.7315 57.6939 41.8198C57.4982 41.9964 57.236 42.1877 56.9848 42.4195C56.8203 42.5422 56.6736 42.687 56.5491 42.85C56.5168 42.9011 56.4872 42.9539 56.4605 43.0082C56.0284 42.9199 55.5852 42.9162 55.2455 42.8463V42.4784C55.2455 42.4784 55.6813 42.4784 55.7219 42.2135C55.7224 42.1893 55.7177 42.1653 55.7082 42.1431C55.6986 42.1209 55.6844 42.101 55.6665 42.0847C55.5916 42.0405 55.5108 42.007 55.4264 41.9854C55.7637 42.0469 56.0915 42.152 56.4014 42.2981C56.4235 42.2613 56.3681 42.1399 56.3423 42.1105C56.2839 42.0494 56.2077 42.0082 56.1244 41.9927C55.9213 41.9412 55.4228 41.8824 55.4228 41.8824H55.8437C55.9355 41.8752 56.0235 41.8434 56.0986 41.7904C56.1207 41.7389 56.0986 41.6579 56.0173 41.5807C55.9608 41.5329 55.9078 41.4813 55.8585 41.4262C55.8007 41.3253 55.7313 41.2314 55.6517 41.1466C55.5218 41.0362 55.3729 40.9502 55.2123 40.8927C55.1979 40.783 55.2067 40.6714 55.2381 40.5653C55.2824 40.488 55.4597 40.4806 55.5151 40.5064C55.7784 40.6644 56.0669 40.7764 56.3681 40.8375Z" fill="#0074B3" data-color-group="0"/><path d="M55.2419 50.164C55.1578 50.2391 55.0938 50.334 55.0558 50.44C55.0177 50.546 55.0068 50.6597 55.024 50.771C55.0368 50.9256 55.0875 51.0747 55.1718 51.2051C55.2271 51.3081 55.3195 51.3523 55.349 51.2051C55.3712 51.1168 55.2899 51.0359 55.3195 50.8372C55.349 50.6386 55.4413 50.6128 55.4413 50.6128L55.4155 50.0278C55.3522 50.0659 55.2939 50.1116 55.2419 50.164Z" fill="#0074B3" data-color-group="0"/><path d="M41.6077 53.7142C41.6106 53.5475 41.6629 53.3854 41.7579 53.2482C41.853 53.111 41.9867 53.0048 42.1421 52.943C42.2975 52.8812 42.4678 52.8666 42.6316 52.9008C42.7954 52.9351 42.9453 53.0169 43.0627 53.1358C43.18 53.2547 43.2594 53.4055 43.291 53.5692C43.3226 53.7329 43.3049 53.9023 43.2402 54.0561C43.1755 54.2098 43.0667 54.3411 42.9273 54.4335C42.788 54.5258 42.6244 54.5751 42.457 54.5751C42.2301 54.5722 42.0135 54.4801 41.8545 54.3189C41.6954 54.1576 41.6067 53.9403 41.6077 53.7142ZM43.1661 53.7142C43.161 53.5748 43.1148 53.44 43.0333 53.3266C42.9518 53.2132 42.8386 53.1262 42.7078 53.0765C42.577 53.0268 42.4344 53.0166 42.2978 53.0471C42.1612 53.0777 42.0366 53.1476 41.9397 53.2482C41.8427 53.3489 41.7776 53.4757 41.7526 53.6129C41.7275 53.7501 41.7436 53.8917 41.7988 54.0199C41.854 54.148 41.9458 54.2572 42.0629 54.3337C42.18 54.4102 42.317 54.4507 42.457 54.45C42.5533 54.4523 42.649 54.4345 42.738 54.398C42.827 54.3614 42.9074 54.3068 42.9741 54.2376C43.0407 54.1684 43.0923 54.0861 43.1253 53.996C43.1584 53.9059 43.1722 53.8099 43.1661 53.7142ZM42.2613 54.1999H42.1395V53.2175H42.5567C42.8079 53.2175 42.8965 53.3132 42.8965 53.4898C42.8965 53.6664 42.7635 53.751 42.5937 53.7657L42.8817 54.1999H42.7414L42.4718 53.7657H42.2613V54.1999ZM42.4349 53.6517C42.5678 53.6517 42.7562 53.6737 42.7562 53.4898C42.7562 53.3058 42.6454 53.3316 42.5272 53.3316H42.2613V53.6517H42.4349Z" fill="white" data-color-group="1"/><path d="M40.6328 54.5604V49.5054H45.6145V41.4262H40.6328V36.3748H32.7004V41.4262H27.7188V49.5054H32.7004V54.5604H40.6328Z" fill="white" data-color-group="1"/><path d="M32.0764 43.7219L35.3742 44.042C35.4889 44.0618 35.5973 44.1083 35.6905 44.1777C35.7837 44.2472 35.8592 44.3376 35.9107 44.4416C35.9621 44.5456 35.9882 44.6603 35.9868 44.7763C35.9853 44.8923 35.9563 45.0062 35.9023 45.1089L33.6422 49.4134C33.0515 48.9413 32.5754 48.3424 32.2493 47.6614C31.9232 46.9805 31.7556 46.235 31.7588 45.4805C31.7581 44.8804 31.8644 44.285 32.0727 43.7219H32.0764Z" fill="#0074B3" data-color-group="0"/><path d="M36.6925 41.1208C36.5762 41.1253 36.4633 41.1611 36.3657 41.2242C36.2681 41.2874 36.1894 41.3756 36.138 41.4796C36.0865 41.5836 36.0643 41.6995 36.0735 41.8151C36.0827 41.9307 36.123 42.0416 36.1903 42.1362C36.2831 42.2233 36.3552 42.3299 36.4012 42.4483C36.4472 42.5667 36.466 42.6939 36.4562 42.8205C36.4562 43.0634 36.2272 43.3577 35.7176 43.3687H32.2241C32.6121 42.514 33.2385 41.7883 34.0288 41.2782C34.819 40.7681 35.7398 40.4951 36.6814 40.4917" fill="#0074B3" data-color-group="0"/><path d="M41.2864 43.7219L37.985 44.042C37.8703 44.0618 37.7619 44.1083 37.6686 44.1777C37.5754 44.2472 37.5 44.3376 37.4485 44.4416C37.397 44.5456 37.3709 44.6603 37.3724 44.7763C37.3738 44.8923 37.4028 45.0062 37.4569 45.1089L39.7206 49.4134C40.5445 48.7465 41.1384 47.8396 41.4191 46.8197C41.6999 45.7998 41.6535 44.7179 41.2864 43.7256V43.7219Z" fill="#0074B3" data-color-group="0"/><path d="M36.6665 41.1208C36.7831 41.1247 36.8965 41.16 36.9946 41.2228C37.0927 41.2857 37.1719 41.3739 37.2238 41.478C37.2757 41.5821 37.2983 41.6983 37.2892 41.8142C37.2802 41.9301 37.2398 42.0414 37.1724 42.1362C37.0796 42.2233 37.0075 42.3299 36.9615 42.4483C36.9155 42.5667 36.8967 42.6939 36.9065 42.8205C36.9065 43.0634 37.1392 43.3577 37.6451 43.3687H41.146C40.758 42.514 40.1316 41.7883 39.3413 41.2782C38.5511 40.7681 37.6303 40.4951 36.6887 40.4917" fill="#0074B3" data-color-group="0"/><path d="M36.6815 50.473C37.6442 50.472 38.585 50.1865 39.3847 49.6525L36.988 46.0139C36.9584 45.9585 36.9143 45.9122 36.8603 45.8798C36.8063 45.8475 36.7445 45.8304 36.6815 45.8304C36.6185 45.8304 36.5567 45.8475 36.5027 45.8798C36.4487 45.9122 36.4046 45.9585 36.375 46.0139L33.9746 49.6672C34.7756 50.2013 35.7176 50.4868 36.6815 50.4877" fill="#0074B3" data-color-group="0"/><path d="M55.2381 41.3416C55.187 41.3891 55.1249 41.4233 55.0572 41.4409C54.9169 41.4667 54.9353 41.3416 54.8393 41.2717C54.7433 41.2018 54.7248 41.2717 54.6694 41.187C54.9058 41.1657 55.1424 41.224 55.3415 41.3526C55.3086 41.3402 55.273 41.3364 55.2381 41.3416Z" fill="white" data-color-group="1"/><path d="M32.5637 44.4614L35.0638 44.6895C35.2448 44.6895 35.2595 44.7852 35.2152 44.8919L33.4648 48.2803C32.804 47.4961 32.443 46.5044 32.4456 45.4805C32.4449 45.1374 32.4845 44.7954 32.5637 44.4614Z" fill="white" data-color-group="1"/><path d="M35.5034 41.3526C35.4072 41.5526 35.3738 41.7767 35.4074 41.9959C35.441 42.2151 35.5401 42.4191 35.6917 42.5814C35.7014 42.5877 35.7091 42.5966 35.7137 42.6072C35.7184 42.6178 35.7198 42.6295 35.7178 42.6408C35.7159 42.6522 35.7106 42.6627 35.7027 42.6711C35.6947 42.6795 35.6845 42.6854 35.6732 42.6881H33.4575C33.9927 42.052 34.7043 41.5875 35.5034 41.3526Z" fill="white" data-color-group="1"/><path d="M40.7952 44.4614L38.2952 44.6895C38.1179 44.6895 38.1031 44.7852 38.1438 44.8919L39.8942 48.2803C40.5577 47.4974 40.9203 46.5051 40.9171 45.4805C40.9166 45.1372 40.8757 44.7952 40.7952 44.4614Z" fill="white" data-color-group="1"/><path d="M37.8595 41.3526C37.9551 41.5529 37.988 41.7773 37.9537 41.9965C37.9195 42.2157 37.8197 42.4195 37.6675 42.5814C37.6583 42.587 37.6507 42.5948 37.6455 42.6042C37.6402 42.6135 37.6375 42.624 37.6375 42.6348C37.6375 42.6455 37.6402 42.656 37.6455 42.6653C37.6507 42.6747 37.6583 42.6825 37.6675 42.6881H39.8832C39.3552 42.0543 38.6512 41.5898 37.8595 41.3526Z" fill="white" data-color-group="1"/><path d="M36.6112 46.8381C36.6186 46.8267 36.6287 46.8173 36.6406 46.8108C36.6525 46.8043 36.6659 46.8009 36.6795 46.8009C36.6931 46.8009 36.7065 46.8043 36.7184 46.8108C36.7304 46.8173 36.7405 46.8267 36.7478 46.8381L38.4022 49.4134C37.8605 49.6559 37.2734 49.7814 36.6795 49.7814C36.0856 49.7814 35.4985 49.6559 34.9568 49.4134L36.6112 46.8381C36.6592 46.7866 36.7109 46.7866 36.7478 46.8381H36.6112Z" fill="white" data-color-group="1"/><path d="M16.9281 14.0944C17.4706 13.9935 18.0199 13.9332 18.5714 13.9142C20.1926 13.9142 21.2709 15.1099 21.2709 16.7066C21.2709 18.914 19.2694 19.5983 17.3675 19.5983H16.9281V14.0944ZM26.3339 26.3972V26.0293C24.5133 25.8895 23.7932 24.9256 22.8145 23.557L20.2295 19.9662C21.9726 19.5983 23.5125 18.5351 23.5125 16.6183C23.5125 15.463 22.8145 13.1894 18.9112 13.1894H13.165V13.5573C15.0484 13.5573 15.0484 14.054 15.0484 15.7279V23.866C15.0484 25.54 15.0484 26.0367 13.165 26.0367V26.4046H18.8115V26.0367C16.9281 26.0367 16.9281 25.54 16.9281 23.866V20.2348H18.2871L22.7924 26.3972H26.3339Z" fill="white" data-color-group="1"/><path d="M55.0608 19.0465C56.1686 17.8066 56.9626 17.1701 58.1037 17.1701C59.7249 17.1701 60.3637 18.6859 60.3637 20.1833V24.6681C60.3637 25.8417 60.8254 25.9852 61.7449 26.0036V26.3715H57.3651V26.0036C58.2846 25.9852 58.7463 25.8417 58.7463 24.6681V20.5402C58.7463 18.5645 57.9227 18.3695 57.3245 18.3695C56.405 18.3695 55.7218 18.9655 55.0608 19.6425V24.6681C55.0608 25.8417 55.5224 25.9852 56.4419 26.0036V26.3715H52.0695V26.0036C52.9928 25.9852 53.4507 25.8417 53.4507 24.6681V19.8043C53.4507 18.4468 53.0297 18.4468 52.7527 18.4468C52.5176 18.46 52.2864 18.5135 52.0695 18.605L51.9292 18.2665L54.6324 17.1628H55.0718L55.0608 19.0465Z" fill="white" data-color-group="1"/><path d="M69.7733 22.972C69.4336 24.8116 68.0709 26.6511 66.0509 26.6511C63.7909 26.6511 62.2288 24.6166 62.2288 21.8867C62.2288 19.0171 64.2709 17.1812 66.5125 17.1812C67.6942 17.1812 69.5111 17.9612 69.5111 19.3371C69.5137 19.4502 69.4922 19.5625 69.4482 19.6667C69.4041 19.7709 69.3384 19.8646 69.2554 19.9418C69.1724 20.0189 69.074 20.0777 68.9666 20.1142C68.8592 20.1508 68.7452 20.1643 68.6322 20.1539C67.8124 20.1539 67.5945 19.7345 67.5244 19.0171C67.4616 18.2371 66.9815 17.8582 66.2023 17.8582C64.4814 17.8582 63.8019 19.5947 63.8019 21.07C63.8019 22.7844 64.6808 25.139 66.723 25.139C68.1632 25.139 69.0458 24.0794 69.5074 22.8433L69.7733 22.972Z" fill="white" data-color-group="1"/><path d="M39.9866 25.0912C36.8735 25.0912 36.4304 24.933 36.4304 24.4547C36.4304 23.9764 36.8551 23.5717 37.169 23.3105C37.5843 23.4383 38.0158 23.5064 38.4504 23.5129C40.9025 23.5129 42.0473 21.9713 42.0473 20.474C42.0488 19.841 41.8819 19.219 41.5635 18.6712H42.9926L43.5761 17.9097H40.9099C40.2599 17.4015 39.4495 17.1406 38.624 17.1738C35.9909 17.1738 34.9902 19.0943 34.9902 20.4335C34.9775 21.0011 35.1324 21.56 35.4357 22.0407C35.739 22.5214 36.1773 22.9028 36.6963 23.1376C36.0943 23.6563 35.1083 24.3995 35.1083 25.2567C35.1083 25.7755 35.6697 26.0772 36.0943 26.2574L35.5921 26.7762C35.1711 27.2177 34.2664 28.1779 34.2664 28.8181C34.2664 30.1793 36.8514 30.7201 38.2214 30.7201C41.497 30.7201 43.2216 28.5789 43.2216 27.3575C43.2068 25.8711 42.3168 25.1133 39.9866 25.0912ZM38.3581 17.6595C39.8869 17.6595 40.3485 19.4622 40.3485 20.6837C40.3485 21.1252 40.3485 23.0419 38.6609 23.0419C37.1136 23.0419 36.6926 21.2429 36.6926 20.003C36.6926 18.0274 37.7968 17.6595 38.3581 17.6595ZM39.0043 29.5465C37.0951 29.5465 35.7066 28.9431 35.7066 28.1264C35.7066 27.4642 36.2088 26.8645 36.5707 26.4046C37.7024 26.5615 38.8441 26.6353 39.9866 26.6253C40.9283 26.6253 42.4978 26.6253 42.4978 27.604C42.4978 28.4759 41.4933 29.5355 39.0043 29.5355V29.5465Z" fill="white" data-color-group="1"/><path d="M30.7655 25.0433C28.5867 25.0433 27.5453 22.8101 27.5453 20.8198C27.5453 18.9803 28.5054 17.8765 29.665 17.8765C31.083 17.8765 31.7034 18.9803 31.7034 20.2091H28.4057L28.8488 20.8087H33.7456C33.7456 18.6565 32.3829 17.1591 30.326 17.1591C27.4862 17.1702 26.1863 19.499 26.1863 22.0743C26.1863 24.8042 27.9072 26.6548 30.086 26.6548C32.106 26.6548 33.4096 24.9624 33.7456 23.1302L33.4428 22.9316C32.9849 24.2082 32.2057 25.0433 30.7655 25.0433Z" fill="white" data-color-group="1"/><path d="M48.3287 25.0433C46.1499 25.0433 45.1085 22.8101 45.1085 20.8198C45.1085 18.9803 46.0686 17.8765 47.2282 17.8765C48.6463 17.8765 49.2667 18.9803 49.2667 20.2091H45.9689L46.4158 20.8087H51.3088C51.3088 18.6565 49.9499 17.1591 47.8892 17.1591C45.0531 17.1702 43.7495 19.499 43.7495 22.0743C43.7495 24.8042 45.4667 26.6548 47.6492 26.6548C49.6692 26.6548 50.9728 24.9624 51.3088 23.1302L51.0097 22.9316C50.5481 24.2082 49.7689 25.0433 48.3287 25.0433Z" fill="white" data-color-group="1"/><path d="M74.8548 25.0396C72.6723 25.0396 71.6346 22.8064 71.6346 20.8124C71.6346 18.9729 72.5948 17.8691 73.7543 17.8691C75.1761 17.8691 75.7928 18.9729 75.7928 20.2017H72.4951L72.9382 20.7977H77.8313C77.8313 18.6491 76.476 17.1517 74.4117 17.1517C71.5755 17.1517 70.2756 19.4622 70.2756 22.0338C70.2756 24.7674 71.9965 26.6179 74.1753 26.6179C76.1953 26.6179 77.4989 24.9256 77.8313 23.0897L77.5321 22.8911C77.0742 24.2045 76.295 25.0396 74.8548 25.0396Z" fill="white" data-color-group="1"/></g><defs><clipPath id="clip0_3707_7"><rect width="91" height="68" fill="white" data-color-group="1"/></clipPath></defs></svg>