<svg width="100%" height="100%" viewBox="0 0 238 89" fill="none" xmlns="http://www.w3.org/2000/svg" preserveAspectRatio="none"><path d="M11.24 9.82L10.86 14H0.62L0.68 13.12L1.3 13C1.78 12.96 1.98 12.86 1.98 12.62V2.88C1.98 2.7 1.88 2.56 1.16 2.5L0.68 2.38L0.62 1.5H6.68L6.62 2.38L6.02 2.5C5.44 2.54 5.34 2.68 5.34 2.88V13H5.38C8.06 13 8.38 12.76 9.04 10.86L9.44 9.82H11.24ZM21.2397 11.14C20.6597 13.16 19.1397 14.3 16.8597 14.3C14.4397 14.3 12.4597 12.58 12.4597 9.74C12.4597 6.84 14.5397 4.54 17.5797 4.54C19.5197 4.54 21.1997 5.64 21.1997 7.74C21.1997 8.06 21.1597 8.5 21.0797 8.86L15.6597 8.78V9C15.6997 11.1 16.6197 12.34 18.1797 12.34C19.1597 12.34 20.0797 11.76 20.7597 10.88L21.2397 11.14ZM18.3397 8C18.4197 6.42 17.9797 5.54 17.2797 5.54C16.3597 5.54 15.7197 6.36 15.6397 8.08L18.3397 8ZM29.6178 12.68C28.8578 13.6 27.6178 14.3 26.1178 14.3C24.3178 14.3 23.3578 13.24 23.3978 11.24L23.4578 6.54L21.9578 6.36L22.0178 5.56L23.5578 4.12L25.0978 2.66L26.3378 2.78L26.3178 5.04H29.5578L29.4178 6.46H26.2978L26.2578 10.3C26.2578 11.96 26.9578 12.38 27.8578 12.38C28.3578 12.38 29.0978 12.24 29.5578 12.02L29.6178 12.68ZM46.0616 13.2L46.0016 13.86L41.8616 14.3V12.76H41.7616C40.5816 13.68 39.5216 14.3 38.4016 14.3C37.7816 14.3 37.1416 14.02 36.6416 13.52C36.1416 13.02 35.8816 12.24 35.8816 11.16V6.12C35.8816 5.94 35.7816 5.84 35.0616 5.74L34.7416 5.7L34.6816 4.84H38.9816L38.9216 9.8C38.9016 11.78 39.5216 12.16 40.5616 12.16C41.0416 12.16 41.6616 11.94 41.8616 11.76V6.1C41.8616 5.9 41.7416 5.8 41.1016 5.74L40.7216 5.7L40.6416 4.84H44.9016V12C44.9016 12.48 45.0216 12.88 45.3616 12.98L46.0616 13.2ZM54.8984 11.28C54.8984 13.02 53.3584 14.3 50.5984 14.3C49.4584 14.3 48.0384 14.12 47.1384 13.76L47.0584 11.1H48.7584L49.2784 12.96C49.6384 13.08 50.1584 13.28 50.6984 13.28C51.8184 13.28 52.4184 12.74 52.4184 12C52.4184 11.16 51.2584 10.88 50.1184 10.48C48.5184 9.92 47.1784 9.3 47.1784 7.46C47.1784 5.7 48.6584 4.54 51.0584 4.54C51.8984 4.54 52.7984 4.68 53.3784 4.86L54.5184 4.66L54.5984 7.74H53.0584L52.3784 5.9C52.0584 5.74 51.6584 5.58 51.0984 5.58C50.1784 5.58 49.6384 6.04 49.6384 6.68C49.6384 7.58 50.3984 7.78 51.7584 8.24C53.3784 8.8 54.8984 9.42 54.8984 11.28ZM69.4898 1.92C69.4898 2.82 68.8098 3.34 68.0898 3.34C67.1698 3.34 66.6098 2.78 66.3098 1.34L66.2898 1.26L65.7098 1.22C65.1698 1.68 64.8698 2.52 64.8698 4.3V5.04H67.6098L67.4698 6.46H64.8698V12.74C64.8698 12.94 64.9898 13.06 65.6298 13.1L66.2098 13.14L66.2698 14H60.7298L60.7898 13.14L61.1898 13.1C61.6698 13.06 61.8698 12.96 61.8698 12.72V6.54L60.3098 6.36L60.4298 5.04H61.7698L61.8098 4.56C62.0298 2 64.1698 0.0599995 66.7898 0.0599995C68.2298 0.0599995 69.4898 0.799999 69.4898 1.92ZM78.4573 9.36C78.4573 12.12 76.2573 14.3 73.1573 14.3C70.0373 14.3 68.2973 12.1 68.2973 9.52C68.2973 6.76 70.5373 4.54 73.6173 4.54C76.7373 4.54 78.4573 6.78 78.4573 9.36ZM75.0973 9.82C75.0973 8 74.8173 6.56 74.2773 6.02C74.0173 5.72 73.6973 5.58 73.3373 5.58C72.2973 5.58 71.6573 6.92 71.6573 9.06C71.6573 10.96 71.7573 12.28 72.4173 12.94C72.6573 13.18 73.0973 13.3 73.3973 13.3C74.4573 13.3 75.0973 11.84 75.0973 9.82ZM88.7589 11.14C88.1789 13.16 86.6589 14.3 84.3789 14.3C81.9589 14.3 79.9589 12.58 79.9589 9.74C79.9589 6.78 82.0989 4.54 85.2189 4.54C87.3389 4.54 88.5789 5.38 88.5789 6.7C88.5789 7.66 87.9389 8.08 87.1189 8.08C85.9989 8.08 85.4589 6.82 85.7189 5.72V5.7C85.6189 5.64 85.3789 5.58 85.1789 5.58C84.0989 5.58 83.1989 6.58 83.1989 8.78C83.1989 10.92 84.1389 12.34 85.6989 12.34C86.6789 12.34 87.5989 11.76 88.2789 10.88L88.7589 11.14ZM100.861 13.2L100.801 13.86L96.6608 14.3V12.76H96.5608C95.3808 13.68 94.3208 14.3 93.2008 14.3C92.5808 14.3 91.9408 14.02 91.4408 13.52C90.9408 13.02 90.6808 12.24 90.6808 11.16V6.12C90.6808 5.94 90.5808 5.84 89.8608 5.74L89.5408 5.7L89.4808 4.84H93.7808L93.7208 9.8C93.7008 11.78 94.3208 12.16 95.3608 12.16C95.8408 12.16 96.4608 11.94 96.6608 11.76V6.1C96.6608 5.9 96.5408 5.8 95.9008 5.74L95.5208 5.7L95.4408 4.84H99.7008V12C99.7008 12.48 99.8208 12.88 100.161 12.98L100.861 13.2ZM109.698 11.28C109.698 13.02 108.158 14.3 105.398 14.3C104.258 14.3 102.838 14.12 101.938 13.76L101.858 11.1H103.558L104.078 12.96C104.438 13.08 104.958 13.28 105.498 13.28C106.618 13.28 107.218 12.74 107.218 12C107.218 11.16 106.058 10.88 104.918 10.48C103.318 9.92 101.978 9.3 101.978 7.46C101.978 5.7 103.458 4.54 105.858 4.54C106.698 4.54 107.598 4.68 108.178 4.86L109.318 4.66L109.398 7.74H107.858L107.178 5.9C106.858 5.74 106.458 5.58 105.898 5.58C104.978 5.58 104.438 6.04 104.438 6.68C104.438 7.58 105.198 7.78 106.558 8.24C108.178 8.8 109.698 9.42 109.698 11.28ZM125.969 9.36C125.969 12.12 123.769 14.3 120.669 14.3C117.549 14.3 115.809 12.1 115.809 9.52C115.809 6.76 118.049 4.54 121.129 4.54C124.249 4.54 125.969 6.78 125.969 9.36ZM122.609 9.82C122.609 8 122.329 6.56 121.789 6.02C121.529 5.72 121.209 5.58 120.849 5.58C119.809 5.58 119.169 6.92 119.169 9.06C119.169 10.96 119.269 12.28 119.929 12.94C120.169 13.18 120.609 13.3 120.909 13.3C121.969 13.3 122.609 11.84 122.609 9.82ZM138.591 14H133.351L133.411 13.14L133.671 13.1C134.251 13.06 134.351 12.92 134.351 12.72V9.04C134.351 7.04 133.751 6.68 132.711 6.68C132.231 6.68 131.611 6.9 131.411 7.08V12.74C131.411 12.94 131.531 13.04 132.171 13.1L132.551 13.14L132.611 14H127.231L127.291 13.14L127.691 13.1C128.171 13.06 128.371 12.96 128.371 12.72V8.16C128.371 6.9 128.191 6.72 127.511 6.52L127.211 6.42L127.231 5.72L131.411 4.54V6.08H131.511C132.691 5.16 133.751 4.54 134.871 4.54C135.491 4.54 136.131 4.82 136.631 5.32C137.131 5.82 137.391 6.6 137.391 7.68V12.72C137.391 12.9 137.491 13 138.211 13.1L138.531 13.14L138.591 14ZM151.174 12.68C150.414 13.6 149.174 14.3 147.674 14.3C145.874 14.3 144.914 13.24 144.954 11.24L145.014 6.54L143.514 6.36L143.574 5.56L145.114 4.12L146.654 2.66L147.894 2.78L147.874 5.04H151.114L150.974 6.46H147.854L147.814 10.3C147.814 11.96 148.514 12.38 149.414 12.38C149.914 12.38 150.654 12.24 151.114 12.02L151.174 12.68ZM163.107 14H157.867L157.927 13.14L158.187 13.1C158.767 13.06 158.867 12.92 158.867 12.72V9.04C158.867 7.04 158.267 6.68 157.227 6.68C156.747 6.68 156.127 6.9 155.927 7.08V12.74C155.927 12.94 156.047 13.04 156.687 13.1L157.067 13.14L157.127 14H151.747L151.807 13.14L152.207 13.1C152.687 13.06 152.887 12.96 152.887 12.72V3.38C152.887 2.9 152.707 2.66 152.427 2.48L151.687 2.08L151.747 1.42L155.927 0.0599995V6.08H156.027C157.207 5.16 158.267 4.54 159.387 4.54C160.007 4.54 160.647 4.82 161.147 5.32C161.647 5.82 161.907 6.6 161.907 7.68V12.72C161.907 12.9 162.007 13 162.727 13.1L163.047 13.14L163.107 14ZM172.862 11.14C172.282 13.16 170.762 14.3 168.482 14.3C166.062 14.3 164.082 12.58 164.082 9.74C164.082 6.84 166.162 4.54 169.202 4.54C171.142 4.54 172.822 5.64 172.822 7.74C172.822 8.06 172.782 8.5 172.702 8.86L167.282 8.78V9C167.322 11.1 168.242 12.34 169.802 12.34C170.782 12.34 171.702 11.76 172.382 10.88L172.862 11.14ZM169.962 8C170.042 6.42 169.602 5.54 168.902 5.54C167.982 5.54 167.342 6.36 167.262 8.08L169.962 8ZM189.93 14H184.69L184.75 13.14L185.01 13.1C185.59 13.06 185.69 12.92 185.69 12.72V9.04C185.69 7.04 185.09 6.68 184.05 6.68C183.57 6.68 182.95 6.9 182.75 7.08V12.74C182.75 12.94 182.87 13.04 183.51 13.1L183.89 13.14L183.95 14H178.57L178.63 13.14L179.03 13.1C179.51 13.06 179.71 12.96 179.71 12.72V3.38C179.71 2.9 179.53 2.66 179.25 2.48L178.51 2.08L178.57 1.42L182.75 0.0599995V6.08H182.85C184.03 5.16 185.09 4.54 186.21 4.54C186.83 4.54 187.47 4.82 187.97 5.32C188.47 5.82 188.73 6.6 188.73 7.68V12.72C188.73 12.9 188.83 13 189.55 13.1L189.87 13.14L189.93 14ZM199.685 11.14C199.105 13.16 197.585 14.3 195.305 14.3C192.885 14.3 190.905 12.58 190.905 9.74C190.905 6.84 192.985 4.54 196.025 4.54C197.965 4.54 199.645 5.64 199.645 7.74C199.645 8.06 199.605 8.5 199.525 8.86L194.105 8.78V9C194.145 11.1 195.065 12.34 196.625 12.34C197.605 12.34 198.525 11.76 199.205 10.88L199.685 11.14ZM196.785 8C196.865 6.42 196.425 5.54 195.725 5.54C194.805 5.54 194.165 6.36 194.085 8.08L196.785 8ZM211.023 12.56C210.403 13.46 209.243 14.36 208.303 14.36C207.503 14.36 206.523 13.88 206.463 12.5H206.363C205.543 13.56 204.763 14.3 203.603 14.3C202.263 14.3 201.083 13.52 201.083 11.94C201.083 10.28 202.843 9.28 206.423 8.32V8.18C206.463 6.96 205.763 5.98 204.403 5.98C203.723 5.98 203.123 6.2 203.123 6.28C203.123 6.36 203.683 6.74 203.683 7.48C203.683 7.96 203.163 8.6 202.383 8.6C201.583 8.6 201.003 8.14 201.003 7.48C201.003 6.12 203.443 4.56 206.063 4.56C208.023 4.56 209.563 5.48 209.443 8.34L209.303 11.54C209.263 12.28 209.383 12.48 209.823 12.48C210.023 12.48 210.363 12.26 210.723 11.96L211.023 12.56ZM206.323 11.62L206.383 9.12C204.283 9.76 203.843 10.44 203.843 11.22C203.843 11.98 204.443 12.3 205.103 12.3C205.623 12.3 206.143 11.88 206.323 11.62ZM216.828 14H211.608L211.668 13.14L212.028 13.1C212.508 13.06 212.708 12.96 212.708 12.72V3.38C212.708 2.9 212.568 2.66 212.248 2.48L211.548 2.08L211.608 1.42L215.748 0.0599995V12.74C215.748 12.94 215.868 13.04 216.508 13.1L216.768 13.14L216.828 14ZM225.08 12.68C224.32 13.6 223.08 14.3 221.58 14.3C219.78 14.3 218.82 13.24 218.86 11.24L218.92 6.54L217.42 6.36L217.48 5.56L219.02 4.12L220.56 2.66L221.8 2.78L221.78 5.04H225.02L224.88 6.46H221.76L221.72 10.3C221.72 11.96 222.42 12.38 223.32 12.38C223.82 12.38 224.56 12.24 225.02 12.02L225.08 12.68ZM237.013 14H231.773L231.833 13.14L232.093 13.1C232.673 13.06 232.773 12.92 232.773 12.72V9.04C232.773 7.04 232.173 6.68 231.133 6.68C230.653 6.68 230.033 6.9 229.833 7.08V12.74C229.833 12.94 229.953 13.04 230.592 13.1L230.973 13.14L231.033 14H225.653L225.713 13.14L226.113 13.1C226.593 13.06 226.793 12.96 226.793 12.72V3.38C226.793 2.9 226.613 2.66 226.333 2.48L225.593 2.08L225.653 1.42L229.833 0.0599995V6.08H229.933C231.113 5.16 232.173 4.54 233.293 4.54C233.913 4.54 234.553 4.82 235.053 5.32C235.553 5.82 235.813 6.6 235.813 7.68V12.72C235.813 12.9 235.913 13 236.633 13.1L236.953 13.14L237.013 14ZM10.88 32.36C10.88 35.12 8.68 37.3 5.58 37.3C2.46 37.3 0.72 35.1 0.72 32.52C0.72 29.76 2.96 27.54 6.04 27.54C9.16 27.54 10.88 29.78 10.88 32.36ZM7.52 32.82C7.52 31 7.24 29.56 6.7 29.02C6.44 28.72 6.12 28.58 5.76 28.58C4.72 28.58 4.08 29.92 4.08 32.06C4.08 33.96 4.18 35.28 4.84 35.94C5.08 36.18 5.52 36.3 5.82 36.3C6.88 36.3 7.52 34.84 7.52 32.82ZM20.9016 24.92C20.9016 25.82 20.2216 26.34 19.5016 26.34C18.5816 26.34 18.0216 25.78 17.7216 24.34L17.7016 24.26L17.1216 24.22C16.5816 24.68 16.2816 25.52 16.2816 27.3V28.04H19.0216L18.8816 29.46H16.2816V35.74C16.2816 35.94 16.4016 36.06 17.0416 36.1L17.6216 36.14L17.6816 37H12.1416L12.2016 36.14L12.6016 36.1C13.0816 36.06 13.2816 35.96 13.2816 35.72V29.54L11.7216 29.36L11.8416 28.04H13.1816L13.2216 27.56C13.4416 25 15.5816 23.06 18.2016 23.06C19.6416 23.06 20.9016 23.8 20.9016 24.92ZM34.1798 27.84L34.1198 28.7L33.4598 28.8C33.0198 28.86 32.7798 29.3 32.6198 29.72L30.1598 36.1L28.8798 39.76C28.2598 41.54 27.3798 42.24 26.1798 42.24C25.2998 42.24 24.4798 41.66 24.4798 40.84C24.4798 40.18 24.9198 39.52 25.7398 39.52C26.4598 39.52 26.9598 40.06 27.1198 40.54C27.4598 40.42 27.7398 40.04 28.0598 38.96L28.2798 38.22V38.02L24.7198 29.58C24.5798 29.24 24.3398 29.08 23.9598 28.92L23.4398 28.7L23.3798 27.84H28.8998L28.8398 28.7L28.1398 28.94C27.8398 29.04 27.7798 29.32 27.9398 29.74L29.7598 34.46L31.3798 29.84C31.5598 29.34 31.4198 29.06 31.1398 28.96L30.3598 28.7L30.2998 27.84H34.1798ZM44.7566 32.36C44.7566 35.12 42.5566 37.3 39.4566 37.3C36.3366 37.3 34.5966 35.1 34.5966 32.52C34.5966 29.76 36.8366 27.54 39.9166 27.54C43.0366 27.54 44.7566 29.78 44.7566 32.36ZM41.3966 32.82C41.3966 31 41.1166 29.56 40.5766 29.02C40.3166 28.72 39.9966 28.58 39.6366 28.58C38.5966 28.58 37.9566 29.92 37.9566 32.06C37.9566 33.96 38.0566 35.28 38.7166 35.94C38.9566 36.18 39.3966 36.3 39.6966 36.3C40.7566 36.3 41.3966 34.84 41.3966 32.82ZM57.1381 36.2L57.0781 36.86L52.9381 37.3V35.76H52.8381C51.6581 36.68 50.5981 37.3 49.4781 37.3C48.8581 37.3 48.2181 37.02 47.7181 36.52C47.2181 36.02 46.9581 35.24 46.9581 34.16V29.12C46.9581 28.94 46.8581 28.84 46.1381 28.74L45.8181 28.7L45.7581 27.84H50.0581L49.9981 32.8C49.9781 34.78 50.5981 35.16 51.6381 35.16C52.1181 35.16 52.7381 34.94 52.9381 34.76V29.1C52.9381 28.9 52.8181 28.8 52.1781 28.74L51.7981 28.7L51.7181 27.84H55.9781V35C55.9781 35.48 56.0981 35.88 56.4381 35.98L57.1381 36.2ZM66.475 29.22C66.475 30 65.935 30.72 65.155 30.72C64.375 30.72 63.955 30.34 63.655 29.8C63.175 30.14 62.555 30.66 62.095 31.32V35.74C62.095 35.94 62.215 36.04 62.855 36.1L63.435 36.14L63.495 37H57.955L58.015 36.14L58.375 36.1C58.855 36.06 59.055 35.96 59.055 35.72V31.16C59.055 29.9 58.875 29.72 58.195 29.52L57.895 29.42L57.915 28.72L62.095 27.54V30H62.195C62.895 28.76 63.675 27.54 64.835 27.54C65.815 27.54 66.475 28.14 66.475 29.22ZM80.5139 34.14C79.9339 36.16 78.4139 37.3 76.1339 37.3C73.7139 37.3 71.7339 35.58 71.7339 32.74C71.7339 29.84 73.8139 27.54 76.8539 27.54C78.7939 27.54 80.4739 28.64 80.4739 30.74C80.4739 31.06 80.4339 31.5 80.3539 31.86L74.9339 31.78V32C74.9739 34.1 75.8939 35.34 77.4539 35.34C78.4339 35.34 79.3539 34.76 80.0339 33.88L80.5139 34.14ZM77.6139 31C77.6939 29.42 77.2539 28.54 76.5539 28.54C75.6339 28.54 74.9939 29.36 74.9139 31.08L77.6139 31ZM98.852 37H93.612L93.672 36.14L93.932 36.1C94.512 36.06 94.612 35.92 94.612 35.72V32.04C94.612 30.04 93.952 29.68 92.992 29.68C92.492 29.68 92.032 29.88 91.752 30.08V35.72C91.752 35.9 91.852 36 92.572 36.1L92.812 36.14L92.872 37H87.712L87.792 36.14L88.032 36.1C88.612 36.06 88.712 35.92 88.712 35.72V32.04C88.712 30.04 88.052 29.68 87.092 29.68C86.592 29.68 86.132 29.88 85.852 30.08V35.74C85.852 35.94 85.972 36.04 86.612 36.1L86.872 36.14L86.932 37H81.672L81.732 36.14L82.132 36.1C82.612 36.06 82.812 35.96 82.812 35.72V31.16C82.812 29.9 82.632 29.72 81.952 29.52L81.652 29.42L81.672 28.72L85.852 27.54V29.06H85.952C87.132 28.12 88.132 27.54 89.252 27.54C89.892 27.54 90.492 27.78 91.012 28.3C91.232 28.52 91.412 28.82 91.552 29.18H91.632C92.852 28 94.032 27.54 95.152 27.54C95.792 27.54 96.392 27.78 96.912 28.3C97.412 28.8 97.652 29.56 97.652 30.66V35.72C97.652 35.9 97.752 36 98.472 36.1L98.792 36.14L98.852 37ZM110.305 32C110.305 34.9 108.225 37.3 105.185 37.3C104.525 37.3 104.025 37.18 103.705 37.06H103.645V40.66C103.645 40.86 103.765 40.96 104.405 41.02L104.985 41.06L105.045 41.92H99.305L99.365 41.06L99.925 41.02C100.405 40.98 100.605 40.88 100.605 40.64V31.16C100.605 29.9 100.425 29.72 99.745 29.52L99.445 29.42L99.465 28.72L103.645 27.54V29.18H103.745C104.445 28.32 105.365 27.64 106.565 27.64C108.645 27.64 110.305 29.54 110.305 32ZM107.045 32.98C107.045 30.94 106.085 29.68 104.765 29.68C104.325 29.68 103.885 29.8 103.645 29.96V35.1C104.425 36.04 104.945 36.32 105.465 36.32C106.325 36.32 107.045 35.18 107.045 32.98ZM116.78 37H111.56L111.62 36.14L111.98 36.1C112.46 36.06 112.66 35.96 112.66 35.72V26.38C112.66 25.9 112.52 25.66 112.2 25.48L111.5 25.08L111.56 24.42L115.7 23.06V35.74C115.7 35.94 115.82 36.04 116.46 36.1L116.72 36.14L116.78 37ZM128.252 32.36C128.252 35.12 126.052 37.3 122.952 37.3C119.832 37.3 118.092 35.1 118.092 32.52C118.092 29.76 120.332 27.54 123.412 27.54C126.532 27.54 128.252 29.78 128.252 32.36ZM124.892 32.82C124.892 31 124.612 29.56 124.072 29.02C123.812 28.72 123.492 28.58 123.132 28.58C122.092 28.58 121.452 29.92 121.452 32.06C121.452 33.96 121.552 35.28 122.212 35.94C122.452 36.18 122.892 36.3 123.192 36.3C124.252 36.3 124.892 34.84 124.892 32.82ZM139.613 27.84L139.553 28.7L138.893 28.8C138.453 28.86 138.213 29.3 138.053 29.72L135.593 36.1L134.313 39.76C133.693 41.54 132.813 42.24 131.613 42.24C130.733 42.24 129.913 41.66 129.913 40.84C129.913 40.18 130.353 39.52 131.173 39.52C131.893 39.52 132.393 40.06 132.553 40.54C132.893 40.42 133.173 40.04 133.493 38.96L133.713 38.22V38.02L130.153 29.58C130.013 29.24 129.773 29.08 129.393 28.92L128.873 28.7L128.813 27.84H134.333L134.273 28.7L133.573 28.94C133.273 29.04 133.213 29.32 133.373 29.74L135.193 34.46L136.813 29.84C136.993 29.34 136.853 29.06 136.573 28.96L135.793 28.7L135.733 27.84H139.613ZM148.77 34.14C148.19 36.16 146.67 37.3 144.39 37.3C141.97 37.3 139.99 35.58 139.99 32.74C139.99 29.84 142.07 27.54 145.11 27.54C147.05 27.54 148.73 28.64 148.73 30.74C148.73 31.06 148.69 31.5 148.61 31.86L143.19 31.78V32C143.23 34.1 144.15 35.34 145.71 35.34C146.69 35.34 147.61 34.76 148.29 33.88L148.77 34.14ZM145.87 31C145.95 29.42 145.51 28.54 144.81 28.54C143.89 28.54 143.25 29.36 143.17 31.08L145.87 31ZM158.948 34.14C158.368 36.16 156.848 37.3 154.568 37.3C152.148 37.3 150.168 35.58 150.168 32.74C150.168 29.84 152.248 27.54 155.288 27.54C157.228 27.54 158.908 28.64 158.908 30.74C158.908 31.06 158.868 31.5 158.788 31.86L153.368 31.78V32C153.408 34.1 154.328 35.34 155.888 35.34C156.868 35.34 157.788 34.76 158.468 33.88L158.948 34.14ZM156.048 31C156.128 29.42 155.688 28.54 154.988 28.54C154.068 28.54 153.428 29.36 153.348 31.08L156.048 31ZM168.166 34.28C168.166 36.02 166.626 37.3 163.866 37.3C162.726 37.3 161.306 37.12 160.406 36.76L160.326 34.1H162.026L162.546 35.96C162.906 36.08 163.426 36.28 163.966 36.28C165.086 36.28 165.686 35.74 165.686 35C165.686 34.16 164.526 33.88 163.386 33.48C161.786 32.92 160.446 32.3 160.446 30.46C160.446 28.7 161.926 27.54 164.326 27.54C165.166 27.54 166.066 27.68 166.646 27.86L167.786 27.66L167.866 30.74H166.326L165.646 28.9C165.326 28.74 164.926 28.58 164.366 28.58C163.446 28.58 162.906 29.04 162.906 29.68C162.906 30.58 163.666 30.78 165.026 31.24C166.646 31.8 168.166 32.42 168.166 34.28ZM173.187 36.4C173.187 38.06 171.907 39.6 169.827 40.88L169.187 40.22C170.487 39.36 171.167 38.64 171.167 37.58C171.167 36.16 169.167 35.72 169.167 35.6C169.167 34.84 169.827 33.94 170.907 33.94C172.247 33.94 173.187 35.04 173.187 36.4ZM186.806 34.28C186.806 36.02 185.266 37.3 182.506 37.3C181.366 37.3 179.946 37.12 179.046 36.76L178.966 34.1H180.666L181.186 35.96C181.546 36.08 182.066 36.28 182.606 36.28C183.726 36.28 184.326 35.74 184.326 35C184.326 34.16 183.166 33.88 182.026 33.48C180.426 32.92 179.086 32.3 179.086 30.46C179.086 28.7 180.566 27.54 182.966 27.54C183.806 27.54 184.706 27.68 185.286 27.86L186.426 27.66L186.506 30.74H184.966L184.286 28.9C183.966 28.74 183.566 28.58 183.006 28.58C182.086 28.58 181.546 29.04 181.546 29.68C181.546 30.58 182.306 30.78 183.666 31.24C185.286 31.8 186.806 32.42 186.806 34.28ZM198.427 32.36C198.427 35.12 196.227 37.3 193.127 37.3C190.007 37.3 188.267 35.1 188.267 32.52C188.267 29.76 190.507 27.54 193.587 27.54C196.707 27.54 198.427 29.78 198.427 32.36ZM195.067 32.82C195.067 31 194.787 29.56 194.247 29.02C193.987 28.72 193.667 28.58 193.307 28.58C192.267 28.58 191.627 29.92 191.627 32.06C191.627 33.96 191.727 35.28 192.387 35.94C192.627 36.18 193.067 36.3 193.367 36.3C194.427 36.3 195.067 34.84 195.067 32.82ZM214.439 27.84L214.379 28.7L213.719 28.8C213.279 28.86 213.039 29.3 212.879 29.72L210.419 36.1L209.139 39.76C208.519 41.54 207.639 42.24 206.439 42.24C205.559 42.24 204.739 41.66 204.739 40.84C204.739 40.18 205.179 39.52 205.999 39.52C206.719 39.52 207.219 40.06 207.379 40.54C207.719 40.42 207.999 40.04 208.319 38.96L208.539 38.22V38.02L204.979 29.58C204.839 29.24 204.599 29.08 204.219 28.92L203.699 28.7L203.639 27.84H209.159L209.099 28.7L208.399 28.94C208.099 29.04 208.039 29.32 208.199 29.74L210.019 34.46L211.639 29.84C211.819 29.34 211.679 29.06 211.399 28.96L210.619 28.7L210.559 27.84H214.439ZM225.016 32.36C225.016 35.12 222.816 37.3 219.716 37.3C216.596 37.3 214.856 35.1 214.856 32.52C214.856 29.76 217.096 27.54 220.176 27.54C223.296 27.54 225.016 29.78 225.016 32.36ZM221.656 32.82C221.656 31 221.376 29.56 220.836 29.02C220.576 28.72 220.256 28.58 219.896 28.58C218.856 28.58 218.216 29.92 218.216 32.06C218.216 33.96 218.316 35.28 218.976 35.94C219.216 36.18 219.656 36.3 219.956 36.3C221.016 36.3 221.656 34.84 221.656 32.82ZM237.397 36.2L237.337 36.86L233.197 37.3V35.76H233.097C231.917 36.68 230.857 37.3 229.737 37.3C229.117 37.3 228.477 37.02 227.977 36.52C227.477 36.02 227.217 35.24 227.217 34.16V29.12C227.217 28.94 227.117 28.84 226.397 28.74L226.077 28.7L226.017 27.84H230.317L230.257 32.8C230.237 34.78 230.857 35.16 231.897 35.16C232.377 35.16 232.997 34.94 233.197 34.76V29.1C233.197 28.9 233.077 28.8 232.437 28.74L232.057 28.7L231.977 27.84H236.237V35C236.237 35.48 236.357 35.88 236.697 35.98L237.397 36.2ZM9.48 57.14C8.9 59.16 7.38 60.3 5.1 60.3C2.68 60.3 0.68 58.58 0.68 55.74C0.68 52.78 2.82 50.54 5.94 50.54C8.06 50.54 9.3 51.38 9.3 52.7C9.3 53.66 8.66 54.08 7.84 54.08C6.72 54.08 6.18 52.82 6.44 51.72V51.7C6.34 51.64 6.1 51.58 5.9 51.58C4.82 51.58 3.92 52.58 3.92 54.78C3.92 56.92 4.86 58.34 6.42 58.34C7.4 58.34 8.32 57.76 9 56.88L9.48 57.14ZM20.6419 58.56C20.0219 59.46 18.8619 60.36 17.9219 60.36C17.1219 60.36 16.1419 59.88 16.0819 58.5H15.9819C15.1619 59.56 14.3819 60.3 13.2219 60.3C11.8819 60.3 10.7019 59.52 10.7019 57.94C10.7019 56.28 12.4619 55.28 16.0419 54.32V54.18C16.0819 52.96 15.3819 51.98 14.0219 51.98C13.3419 51.98 12.7419 52.2 12.7419 52.28C12.7419 52.36 13.3019 52.74 13.3019 53.48C13.3019 53.96 12.7819 54.6 12.0019 54.6C11.2019 54.6 10.6219 54.14 10.6219 53.48C10.6219 52.12 13.0619 50.56 15.6819 50.56C17.6419 50.56 19.1819 51.48 19.0619 54.34L18.9219 57.54C18.8819 58.28 19.0019 58.48 19.4419 58.48C19.6419 58.48 19.9819 58.26 20.3419 57.96L20.6419 58.56ZM15.9419 57.62L16.0019 55.12C13.9019 55.76 13.4619 56.44 13.4619 57.22C13.4619 57.98 14.0619 58.3 14.7219 58.3C15.2419 58.3 15.7619 57.88 15.9419 57.62ZM32.5469 60H27.3069L27.3669 59.14L27.6269 59.1C28.2069 59.06 28.3069 58.92 28.3069 58.72V55.04C28.3069 53.04 27.7069 52.68 26.6669 52.68C26.1869 52.68 25.5669 52.9 25.3669 53.08V58.74C25.3669 58.94 25.4869 59.04 26.1269 59.1L26.5069 59.14L26.5669 60H21.1869L21.2469 59.14L21.6469 59.1C22.1269 59.06 22.3269 58.96 22.3269 58.72V54.16C22.3269 52.9 22.1469 52.72 21.4669 52.52L21.1669 52.42L21.1869 51.72L25.3669 50.54V52.08H25.4669C26.6469 51.16 27.7069 50.54 28.8269 50.54C29.4469 50.54 30.0869 50.82 30.5869 51.32C31.0869 51.82 31.3469 52.6 31.3469 53.68V58.72C31.3469 58.9 31.4469 59 32.1669 59.1L32.4869 59.14L32.5469 60ZM46.6703 47.92C46.6703 48.82 45.9903 49.34 45.2703 49.34C44.3503 49.34 43.7903 48.78 43.4903 47.34L43.4703 47.26L42.8903 47.22C42.3503 47.68 42.0503 48.52 42.0503 50.3V51.04H44.7903L44.6503 52.46H42.0503V58.74C42.0503 58.94 42.1703 59.06 42.8103 59.1L43.3903 59.14L43.4503 60H37.9103L37.9703 59.14L38.3703 59.1C38.8503 59.06 39.0503 58.96 39.0503 58.72V52.54L37.4903 52.36L37.6103 51.04H38.9503L38.9903 50.56C39.2103 48 41.3503 46.06 43.9703 46.06C45.4103 46.06 46.6703 46.8 46.6703 47.92ZM55.6378 55.36C55.6378 58.12 53.4378 60.3 50.3378 60.3C47.2178 60.3 45.4778 58.1 45.4778 55.52C45.4778 52.76 47.7178 50.54 50.7978 50.54C53.9178 50.54 55.6378 52.78 55.6378 55.36ZM52.2778 55.82C52.2778 54 51.9978 52.56 51.4578 52.02C51.1978 51.72 50.8778 51.58 50.5178 51.58C49.4778 51.58 48.8378 52.92 48.8378 55.06C48.8378 56.96 48.9378 58.28 49.5978 58.94C49.8378 59.18 50.2778 59.3 50.5778 59.3C51.6378 59.3 52.2778 57.84 52.2778 55.82ZM65.9394 57.14C65.3594 59.16 63.8394 60.3 61.5594 60.3C59.1394 60.3 57.1394 58.58 57.1394 55.74C57.1394 52.78 59.2794 50.54 62.3994 50.54C64.5194 50.54 65.7594 51.38 65.7594 52.7C65.7594 53.66 65.1194 54.08 64.2994 54.08C63.1794 54.08 62.6394 52.82 62.8994 51.72V51.7C62.7994 51.64 62.5594 51.58 62.3594 51.58C61.2794 51.58 60.3794 52.58 60.3794 54.78C60.3794 56.92 61.3194 58.34 62.8794 58.34C63.8594 58.34 64.7794 57.76 65.4594 56.88L65.9394 57.14ZM78.0412 59.2L77.9812 59.86L73.8412 60.3V58.76H73.7412C72.5612 59.68 71.5012 60.3 70.3812 60.3C69.7612 60.3 69.1212 60.02 68.6212 59.52C68.1212 59.02 67.8612 58.24 67.8612 57.16V52.12C67.8612 51.94 67.7612 51.84 67.0412 51.74L66.7212 51.7L66.6612 50.84H70.9612L70.9012 55.8C70.8812 57.78 71.5012 58.16 72.5412 58.16C73.0212 58.16 73.6412 57.94 73.8412 57.76V52.1C73.8412 51.9 73.7212 51.8 73.0812 51.74L72.7012 51.7L72.6212 50.84H76.8812V58C76.8812 58.48 77.0012 58.88 77.3412 58.98L78.0412 59.2ZM86.8781 57.28C86.8781 59.02 85.3381 60.3 82.5781 60.3C81.4381 60.3 80.0181 60.12 79.1181 59.76L79.0381 57.1H80.7381L81.2581 58.96C81.6181 59.08 82.1381 59.28 82.6781 59.28C83.7981 59.28 84.3981 58.74 84.3981 58C84.3981 57.16 83.2381 56.88 82.0981 56.48C80.4981 55.92 79.1581 55.3 79.1581 53.46C79.1581 51.7 80.6381 50.54 83.0381 50.54C83.8781 50.54 84.7781 50.68 85.3581 50.86L86.4981 50.66L86.5781 53.74H85.0381L84.3581 51.9C84.0381 51.74 83.6381 51.58 83.0781 51.58C82.1581 51.58 81.6181 52.04 81.6181 52.68C81.6181 53.58 82.3781 53.78 83.7381 54.24C85.3581 54.8 86.8781 55.42 86.8781 57.28ZM103.15 55.36C103.15 58.12 100.95 60.3 97.8495 60.3C94.7295 60.3 92.9895 58.1 92.9895 55.52C92.9895 52.76 95.2295 50.54 98.3095 50.54C101.43 50.54 103.15 52.78 103.15 55.36ZM99.7895 55.82C99.7895 54 99.5095 52.56 98.9695 52.02C98.7095 51.72 98.3895 51.58 98.0295 51.58C96.9895 51.58 96.3495 52.92 96.3495 55.06C96.3495 56.96 96.4495 58.28 97.1095 58.94C97.3495 59.18 97.7895 59.3 98.0895 59.3C99.1495 59.3 99.7895 57.84 99.7895 55.82ZM115.771 60H110.531L110.591 59.14L110.851 59.1C111.431 59.06 111.531 58.92 111.531 58.72V55.04C111.531 53.04 110.931 52.68 109.891 52.68C109.411 52.68 108.791 52.9 108.591 53.08V58.74C108.591 58.94 108.711 59.04 109.351 59.1L109.731 59.14L109.791 60H104.411L104.471 59.14L104.871 59.1C105.351 59.06 105.551 58.96 105.551 58.72V54.16C105.551 52.9 105.371 52.72 104.691 52.52L104.391 52.42L104.411 51.72L108.591 50.54V52.08H108.691C109.871 51.16 110.931 50.54 112.051 50.54C112.671 50.54 113.311 50.82 113.811 51.32C114.311 51.82 114.571 52.6 114.571 53.68V58.72C114.571 58.9 114.671 59 115.391 59.1L115.711 59.14L115.771 60ZM128.355 58.68C127.595 59.6 126.355 60.3 124.855 60.3C123.055 60.3 122.095 59.24 122.135 57.24L122.195 52.54L120.695 52.36L120.755 51.56L122.295 50.12L123.835 48.66L125.075 48.78L125.055 51.04H128.295L128.155 52.46H125.035L124.995 56.3C124.995 57.96 125.695 58.38 126.595 58.38C127.095 58.38 127.835 58.24 128.295 58.02L128.355 58.68ZM140.287 60H135.047L135.107 59.14L135.367 59.1C135.947 59.06 136.047 58.92 136.047 58.72V55.04C136.047 53.04 135.447 52.68 134.407 52.68C133.927 52.68 133.307 52.9 133.107 53.08V58.74C133.107 58.94 133.227 59.04 133.867 59.1L134.247 59.14L134.307 60H128.927L128.987 59.14L129.387 59.1C129.867 59.06 130.067 58.96 130.067 58.72V49.38C130.067 48.9 129.887 48.66 129.607 48.48L128.867 48.08L128.927 47.42L133.107 46.06V52.08H133.207C134.387 51.16 135.447 50.54 136.567 50.54C137.187 50.54 137.827 50.82 138.327 51.32C138.827 51.82 139.087 52.6 139.087 53.68V58.72C139.087 58.9 139.187 59 139.907 59.1L140.227 59.14L140.287 60ZM150.042 57.14C149.462 59.16 147.942 60.3 145.662 60.3C143.242 60.3 141.262 58.58 141.262 55.74C141.262 52.84 143.342 50.54 146.382 50.54C148.322 50.54 150.002 51.64 150.002 53.74C150.002 54.06 149.962 54.5 149.882 54.86L144.462 54.78V55C144.502 57.1 145.422 58.34 146.982 58.34C147.962 58.34 148.882 57.76 149.562 56.88L150.042 57.14ZM147.142 54C147.222 52.42 146.782 51.54 146.082 51.54C145.162 51.54 144.522 52.36 144.442 54.08L147.142 54ZM167.111 60H161.871L161.931 59.14L162.191 59.1C162.771 59.06 162.871 58.92 162.871 58.72V55.04C162.871 53.04 162.271 52.68 161.231 52.68C160.751 52.68 160.131 52.9 159.931 53.08V58.74C159.931 58.94 160.051 59.04 160.691 59.1L161.071 59.14L161.131 60H155.751L155.811 59.14L156.211 59.1C156.691 59.06 156.891 58.96 156.891 58.72V49.38C156.891 48.9 156.711 48.66 156.431 48.48L155.691 48.08L155.751 47.42L159.931 46.06V52.08H160.031C161.211 51.16 162.271 50.54 163.391 50.54C164.011 50.54 164.651 50.82 165.151 51.32C165.651 51.82 165.911 52.6 165.911 53.68V58.72C165.911 58.9 166.011 59 166.731 59.1L167.051 59.14L167.111 60ZM176.865 57.14C176.285 59.16 174.765 60.3 172.485 60.3C170.065 60.3 168.085 58.58 168.085 55.74C168.085 52.84 170.165 50.54 173.205 50.54C175.145 50.54 176.825 51.64 176.825 53.74C176.825 54.06 176.785 54.5 176.705 54.86L171.285 54.78V55C171.325 57.1 172.245 58.34 173.805 58.34C174.785 58.34 175.705 57.76 176.385 56.88L176.865 57.14ZM173.965 54C174.045 52.42 173.605 51.54 172.905 51.54C171.985 51.54 171.345 52.36 171.265 54.08L173.965 54ZM188.204 58.56C187.584 59.46 186.424 60.36 185.484 60.36C184.684 60.36 183.704 59.88 183.644 58.5H183.544C182.724 59.56 181.944 60.3 180.784 60.3C179.444 60.3 178.264 59.52 178.264 57.94C178.264 56.28 180.024 55.28 183.604 54.32V54.18C183.644 52.96 182.944 51.98 181.584 51.98C180.904 51.98 180.304 52.2 180.304 52.28C180.304 52.36 180.864 52.74 180.864 53.48C180.864 53.96 180.344 54.6 179.564 54.6C178.764 54.6 178.184 54.14 178.184 53.48C178.184 52.12 180.624 50.56 183.244 50.56C185.204 50.56 186.744 51.48 186.624 54.34L186.484 57.54C186.444 58.28 186.564 58.48 187.004 58.48C187.204 58.48 187.544 58.26 187.904 57.96L188.204 58.56ZM183.504 57.62L183.564 55.12C181.464 55.76 181.024 56.44 181.024 57.22C181.024 57.98 181.624 58.3 182.284 58.3C182.804 58.3 183.324 57.88 183.504 57.62ZM194.009 60H188.789L188.849 59.14L189.209 59.1C189.689 59.06 189.889 58.96 189.889 58.72V49.38C189.889 48.9 189.749 48.66 189.429 48.48L188.729 48.08L188.789 47.42L192.929 46.06V58.74C192.929 58.94 193.049 59.04 193.689 59.1L193.949 59.14L194.009 60ZM202.26 58.68C201.5 59.6 200.26 60.3 198.76 60.3C196.96 60.3 196 59.24 196.04 57.24L196.1 52.54L194.6 52.36L194.66 51.56L196.2 50.12L197.74 48.66L198.98 48.78L198.96 51.04H202.2L202.06 52.46H198.94L198.9 56.3C198.9 57.96 199.6 58.38 200.5 58.38C201 58.38 201.74 58.24 202.2 58.02L202.26 58.68ZM214.193 60H208.953L209.013 59.14L209.273 59.1C209.853 59.06 209.953 58.92 209.953 58.72V55.04C209.953 53.04 209.353 52.68 208.313 52.68C207.833 52.68 207.213 52.9 207.013 53.08V58.74C207.013 58.94 207.133 59.04 207.773 59.1L208.153 59.14L208.213 60H202.833L202.893 59.14L203.293 59.1C203.773 59.06 203.973 58.96 203.973 58.72V49.38C203.973 48.9 203.793 48.66 203.513 48.48L202.773 48.08L202.833 47.42L207.013 46.06V52.08H207.113C208.293 51.16 209.353 50.54 210.473 50.54C211.093 50.54 211.733 50.82 212.233 51.32C212.733 51.82 212.993 52.6 212.993 53.68V58.72C212.993 58.9 213.093 59 213.813 59.1L214.133 59.14L214.193 60ZM10.88 78.36C10.88 81.12 8.68 83.3 5.58 83.3C2.46 83.3 0.72 81.1 0.72 78.52C0.72 75.76 2.96 73.54 6.04 73.54C9.16 73.54 10.88 75.78 10.88 78.36ZM7.52 78.82C7.52 77 7.24 75.56 6.7 75.02C6.44 74.72 6.12 74.58 5.76 74.58C4.72 74.58 4.08 75.92 4.08 78.06C4.08 79.96 4.18 81.28 4.84 81.94C5.08 82.18 5.52 82.3 5.82 82.3C6.88 82.3 7.52 80.84 7.52 78.82ZM20.9016 70.92C20.9016 71.82 20.2216 72.34 19.5016 72.34C18.5816 72.34 18.0216 71.78 17.7216 70.34L17.7016 70.26L17.1216 70.22C16.5816 70.68 16.2816 71.52 16.2816 73.3V74.04H19.0216L18.8816 75.46H16.2816V81.74C16.2816 81.94 16.4016 82.06 17.0416 82.1L17.6216 82.14L17.6816 83H12.1416L12.2016 82.14L12.6016 82.1C13.0816 82.06 13.2816 81.96 13.2816 81.72V75.54L11.7216 75.36L11.8416 74.04H13.1816L13.2216 73.56C13.4416 71 15.5816 69.06 18.2016 69.06C19.6416 69.06 20.9016 69.8 20.9016 70.92ZM34.1798 73.84L34.1198 74.7L33.4598 74.8C33.0198 74.86 32.7798 75.3 32.6198 75.72L30.1598 82.1L28.8798 85.76C28.2598 87.54 27.3798 88.24 26.1798 88.24C25.2998 88.24 24.4798 87.66 24.4798 86.84C24.4798 86.18 24.9198 85.52 25.7398 85.52C26.4598 85.52 26.9598 86.06 27.1198 86.54C27.4598 86.42 27.7398 86.04 28.0598 84.96L28.2798 84.22V84.02L24.7198 75.58C24.5798 75.24 24.3398 75.08 23.9598 74.92L23.4398 74.7L23.3798 73.84H28.8998L28.8398 74.7L28.1398 74.94C27.8398 75.04 27.7798 75.32 27.9398 75.74L29.7598 80.46L31.3798 75.84C31.5598 75.34 31.4198 75.06 31.1398 74.96L30.3598 74.7L30.2998 73.84H34.1798ZM44.7566 78.36C44.7566 81.12 42.5566 83.3 39.4566 83.3C36.3366 83.3 34.5966 81.1 34.5966 78.52C34.5966 75.76 36.8366 73.54 39.9166 73.54C43.0366 73.54 44.7566 75.78 44.7566 78.36ZM41.3966 78.82C41.3966 77 41.1166 75.56 40.5766 75.02C40.3166 74.72 39.9966 74.58 39.6366 74.58C38.5966 74.58 37.9566 75.92 37.9566 78.06C37.9566 79.96 38.0566 81.28 38.7166 81.94C38.9566 82.18 39.3966 82.3 39.6966 82.3C40.7566 82.3 41.3966 80.84 41.3966 78.82ZM57.1381 82.2L57.0781 82.86L52.9381 83.3V81.76H52.8381C51.6581 82.68 50.5981 83.3 49.4781 83.3C48.8581 83.3 48.2181 83.02 47.7181 82.52C47.2181 82.02 46.9581 81.24 46.9581 80.16V75.12C46.9581 74.94 46.8581 74.84 46.1381 74.74L45.8181 74.7L45.7581 73.84H50.0581L49.9981 78.8C49.9781 80.78 50.5981 81.16 51.6381 81.16C52.1181 81.16 52.7381 80.94 52.9381 80.76V75.1C52.9381 74.9 52.8181 74.8 52.1781 74.74L51.7981 74.7L51.7181 73.84H55.9781V81C55.9781 81.48 56.0981 81.88 56.4381 81.98L57.1381 82.2ZM66.475 75.22C66.475 76 65.935 76.72 65.155 76.72C64.375 76.72 63.955 76.34 63.655 75.8C63.175 76.14 62.555 76.66 62.095 77.32V81.74C62.095 81.94 62.215 82.04 62.855 82.1L63.435 82.14L63.495 83H57.955L58.015 82.14L58.375 82.1C58.855 82.06 59.055 81.96 59.055 81.72V77.16C59.055 75.9 58.875 75.72 58.195 75.52L57.895 75.42L57.915 74.72L62.095 73.54V76H62.195C62.895 74.76 63.675 73.54 64.835 73.54C65.815 73.54 66.475 74.14 66.475 75.22ZM82.1339 78C82.1339 80.9 80.0739 83.3 76.8339 83.3C76.1139 83.3 75.1939 83.08 74.1739 82.7H74.1539L72.7539 83.42H72.4339V72.38C72.4339 71.9 72.2939 71.66 71.9739 71.48L71.2739 71.08L71.3339 70.42L75.4739 69.06V75.18H75.5739C76.2739 74.32 77.1939 73.64 78.3939 73.64C80.4739 73.64 82.1339 75.54 82.1339 78ZM78.8739 78.98C78.8739 76.94 77.9139 75.68 76.5939 75.68C76.1539 75.68 75.7139 75.8 75.4739 75.96V81.1C76.2539 82.04 76.7739 82.32 77.2939 82.32C78.1539 82.32 78.8739 81.18 78.8739 78.98ZM94.4913 82.2L94.4313 82.86L90.2913 83.3V81.76H90.1913C89.0113 82.68 87.9513 83.3 86.8313 83.3C86.2113 83.3 85.5713 83.02 85.0713 82.52C84.5713 82.02 84.3113 81.24 84.3113 80.16V75.12C84.3113 74.94 84.2113 74.84 83.4913 74.74L83.1713 74.7L83.1113 73.84H87.4113L87.3513 78.8C87.3313 80.78 87.9513 81.16 88.9913 81.16C89.4713 81.16 90.0913 80.94 90.2913 80.76V75.1C90.2913 74.9 90.1713 74.8 89.5313 74.74L89.1513 74.7L89.0713 73.84H93.3313V81C93.3313 81.48 93.4513 81.88 93.7913 81.98L94.4913 82.2ZM103.328 80.28C103.328 82.02 101.788 83.3 99.0281 83.3C97.8881 83.3 96.4681 83.12 95.5681 82.76L95.4881 80.1H97.1881L97.7081 81.96C98.0681 82.08 98.5881 82.28 99.1281 82.28C100.248 82.28 100.848 81.74 100.848 81C100.848 80.16 99.6881 79.88 98.5481 79.48C96.9481 78.92 95.6081 78.3 95.6081 76.46C95.6081 74.7 97.0881 73.54 99.4881 73.54C100.328 73.54 101.228 73.68 101.808 73.86L102.948 73.66L103.028 76.74H101.488L100.808 74.9C100.488 74.74 100.088 74.58 99.5281 74.58C98.6081 74.58 98.0681 75.04 98.0681 75.68C98.0681 76.58 98.8281 76.78 100.188 77.24C101.808 77.8 103.328 78.42 103.328 80.28ZM108.949 70.72C108.949 71.7 108.129 72.5 107.149 72.5C106.169 72.5 105.389 71.7 105.389 70.72C105.389 69.74 106.169 68.94 107.149 68.94C108.129 68.94 108.949 69.74 108.949 70.72ZM109.909 83H104.669L104.729 82.14L105.089 82.1C105.569 82.06 105.769 81.96 105.769 81.72V77.16C105.769 75.9 105.589 75.72 104.909 75.52L104.609 75.42L104.629 74.72L108.809 73.54V81.74C108.809 81.94 108.929 82.04 109.569 82.1L109.849 82.14L109.909 83ZM122.375 83H117.135L117.195 82.14L117.455 82.1C118.035 82.06 118.135 81.92 118.135 81.72V78.04C118.135 76.04 117.535 75.68 116.495 75.68C116.015 75.68 115.395 75.9 115.195 76.08V81.74C115.195 81.94 115.315 82.04 115.955 82.1L116.335 82.14L116.395 83H111.015L111.075 82.14L111.475 82.1C111.955 82.06 112.155 81.96 112.155 81.72V77.16C112.155 75.9 111.975 75.72 111.295 75.52L110.995 75.42L111.015 74.72L115.195 73.54V75.08H115.295C116.475 74.16 117.535 73.54 118.655 73.54C119.275 73.54 119.915 73.82 120.415 74.32C120.915 74.82 121.175 75.6 121.175 76.68V81.72C121.175 81.9 121.275 82 121.995 82.1L122.315 82.14L122.375 83ZM132.108 80.14C131.528 82.16 130.008 83.3 127.728 83.3C125.308 83.3 123.328 81.58 123.328 78.74C123.328 75.84 125.408 73.54 128.448 73.54C130.388 73.54 132.068 74.64 132.068 76.74C132.068 77.06 132.028 77.5 131.948 77.86L126.528 77.78V78C126.568 80.1 127.488 81.34 129.048 81.34C130.028 81.34 130.948 80.76 131.628 79.88L132.108 80.14ZM129.208 77C129.288 75.42 128.848 74.54 128.148 74.54C127.228 74.54 126.588 75.36 126.508 77.08L129.208 77ZM141.326 80.28C141.326 82.02 139.786 83.3 137.026 83.3C135.886 83.3 134.466 83.12 133.566 82.76L133.486 80.1H135.186L135.706 81.96C136.066 82.08 136.586 82.28 137.126 82.28C138.246 82.28 138.846 81.74 138.846 81C138.846 80.16 137.686 79.88 136.546 79.48C134.946 78.92 133.606 78.3 133.606 76.46C133.606 74.7 135.086 73.54 137.486 73.54C138.326 73.54 139.226 73.68 139.806 73.86L140.946 73.66L141.026 76.74H139.486L138.806 74.9C138.486 74.74 138.086 74.58 137.526 74.58C136.606 74.58 136.066 75.04 136.066 75.68C136.066 76.58 136.826 76.78 138.186 77.24C139.806 77.8 141.326 78.42 141.326 80.28ZM150.566 80.28C150.566 82.02 149.026 83.3 146.266 83.3C145.126 83.3 143.706 83.12 142.806 82.76L142.726 80.1H144.426L144.946 81.96C145.306 82.08 145.826 82.28 146.366 82.28C147.486 82.28 148.086 81.74 148.086 81C148.086 80.16 146.926 79.88 145.786 79.48C144.186 78.92 142.846 78.3 142.846 76.46C142.846 74.7 144.326 73.54 146.726 73.54C147.566 73.54 148.466 73.68 149.046 73.86L150.186 73.66L150.266 76.74H148.726L148.046 74.9C147.726 74.74 147.326 74.58 146.766 74.58C145.846 74.58 145.306 75.04 145.306 75.68C145.306 76.58 146.066 76.78 147.426 77.24C149.046 77.8 150.566 78.42 150.566 80.28Z" fill="#484849" data-color-group="0"/></svg>