<svg width="100%" height="100%" viewBox="0 0 191 74" fill="none" xmlns="http://www.w3.org/2000/svg" preserveAspectRatio="none"><path d="M8.992 8.656L8.688 12H0.496L0.544 11.296L1.04 11.2C1.424 11.168 1.584 11.088 1.584 10.896V3.104C1.584 2.96 1.504 2.848 0.928 2.8L0.544 2.704L0.496 2H5.344L5.296 2.704L4.816 2.8C4.352 2.832 4.272 2.944 4.272 3.104V11.2H4.304C6.448 11.2 6.704 11.008 7.232 9.488L7.552 8.656H8.992ZM17.0118 9.712C16.5478 11.328 15.3318 12.24 13.5078 12.24C11.5718 12.24 9.98775 10.864 9.98775 8.592C9.98775 6.272 11.6518 4.432 14.0838 4.432C15.6358 4.432 16.9798 5.312 16.9798 6.992C16.9798 7.248 16.9478 7.6 16.8838 7.888L12.5478 7.824V8C12.5798 9.68 13.3158 10.672 14.5638 10.672C15.3478 10.672 16.0838 10.208 16.6278 9.504L17.0118 9.712ZM14.6918 7.2C14.7558 5.936 14.4038 5.232 13.8438 5.232C13.1078 5.232 12.5958 5.888 12.5318 7.264L14.6918 7.2ZM23.7343 10.944C23.1263 11.68 22.1343 12.24 20.9343 12.24C19.4943 12.24 18.7263 11.392 18.7583 9.792L18.8063 6.032L17.6063 5.888L17.6543 5.248L18.8863 4.096L20.1183 2.928L21.1103 3.024L21.0943 4.832H23.6863L23.5743 5.968H21.0783L21.0463 9.04C21.0463 10.368 21.6063 10.704 22.3263 10.704C22.7263 10.704 23.3183 10.592 23.6863 10.416L23.7343 10.944ZM36.9292 11.36L36.8813 11.888L33.5693 12.24V11.008H33.4892C32.5452 11.744 31.6972 12.24 30.8012 12.24C30.3052 12.24 29.7932 12.016 29.3932 11.616C28.9932 11.216 28.7852 10.592 28.7852 9.728V5.696C28.7852 5.552 28.7052 5.472 28.1292 5.392L27.8732 5.36L27.8252 4.672H31.2652L31.2172 8.64C31.2012 10.224 31.6972 10.528 32.5292 10.528C32.9132 10.528 33.4092 10.352 33.5693 10.208V5.68C33.5693 5.52 33.4732 5.44 32.9612 5.392L32.6572 5.36L32.5932 4.672H36.0013V10.4C36.0013 10.784 36.0972 11.104 36.3693 11.184L36.9292 11.36ZM44.0188 9.824C44.0188 11.216 42.7868 12.24 40.5788 12.24C39.6668 12.24 38.5308 12.096 37.8108 11.808L37.7467 9.68H39.1068L39.5228 11.168C39.8108 11.264 40.2268 11.424 40.6588 11.424C41.5548 11.424 42.0348 10.992 42.0348 10.4C42.0348 9.728 41.1068 9.504 40.1948 9.184C38.9148 8.736 37.8428 8.24 37.8428 6.768C37.8428 5.36 39.0268 4.432 40.9468 4.432C41.6188 4.432 42.3388 4.544 42.8028 4.688L43.7148 4.528L43.7788 6.992H42.5468L42.0028 5.52C41.7468 5.392 41.4268 5.264 40.9788 5.264C40.2428 5.264 39.8108 5.632 39.8108 6.144C39.8108 6.864 40.4188 7.024 41.5068 7.392C42.8028 7.84 44.0188 8.336 44.0188 9.824ZM55.7319 2.336C55.7319 3.056 55.1879 3.472 54.6119 3.472C53.8759 3.472 53.4279 3.024 53.1879 1.872L53.1719 1.808L52.7079 1.776C52.2759 2.144 52.0359 2.816 52.0359 4.24V4.832H54.2279L54.1159 5.968H52.0359V10.992C52.0359 11.152 52.1319 11.248 52.6439 11.28L53.1079 11.312L53.1559 12H48.7239L48.7719 11.312L49.0919 11.28C49.4759 11.248 49.6359 11.168 49.6359 10.976V6.032L48.3879 5.888L48.4839 4.832H49.5559L49.5879 4.448C49.7639 2.4 51.4759 0.848 53.5719 0.848C54.7239 0.848 55.7319 1.44 55.7319 2.336ZM62.9259 8.288C62.9259 10.496 61.1659 12.24 58.6859 12.24C56.1899 12.24 54.7979 10.48 54.7979 8.416C54.7979 6.208 56.5899 4.432 59.0539 4.432C61.5499 4.432 62.9259 6.224 62.9259 8.288ZM60.2379 8.656C60.2379 7.2 60.0139 6.048 59.5819 5.616C59.3739 5.376 59.1179 5.264 58.8299 5.264C57.9979 5.264 57.4859 6.336 57.4859 8.048C57.4859 9.568 57.5659 10.624 58.0939 11.152C58.2859 11.344 58.6379 11.44 58.8779 11.44C59.7259 11.44 60.2379 10.272 60.2379 8.656ZM71.1871 9.712C70.7231 11.328 69.5071 12.24 67.6831 12.24C65.7471 12.24 64.1471 10.864 64.1471 8.592C64.1471 6.224 65.8591 4.432 68.3551 4.432C70.0511 4.432 71.0431 5.104 71.0431 6.16C71.0431 6.928 70.5311 7.264 69.8751 7.264C68.9791 7.264 68.5471 6.256 68.7551 5.376V5.36C68.6751 5.312 68.4831 5.264 68.3231 5.264C67.4591 5.264 66.7391 6.064 66.7391 7.824C66.7391 9.536 67.4911 10.672 68.7391 10.672C69.5231 10.672 70.2591 10.208 70.8031 9.504L71.1871 9.712ZM80.8886 11.36L80.8406 11.888L77.5286 12.24V11.008H77.4486C76.5046 11.744 75.6566 12.24 74.7606 12.24C74.2646 12.24 73.7526 12.016 73.3526 11.616C72.9526 11.216 72.7446 10.592 72.7446 9.728V5.696C72.7446 5.552 72.6646 5.472 72.0886 5.392L71.8326 5.36L71.7846 4.672H75.2246L75.1766 8.64C75.1606 10.224 75.6566 10.528 76.4886 10.528C76.8726 10.528 77.3686 10.352 77.5286 10.208V5.68C77.5286 5.52 77.4326 5.44 76.9206 5.392L76.6166 5.36L76.5526 4.672H79.9606V10.4C79.9606 10.784 80.0566 11.104 80.3286 11.184L80.8886 11.36ZM87.9781 9.824C87.9781 11.216 86.7461 12.24 84.5381 12.24C83.6261 12.24 82.4901 12.096 81.7701 11.808L81.7061 9.68H83.0661L83.4821 11.168C83.7701 11.264 84.1861 11.424 84.6181 11.424C85.5141 11.424 85.9941 10.992 85.9941 10.4C85.9941 9.728 85.0661 9.504 84.1541 9.184C82.8741 8.736 81.8021 8.24 81.8021 6.768C81.8021 5.36 82.9861 4.432 84.9061 4.432C85.5781 4.432 86.2981 4.544 86.7621 4.688L87.6741 4.528L87.7381 6.992H86.5061L85.9621 5.52C85.7061 5.392 85.3861 5.264 84.9381 5.264C84.2021 5.264 83.7701 5.632 83.7701 6.144C83.7701 6.864 84.3781 7.024 85.4661 7.392C86.7621 7.84 87.9781 8.336 87.9781 9.824ZM101.035 8.288C101.035 10.496 99.2753 12.24 96.7953 12.24C94.2993 12.24 92.9073 10.48 92.9073 8.416C92.9073 6.208 94.6993 4.432 97.1633 4.432C99.6593 4.432 101.035 6.224 101.035 8.288ZM98.3473 8.656C98.3473 7.2 98.1233 6.048 97.6913 5.616C97.4833 5.376 97.2273 5.264 96.9393 5.264C96.1073 5.264 95.5953 6.336 95.5953 8.048C95.5953 9.568 95.6753 10.624 96.2033 11.152C96.3953 11.344 96.7473 11.44 96.9873 11.44C97.8353 11.44 98.3473 10.272 98.3473 8.656ZM111.153 12H106.961L107.009 11.312L107.217 11.28C107.681 11.248 107.761 11.136 107.761 10.976V8.032C107.761 6.432 107.281 6.144 106.449 6.144C106.065 6.144 105.569 6.32 105.409 6.464V10.992C105.409 11.152 105.505 11.232 106.017 11.28L106.321 11.312L106.369 12H102.065L102.113 11.312L102.433 11.28C102.817 11.248 102.977 11.168 102.977 10.976V7.328C102.977 6.32 102.833 6.176 102.289 6.016L102.049 5.936L102.065 5.376L105.409 4.432V5.664H105.489C106.433 4.928 107.281 4.432 108.177 4.432C108.673 4.432 109.185 4.656 109.585 5.056C109.985 5.456 110.193 6.08 110.193 6.944V10.976C110.193 11.12 110.273 11.2 110.849 11.28L111.105 11.312L111.153 12ZM121.259 10.944C120.651 11.68 119.659 12.24 118.459 12.24C117.019 12.24 116.251 11.392 116.283 9.792L116.331 6.032L115.131 5.888L115.179 5.248L116.411 4.096L117.643 2.928L118.635 3.024L118.619 4.832H121.211L121.099 5.968H118.603L118.571 9.04C118.571 10.368 119.131 10.704 119.851 10.704C120.251 10.704 120.843 10.592 121.211 10.416L121.259 10.944ZM130.826 12H126.634L126.682 11.312L126.89 11.28C127.354 11.248 127.434 11.136 127.434 10.976V8.032C127.434 6.432 126.954 6.144 126.122 6.144C125.738 6.144 125.242 6.32 125.082 6.464V10.992C125.082 11.152 125.178 11.232 125.69 11.28L125.994 11.312L126.042 12H121.738L121.786 11.312L122.106 11.28C122.49 11.248 122.65 11.168 122.65 10.976V3.504C122.65 3.12 122.506 2.928 122.282 2.784L121.69 2.464L121.738 1.936L125.082 0.848V5.664H125.162C126.106 4.928 126.954 4.432 127.85 4.432C128.346 4.432 128.858 4.656 129.258 5.056C129.658 5.456 129.866 6.08 129.866 6.944V10.976C129.866 11.12 129.946 11.2 130.522 11.28L130.778 11.312L130.826 12ZM138.649 9.712C138.185 11.328 136.969 12.24 135.145 12.24C133.209 12.24 131.625 10.864 131.625 8.592C131.625 6.272 133.289 4.432 135.721 4.432C137.273 4.432 138.617 5.312 138.617 6.992C138.617 7.248 138.585 7.6 138.521 7.888L134.185 7.824V8C134.217 9.68 134.953 10.672 136.201 10.672C136.985 10.672 137.721 10.208 138.265 9.504L138.649 9.712ZM136.329 7.2C136.393 5.936 136.041 5.232 135.481 5.232C134.745 5.232 134.233 5.888 134.169 7.264L136.329 7.2ZM152.344 12H148.152L148.2 11.312L148.408 11.28C148.872 11.248 148.952 11.136 148.952 10.976V8.032C148.952 6.432 148.472 6.144 147.64 6.144C147.256 6.144 146.76 6.32 146.6 6.464V10.992C146.6 11.152 146.696 11.232 147.208 11.28L147.512 11.312L147.56 12H143.256L143.304 11.312L143.624 11.28C144.008 11.248 144.168 11.168 144.168 10.976V3.504C144.168 3.12 144.024 2.928 143.8 2.784L143.208 2.464L143.256 1.936L146.6 0.848V5.664H146.68C147.624 4.928 148.472 4.432 149.368 4.432C149.864 4.432 150.376 4.656 150.776 5.056C151.176 5.456 151.384 6.08 151.384 6.944V10.976C151.384 11.12 151.464 11.2 152.04 11.28L152.296 11.312L152.344 12ZM160.168 9.712C159.704 11.328 158.488 12.24 156.664 12.24C154.728 12.24 153.144 10.864 153.144 8.592C153.144 6.272 154.808 4.432 157.24 4.432C158.792 4.432 160.136 5.312 160.136 6.992C160.136 7.248 160.104 7.6 160.04 7.888L155.704 7.824V8C155.736 9.68 156.472 10.672 157.72 10.672C158.504 10.672 159.24 10.208 159.784 9.504L160.168 9.712ZM157.848 7.2C157.912 5.936 157.56 5.232 157 5.232C156.264 5.232 155.752 5.888 155.688 7.264L157.848 7.2ZM169.258 10.848C168.762 11.568 167.834 12.288 167.082 12.288C166.442 12.288 165.658 11.904 165.61 10.8H165.53C164.874 11.648 164.25 12.24 163.322 12.24C162.25 12.24 161.306 11.616 161.306 10.352C161.306 9.024 162.714 8.224 165.578 7.456V7.344C165.61 6.368 165.05 5.584 163.962 5.584C163.418 5.584 162.938 5.76 162.938 5.824C162.938 5.888 163.386 6.192 163.386 6.784C163.386 7.168 162.97 7.68 162.346 7.68C161.706 7.68 161.242 7.312 161.242 6.784C161.242 5.696 163.194 4.448 165.29 4.448C166.858 4.448 168.09 5.184 167.994 7.472L167.882 10.032C167.85 10.624 167.946 10.784 168.298 10.784C168.458 10.784 168.73 10.608 169.018 10.368L169.258 10.848ZM165.498 10.096L165.546 8.096C163.866 8.608 163.514 9.152 163.514 9.776C163.514 10.384 163.994 10.64 164.522 10.64C164.938 10.64 165.354 10.304 165.498 10.096ZM173.923 12H169.747L169.795 11.312L170.083 11.28C170.467 11.248 170.627 11.168 170.627 10.976V3.504C170.627 3.12 170.515 2.928 170.259 2.784L169.699 2.464L169.747 1.936L173.059 0.848V10.992C173.059 11.152 173.155 11.232 173.667 11.28L173.875 11.312L173.923 12ZM180.544 10.944C179.936 11.68 178.944 12.24 177.744 12.24C176.304 12.24 175.536 11.392 175.568 9.792L175.616 6.032L174.416 5.888L174.464 5.248L175.696 4.096L176.928 2.928L177.92 3.024L177.904 4.832H180.496L180.384 5.968H177.888L177.856 9.04C177.856 10.368 178.416 10.704 179.136 10.704C179.536 10.704 180.128 10.592 180.496 10.416L180.544 10.944ZM190.11 12H185.918L185.966 11.312L186.174 11.28C186.638 11.248 186.718 11.136 186.718 10.976V8.032C186.718 6.432 186.238 6.144 185.406 6.144C185.022 6.144 184.526 6.32 184.366 6.464V10.992C184.366 11.152 184.462 11.232 184.974 11.28L185.278 11.312L185.326 12H181.022L181.07 11.312L181.39 11.28C181.774 11.248 181.934 11.168 181.934 10.976V3.504C181.934 3.12 181.79 2.928 181.566 2.784L180.974 2.464L181.022 1.936L184.366 0.848V5.664H184.446C185.39 4.928 186.238 4.432 187.134 4.432C187.63 4.432 188.142 4.656 188.542 5.056C188.942 5.456 189.15 6.08 189.15 6.944V10.976C189.15 11.12 189.23 11.2 189.806 11.28L190.062 11.312L190.11 12ZM8.704 27.288C8.704 29.496 6.944 31.24 4.464 31.24C1.968 31.24 0.576 29.48 0.576 27.416C0.576 25.208 2.368 23.432 4.832 23.432C7.328 23.432 8.704 25.224 8.704 27.288ZM6.016 27.656C6.016 26.2 5.792 25.048 5.36 24.616C5.152 24.376 4.896 24.264 4.608 24.264C3.776 24.264 3.264 25.336 3.264 27.048C3.264 28.568 3.344 29.624 3.872 30.152C4.064 30.344 4.416 30.44 4.656 30.44C5.504 30.44 6.016 29.272 6.016 27.656ZM16.7413 21.336C16.7413 22.056 16.1973 22.472 15.6213 22.472C14.8853 22.472 14.4373 22.024 14.1973 20.872L14.1813 20.808L13.7173 20.776C13.2853 21.144 13.0453 21.816 13.0453 23.24V23.832H15.2373L15.1253 24.968H13.0453V29.992C13.0453 30.152 13.1413 30.248 13.6533 30.28L14.1173 30.312L14.1653 31H9.73325L9.78125 30.312L10.1013 30.28C10.4853 30.248 10.6453 30.168 10.6453 29.976V25.032L9.39725 24.888L9.49325 23.832H10.5653L10.5973 23.448C10.7733 21.4 12.4853 19.848 14.5813 19.848C15.7333 19.848 16.7413 20.44 16.7413 21.336ZM27.4039 23.672L27.3559 24.36L26.8279 24.44C26.4759 24.488 26.2839 24.84 26.1559 25.176L24.1879 30.28L23.1639 33.208C22.6679 34.632 21.9639 35.192 21.0039 35.192C20.2999 35.192 19.6439 34.728 19.6439 34.072C19.6439 33.544 19.9959 33.016 20.6519 33.016C21.2279 33.016 21.6279 33.448 21.7559 33.832C22.0279 33.736 22.2519 33.432 22.5079 32.568L22.6839 31.976V31.816L19.8359 25.064C19.7239 24.792 19.5319 24.664 19.2279 24.536L18.8119 24.36L18.7639 23.672H23.1799L23.1319 24.36L22.5719 24.552C22.3319 24.632 22.2839 24.856 22.4119 25.192L23.8679 28.968L25.1639 25.272C25.3079 24.872 25.1959 24.648 24.9719 24.568L24.3479 24.36L24.2999 23.672H27.4039ZM35.8853 27.288C35.8853 29.496 34.1252 31.24 31.6452 31.24C29.1492 31.24 27.7572 29.48 27.7572 27.416C27.7572 25.208 29.5492 23.432 32.0132 23.432C34.5093 23.432 35.8853 25.224 35.8853 27.288ZM33.1972 27.656C33.1972 26.2 32.9732 25.048 32.5412 24.616C32.3333 24.376 32.0773 24.264 31.7892 24.264C30.9572 24.264 30.4452 25.336 30.4452 27.048C30.4452 28.568 30.5252 29.624 31.0532 30.152C31.2452 30.344 31.5972 30.44 31.8372 30.44C32.6852 30.44 33.1972 29.272 33.1972 27.656ZM45.8105 30.36L45.7625 30.888L42.4505 31.24V30.008H42.3705C41.4265 30.744 40.5785 31.24 39.6825 31.24C39.1865 31.24 38.6745 31.016 38.2745 30.616C37.8745 30.216 37.6665 29.592 37.6665 28.728V24.696C37.6665 24.552 37.5865 24.472 37.0105 24.392L36.7545 24.36L36.7065 23.672H40.1465L40.0985 27.64C40.0825 29.224 40.5785 29.528 41.4105 29.528C41.7945 29.528 42.2905 29.352 42.4505 29.208V24.68C42.4505 24.52 42.3545 24.44 41.8425 24.392L41.5385 24.36L41.4745 23.672H44.8825V29.4C44.8825 29.784 44.9785 30.104 45.2505 30.184L45.8105 30.36ZM53.3 24.776C53.3 25.4 52.868 25.976 52.244 25.976C51.62 25.976 51.284 25.672 51.044 25.24C50.66 25.512 50.164 25.928 49.796 26.456V29.992C49.796 30.152 49.892 30.232 50.404 30.28L50.868 30.312L50.916 31H46.484L46.532 30.312L46.82 30.28C47.204 30.248 47.364 30.168 47.364 29.976V26.328C47.364 25.32 47.22 25.176 46.676 25.016L46.436 24.936L46.452 24.376L49.796 23.432V25.4H49.876C50.436 24.408 51.06 23.432 51.988 23.432C52.772 23.432 53.3 23.912 53.3 24.776ZM64.5711 28.712C64.1071 30.328 62.8911 31.24 61.0671 31.24C59.1311 31.24 57.5471 29.864 57.5471 27.592C57.5471 25.272 59.2111 23.432 61.6431 23.432C63.1951 23.432 64.5391 24.312 64.5391 25.992C64.5391 26.248 64.5071 26.6 64.4431 26.888L60.1071 26.824V27C60.1391 28.68 60.8751 29.672 62.1231 29.672C62.9071 29.672 63.6431 29.208 64.1871 28.504L64.5711 28.712ZM62.2511 26.2C62.3151 24.936 61.9631 24.232 61.4031 24.232C60.6671 24.232 60.1551 24.888 60.0911 26.264L62.2511 26.2ZM79.2616 31H75.0696L75.1176 30.312L75.3256 30.28C75.7896 30.248 75.8696 30.136 75.8696 29.976V27.032C75.8696 25.432 75.3416 25.144 74.5736 25.144C74.1736 25.144 73.8056 25.304 73.5816 25.464V29.976C73.5816 30.12 73.6616 30.2 74.2376 30.28L74.4296 30.312L74.4776 31H70.3496L70.4136 30.312L70.6056 30.28C71.0696 30.248 71.1496 30.136 71.1496 29.976V27.032C71.1496 25.432 70.6216 25.144 69.8536 25.144C69.4536 25.144 69.0856 25.304 68.8616 25.464V29.992C68.8616 30.152 68.9576 30.232 69.4696 30.28L69.6776 30.312L69.7256 31H65.5176L65.5656 30.312L65.8856 30.28C66.2696 30.248 66.4296 30.168 66.4296 29.976V26.328C66.4296 25.32 66.2856 25.176 65.7416 25.016L65.5016 24.936L65.5176 24.376L68.8616 23.432V24.648H68.9416C69.8856 23.896 70.6856 23.432 71.5816 23.432C72.0936 23.432 72.5736 23.624 72.9896 24.04C73.1656 24.216 73.3096 24.456 73.4216 24.744H73.4856C74.4616 23.8 75.4056 23.432 76.3016 23.432C76.8136 23.432 77.2936 23.624 77.7096 24.04C78.1096 24.44 78.3016 25.048 78.3016 25.928V29.976C78.3016 30.12 78.3816 30.2 78.9576 30.28L79.2136 30.312L79.2616 31ZM88.444 27C88.444 29.32 86.78 31.24 84.348 31.24C83.82 31.24 83.42 31.144 83.164 31.048H83.116V33.928C83.116 34.088 83.212 34.168 83.724 34.216L84.188 34.248L84.236 34.936H79.644L79.692 34.248L80.14 34.216C80.524 34.184 80.684 34.104 80.684 33.912V26.328C80.684 25.32 80.54 25.176 79.996 25.016L79.756 24.936L79.772 24.376L83.116 23.432V24.744H83.196C83.756 24.056 84.492 23.512 85.452 23.512C87.116 23.512 88.444 25.032 88.444 27ZM85.836 27.784C85.836 26.152 85.068 25.144 84.012 25.144C83.66 25.144 83.308 25.24 83.116 25.368V29.48C83.74 30.232 84.156 30.456 84.572 30.456C85.26 30.456 85.836 29.544 85.836 27.784ZM93.6444 31H89.4684L89.5164 30.312L89.8044 30.28C90.1884 30.248 90.3484 30.168 90.3484 29.976V22.504C90.3484 22.12 90.2364 21.928 89.9804 21.784L89.4204 21.464L89.4684 20.936L92.7804 19.848V29.992C92.7804 30.152 92.8764 30.232 93.3884 30.28L93.5964 30.312L93.6444 31ZM102.841 27.288C102.841 29.496 101.081 31.24 98.6015 31.24C96.1055 31.24 94.7135 29.48 94.7135 27.416C94.7135 25.208 96.5055 23.432 98.9695 23.432C101.465 23.432 102.841 25.224 102.841 27.288ZM100.153 27.656C100.153 26.2 99.9295 25.048 99.4975 24.616C99.2895 24.376 99.0335 24.264 98.7455 24.264C97.9135 24.264 97.4015 25.336 97.4015 27.048C97.4015 28.568 97.4815 29.624 98.0095 30.152C98.2015 30.344 98.5535 30.44 98.7935 30.44C99.6415 30.44 100.153 29.272 100.153 27.656ZM111.951 23.672L111.903 24.36L111.375 24.44C111.023 24.488 110.831 24.84 110.703 25.176L108.735 30.28L107.711 33.208C107.215 34.632 106.511 35.192 105.551 35.192C104.847 35.192 104.191 34.728 104.191 34.072C104.191 33.544 104.543 33.016 105.199 33.016C105.775 33.016 106.175 33.448 106.303 33.832C106.575 33.736 106.799 33.432 107.055 32.568L107.231 31.976V31.816L104.383 25.064C104.271 24.792 104.079 24.664 103.775 24.536L103.359 24.36L103.311 23.672H107.727L107.679 24.36L107.119 24.552C106.879 24.632 106.831 24.856 106.959 25.192L108.415 28.968L109.711 25.272C109.855 24.872 109.743 24.648 109.519 24.568L108.895 24.36L108.847 23.672H111.951ZM119.296 28.712C118.832 30.328 117.616 31.24 115.792 31.24C113.856 31.24 112.272 29.864 112.272 27.592C112.272 25.272 113.936 23.432 116.368 23.432C117.92 23.432 119.264 24.312 119.264 25.992C119.264 26.248 119.232 26.6 119.168 26.888L114.832 26.824V27C114.864 28.68 115.6 29.672 116.848 29.672C117.632 29.672 118.368 29.208 118.912 28.504L119.296 28.712ZM116.976 26.2C117.04 24.936 116.688 24.232 116.128 24.232C115.392 24.232 114.88 24.888 114.816 26.264L116.976 26.2ZM127.459 28.712C126.995 30.328 125.779 31.24 123.955 31.24C122.019 31.24 120.435 29.864 120.435 27.592C120.435 25.272 122.099 23.432 124.531 23.432C126.083 23.432 127.427 24.312 127.427 25.992C127.427 26.248 127.395 26.6 127.331 26.888L122.995 26.824V27C123.027 28.68 123.763 29.672 125.011 29.672C125.795 29.672 126.531 29.208 127.075 28.504L127.459 28.712ZM125.139 26.2C125.203 24.936 124.851 24.232 124.291 24.232C123.555 24.232 123.043 24.888 122.979 26.264L125.139 26.2ZM134.853 28.824C134.853 30.216 133.621 31.24 131.413 31.24C130.501 31.24 129.365 31.096 128.645 30.808L128.581 28.68H129.941L130.357 30.168C130.645 30.264 131.061 30.424 131.493 30.424C132.389 30.424 132.869 29.992 132.869 29.4C132.869 28.728 131.941 28.504 131.029 28.184C129.749 27.736 128.677 27.24 128.677 25.768C128.677 24.36 129.861 23.432 131.781 23.432C132.453 23.432 133.173 23.544 133.637 23.688L134.549 23.528L134.613 25.992H133.381L132.837 24.52C132.581 24.392 132.261 24.264 131.813 24.264C131.077 24.264 130.645 24.632 130.645 25.144C130.645 25.864 131.253 26.024 132.341 26.392C133.637 26.84 134.853 27.336 134.853 28.824ZM138.89 30.52C138.89 31.848 137.866 33.08 136.202 34.104L135.69 33.576C136.73 32.888 137.274 32.312 137.274 31.464C137.274 30.328 135.674 29.976 135.674 29.88C135.674 29.272 136.202 28.552 137.066 28.552C138.138 28.552 138.89 29.432 138.89 30.52ZM149.825 28.824C149.825 30.216 148.593 31.24 146.385 31.24C145.473 31.24 144.337 31.096 143.617 30.808L143.553 28.68H144.913L145.329 30.168C145.617 30.264 146.033 30.424 146.465 30.424C147.361 30.424 147.841 29.992 147.841 29.4C147.841 28.728 146.913 28.504 146.001 28.184C144.721 27.736 143.649 27.24 143.649 25.768C143.649 24.36 144.833 23.432 146.753 23.432C147.425 23.432 148.145 23.544 148.609 23.688L149.521 23.528L149.585 25.992H148.353L147.809 24.52C147.553 24.392 147.233 24.264 146.785 24.264C146.049 24.264 145.617 24.632 145.617 25.144C145.617 25.864 146.225 26.024 147.313 26.392C148.609 26.84 149.825 27.336 149.825 28.824ZM159.142 27.288C159.142 29.496 157.382 31.24 154.902 31.24C152.406 31.24 151.014 29.48 151.014 27.416C151.014 25.208 152.806 23.432 155.27 23.432C157.766 23.432 159.142 25.224 159.142 27.288ZM156.454 27.656C156.454 26.2 156.23 25.048 155.798 24.616C155.59 24.376 155.334 24.264 155.046 24.264C154.214 24.264 153.702 25.336 153.702 27.048C153.702 28.568 153.782 29.624 154.31 30.152C154.502 30.344 154.854 30.44 155.094 30.44C155.942 30.44 156.454 29.272 156.454 27.656ZM171.991 23.672L171.943 24.36L171.415 24.44C171.063 24.488 170.871 24.84 170.743 25.176L168.775 30.28L167.751 33.208C167.255 34.632 166.551 35.192 165.591 35.192C164.887 35.192 164.231 34.728 164.231 34.072C164.231 33.544 164.583 33.016 165.239 33.016C165.815 33.016 166.215 33.448 166.343 33.832C166.615 33.736 166.839 33.432 167.095 32.568L167.271 31.976V31.816L164.423 25.064C164.311 24.792 164.119 24.664 163.815 24.536L163.399 24.36L163.351 23.672H167.767L167.719 24.36L167.159 24.552C166.919 24.632 166.871 24.856 166.999 25.192L168.455 28.968L169.751 25.272C169.895 24.872 169.783 24.648 169.559 24.568L168.935 24.36L168.887 23.672H171.991ZM180.473 27.288C180.473 29.496 178.713 31.24 176.233 31.24C173.737 31.24 172.345 29.48 172.345 27.416C172.345 25.208 174.137 23.432 176.601 23.432C179.097 23.432 180.473 25.224 180.473 27.288ZM177.785 27.656C177.785 26.2 177.561 25.048 177.129 24.616C176.921 24.376 176.665 24.264 176.377 24.264C175.545 24.264 175.033 25.336 175.033 27.048C175.033 28.568 175.113 29.624 175.641 30.152C175.833 30.344 176.185 30.44 176.425 30.44C177.273 30.44 177.785 29.272 177.785 27.656ZM190.398 30.36L190.35 30.888L187.038 31.24V30.008H186.958C186.014 30.744 185.166 31.24 184.27 31.24C183.774 31.24 183.262 31.016 182.862 30.616C182.462 30.216 182.254 29.592 182.254 28.728V24.696C182.254 24.552 182.174 24.472 181.598 24.392L181.342 24.36L181.294 23.672H184.734L184.686 27.64C184.67 29.224 185.166 29.528 185.998 29.528C186.382 29.528 186.878 29.352 187.038 29.208V24.68C187.038 24.52 186.942 24.44 186.43 24.392L186.126 24.36L186.062 23.672H189.47V29.4C189.47 29.784 189.566 30.104 189.838 30.184L190.398 30.36ZM7.584 47.712C7.12 49.328 5.904 50.24 4.08 50.24C2.144 50.24 0.544 48.864 0.544 46.592C0.544 44.224 2.256 42.432 4.752 42.432C6.448 42.432 7.44 43.104 7.44 44.16C7.44 44.928 6.928 45.264 6.272 45.264C5.376 45.264 4.944 44.256 5.152 43.376V43.36C5.072 43.312 4.88 43.264 4.72 43.264C3.856 43.264 3.136 44.064 3.136 45.824C3.136 47.536 3.888 48.672 5.136 48.672C5.92 48.672 6.656 48.208 7.2 47.504L7.584 47.712ZM16.5335 48.848C16.0375 49.568 15.1095 50.288 14.3575 50.288C13.7175 50.288 12.9335 49.904 12.8855 48.8H12.8055C12.1495 49.648 11.5255 50.24 10.5975 50.24C9.5255 50.24 8.5815 49.616 8.5815 48.352C8.5815 47.024 9.9895 46.224 12.8535 45.456V45.344C12.8855 44.368 12.3255 43.584 11.2375 43.584C10.6935 43.584 10.2135 43.76 10.2135 43.824C10.2135 43.888 10.6615 44.192 10.6615 44.784C10.6615 45.168 10.2455 45.68 9.6215 45.68C8.9815 45.68 8.5175 45.312 8.5175 44.784C8.5175 43.696 10.4695 42.448 12.5655 42.448C14.1335 42.448 15.3655 43.184 15.2695 45.472L15.1575 48.032C15.1255 48.624 15.2215 48.784 15.5735 48.784C15.7335 48.784 16.0055 48.608 16.2935 48.368L16.5335 48.848ZM12.7735 48.096L12.8215 46.096C11.1415 46.608 10.7895 47.152 10.7895 47.776C10.7895 48.384 11.2695 48.64 11.7975 48.64C12.2135 48.64 12.6295 48.304 12.7735 48.096ZM26.0775 50H21.8855L21.9335 49.312L22.1415 49.28C22.6055 49.248 22.6855 49.136 22.6855 48.976V46.032C22.6855 44.432 22.2055 44.144 21.3735 44.144C20.9895 44.144 20.4935 44.32 20.3335 44.464V48.992C20.3335 49.152 20.4295 49.232 20.9415 49.28L21.2455 49.312L21.2935 50H16.9895L17.0375 49.312L17.3575 49.28C17.7415 49.248 17.9015 49.168 17.9015 48.976V45.328C17.9015 44.32 17.7575 44.176 17.2135 44.016L16.9735 43.936L16.9895 43.376L20.3335 42.432V43.664H20.4135C21.3575 42.928 22.2055 42.432 23.1015 42.432C23.5975 42.432 24.1095 42.656 24.5095 43.056C24.9095 43.456 25.1175 44.08 25.1175 44.944V48.976C25.1175 49.12 25.1975 49.2 25.7735 49.28L26.0295 49.312L26.0775 50ZM37.4162 40.336C37.4162 41.056 36.8723 41.472 36.2962 41.472C35.5602 41.472 35.1122 41.024 34.8723 39.872L34.8562 39.808L34.3923 39.776C33.9602 40.144 33.7202 40.816 33.7202 42.24V42.832H35.9123L35.8003 43.968H33.7202V48.992C33.7202 49.152 33.8162 49.248 34.3282 49.28L34.7922 49.312L34.8403 50H30.4082L30.4562 49.312L30.7762 49.28C31.1602 49.248 31.3202 49.168 31.3202 48.976V44.032L30.0722 43.888L30.1682 42.832H31.2402L31.2722 42.448C31.4482 40.4 33.1602 38.848 35.2562 38.848C36.4082 38.848 37.4162 39.44 37.4162 40.336ZM44.6103 46.288C44.6103 48.496 42.8503 50.24 40.3703 50.24C37.8743 50.24 36.4823 48.48 36.4823 46.416C36.4823 44.208 38.2743 42.432 40.7383 42.432C43.2343 42.432 44.6103 44.224 44.6103 46.288ZM41.9223 46.656C41.9223 45.2 41.6983 44.048 41.2663 43.616C41.0583 43.376 40.8023 43.264 40.5143 43.264C39.6823 43.264 39.1703 44.336 39.1703 46.048C39.1703 47.568 39.2503 48.624 39.7783 49.152C39.9703 49.344 40.3223 49.44 40.5623 49.44C41.4103 49.44 41.9223 48.272 41.9223 46.656ZM52.8715 47.712C52.4075 49.328 51.1915 50.24 49.3675 50.24C47.4315 50.24 45.8315 48.864 45.8315 46.592C45.8315 44.224 47.5435 42.432 50.0395 42.432C51.7355 42.432 52.7275 43.104 52.7275 44.16C52.7275 44.928 52.2155 45.264 51.5595 45.264C50.6635 45.264 50.2315 44.256 50.4395 43.376V43.36C50.3595 43.312 50.1675 43.264 50.0075 43.264C49.1435 43.264 48.4235 44.064 48.4235 45.824C48.4235 47.536 49.1755 48.672 50.4235 48.672C51.2075 48.672 51.9435 48.208 52.4875 47.504L52.8715 47.712ZM62.573 49.36L62.525 49.888L59.213 50.24V49.008H59.133C58.189 49.744 57.341 50.24 56.445 50.24C55.949 50.24 55.437 50.016 55.037 49.616C54.637 49.216 54.429 48.592 54.429 47.728V43.696C54.429 43.552 54.349 43.472 53.773 43.392L53.517 43.36L53.469 42.672H56.909L56.861 46.64C56.845 48.224 57.341 48.528 58.173 48.528C58.557 48.528 59.053 48.352 59.213 48.208V43.68C59.213 43.52 59.117 43.44 58.605 43.392L58.301 43.36L58.237 42.672H61.645V48.4C61.645 48.784 61.741 49.104 62.013 49.184L62.573 49.36ZM69.6625 47.824C69.6625 49.216 68.4305 50.24 66.2225 50.24C65.3105 50.24 64.1745 50.096 63.4545 49.808L63.3905 47.68H64.7505L65.1665 49.168C65.4545 49.264 65.8705 49.424 66.3025 49.424C67.1985 49.424 67.6785 48.992 67.6785 48.4C67.6785 47.728 66.7505 47.504 65.8385 47.184C64.5585 46.736 63.4865 46.24 63.4865 44.768C63.4865 43.36 64.6705 42.432 66.5905 42.432C67.2625 42.432 67.9825 42.544 68.4465 42.688L69.3585 42.528L69.4225 44.992H68.1905L67.6465 43.52C67.3905 43.392 67.0705 43.264 66.6225 43.264C65.8865 43.264 65.4545 43.632 65.4545 44.144C65.4545 44.864 66.0625 45.024 67.1505 45.392C68.4465 45.84 69.6625 46.336 69.6625 47.824ZM82.7196 46.288C82.7196 48.496 80.9596 50.24 78.4796 50.24C75.9836 50.24 74.5916 48.48 74.5916 46.416C74.5916 44.208 76.3836 42.432 78.8476 42.432C81.3436 42.432 82.7196 44.224 82.7196 46.288ZM80.0316 46.656C80.0316 45.2 79.8076 44.048 79.3756 43.616C79.1676 43.376 78.9116 43.264 78.6236 43.264C77.7916 43.264 77.2796 44.336 77.2796 46.048C77.2796 47.568 77.3596 48.624 77.8876 49.152C78.0796 49.344 78.4316 49.44 78.6716 49.44C79.5196 49.44 80.0316 48.272 80.0316 46.656ZM92.8369 50H88.6449L88.6929 49.312L88.9009 49.28C89.3649 49.248 89.4449 49.136 89.4449 48.976V46.032C89.4449 44.432 88.9649 44.144 88.1329 44.144C87.7489 44.144 87.2529 44.32 87.0929 44.464V48.992C87.0929 49.152 87.1889 49.232 87.7009 49.28L88.0049 49.312L88.0529 50H83.7489L83.7969 49.312L84.1169 49.28C84.5009 49.248 84.6609 49.168 84.6609 48.976V45.328C84.6609 44.32 84.5169 44.176 83.9729 44.016L83.7329 43.936L83.7489 43.376L87.0929 42.432V43.664H87.1729C88.1169 42.928 88.9649 42.432 89.8609 42.432C90.3569 42.432 90.8689 42.656 91.2689 43.056C91.6689 43.456 91.8769 44.08 91.8769 44.944V48.976C91.8769 49.12 91.9569 49.2 92.5329 49.28L92.7889 49.312L92.8369 50ZM102.944 48.944C102.336 49.68 101.344 50.24 100.144 50.24C98.7036 50.24 97.9356 49.392 97.9676 47.792L98.0156 44.032L96.8156 43.888L96.8636 43.248L98.0956 42.096L99.3276 40.928L100.32 41.024L100.304 42.832H102.896L102.784 43.968H100.288L100.256 47.04C100.256 48.368 100.816 48.704 101.536 48.704C101.936 48.704 102.528 48.592 102.896 48.416L102.944 48.944ZM112.51 50H108.318L108.366 49.312L108.574 49.28C109.038 49.248 109.118 49.136 109.118 48.976V46.032C109.118 44.432 108.638 44.144 107.806 44.144C107.422 44.144 106.926 44.32 106.766 44.464V48.992C106.766 49.152 106.862 49.232 107.374 49.28L107.678 49.312L107.726 50H103.422L103.47 49.312L103.79 49.28C104.174 49.248 104.334 49.168 104.334 48.976V41.504C104.334 41.12 104.19 40.928 103.966 40.784L103.374 40.464L103.422 39.936L106.766 38.848V43.664H106.846C107.79 42.928 108.638 42.432 109.534 42.432C110.03 42.432 110.542 42.656 110.942 43.056C111.342 43.456 111.55 44.08 111.55 44.944V48.976C111.55 49.12 111.63 49.2 112.206 49.28L112.462 49.312L112.51 50ZM120.334 47.712C119.87 49.328 118.654 50.24 116.83 50.24C114.894 50.24 113.31 48.864 113.31 46.592C113.31 44.272 114.974 42.432 117.406 42.432C118.958 42.432 120.302 43.312 120.302 44.992C120.302 45.248 120.27 45.6 120.206 45.888L115.87 45.824V46C115.902 47.68 116.638 48.672 117.886 48.672C118.67 48.672 119.406 48.208 119.95 47.504L120.334 47.712ZM118.014 45.2C118.078 43.936 117.726 43.232 117.166 43.232C116.43 43.232 115.918 43.888 115.854 45.264L118.014 45.2ZM134.029 50H129.837L129.885 49.312L130.093 49.28C130.557 49.248 130.637 49.136 130.637 48.976V46.032C130.637 44.432 130.157 44.144 129.325 44.144C128.941 44.144 128.445 44.32 128.285 44.464V48.992C128.285 49.152 128.381 49.232 128.893 49.28L129.197 49.312L129.245 50H124.941L124.989 49.312L125.309 49.28C125.693 49.248 125.853 49.168 125.853 48.976V41.504C125.853 41.12 125.709 40.928 125.485 40.784L124.893 40.464L124.941 39.936L128.285 38.848V43.664H128.365C129.309 42.928 130.157 42.432 131.053 42.432C131.549 42.432 132.061 42.656 132.461 43.056C132.861 43.456 133.069 44.08 133.069 44.944V48.976C133.069 49.12 133.149 49.2 133.725 49.28L133.981 49.312L134.029 50ZM141.852 47.712C141.388 49.328 140.172 50.24 138.348 50.24C136.412 50.24 134.828 48.864 134.828 46.592C134.828 44.272 136.492 42.432 138.924 42.432C140.476 42.432 141.82 43.312 141.82 44.992C141.82 45.248 141.788 45.6 141.724 45.888L137.388 45.824V46C137.42 47.68 138.156 48.672 139.404 48.672C140.188 48.672 140.924 48.208 141.468 47.504L141.852 47.712ZM139.532 45.2C139.596 43.936 139.244 43.232 138.684 43.232C137.948 43.232 137.436 43.888 137.372 45.264L139.532 45.2ZM150.943 48.848C150.447 49.568 149.519 50.288 148.767 50.288C148.127 50.288 147.343 49.904 147.295 48.8H147.215C146.559 49.648 145.935 50.24 145.007 50.24C143.935 50.24 142.991 49.616 142.991 48.352C142.991 47.024 144.399 46.224 147.263 45.456V45.344C147.295 44.368 146.735 43.584 145.647 43.584C145.103 43.584 144.623 43.76 144.623 43.824C144.623 43.888 145.071 44.192 145.071 44.784C145.071 45.168 144.655 45.68 144.031 45.68C143.391 45.68 142.927 45.312 142.927 44.784C142.927 43.696 144.879 42.448 146.975 42.448C148.543 42.448 149.775 43.184 149.679 45.472L149.567 48.032C149.535 48.624 149.631 48.784 149.983 48.784C150.143 48.784 150.415 48.608 150.703 48.368L150.943 48.848ZM147.183 48.096L147.231 46.096C145.551 46.608 145.199 47.152 145.199 47.776C145.199 48.384 145.679 48.64 146.207 48.64C146.623 48.64 147.039 48.304 147.183 48.096ZM155.607 50H151.431L151.479 49.312L151.767 49.28C152.151 49.248 152.311 49.168 152.311 48.976V41.504C152.311 41.12 152.199 40.928 151.943 40.784L151.383 40.464L151.431 39.936L154.743 38.848V48.992C154.743 49.152 154.839 49.232 155.351 49.28L155.559 49.312L155.607 50ZM162.228 48.944C161.62 49.68 160.628 50.24 159.428 50.24C157.988 50.24 157.22 49.392 157.252 47.792L157.3 44.032L156.1 43.888L156.148 43.248L157.38 42.096L158.612 40.928L159.604 41.024L159.588 42.832H162.18L162.068 43.968H159.572L159.54 47.04C159.54 48.368 160.1 48.704 160.82 48.704C161.22 48.704 161.812 48.592 162.18 48.416L162.228 48.944ZM171.794 50H167.602L167.65 49.312L167.858 49.28C168.322 49.248 168.402 49.136 168.402 48.976V46.032C168.402 44.432 167.922 44.144 167.09 44.144C166.706 44.144 166.21 44.32 166.05 44.464V48.992C166.05 49.152 166.146 49.232 166.658 49.28L166.962 49.312L167.01 50H162.706L162.754 49.312L163.074 49.28C163.458 49.248 163.618 49.168 163.618 48.976V41.504C163.618 41.12 163.474 40.928 163.25 40.784L162.658 40.464L162.706 39.936L166.05 38.848V43.664H166.13C167.074 42.928 167.922 42.432 168.818 42.432C169.314 42.432 169.826 42.656 170.226 43.056C170.626 43.456 170.834 44.08 170.834 44.944V48.976C170.834 49.12 170.914 49.2 171.49 49.28L171.746 49.312L171.794 50ZM8.704 65.288C8.704 67.496 6.944 69.24 4.464 69.24C1.968 69.24 0.576 67.48 0.576 65.416C0.576 63.208 2.368 61.432 4.832 61.432C7.328 61.432 8.704 63.224 8.704 65.288ZM6.016 65.656C6.016 64.2 5.792 63.048 5.36 62.616C5.152 62.376 4.896 62.264 4.608 62.264C3.776 62.264 3.264 63.336 3.264 65.048C3.264 66.568 3.344 67.624 3.872 68.152C4.064 68.344 4.416 68.44 4.656 68.44C5.504 68.44 6.016 67.272 6.016 65.656ZM16.7413 59.336C16.7413 60.056 16.1973 60.472 15.6213 60.472C14.8853 60.472 14.4373 60.024 14.1973 58.872L14.1813 58.808L13.7173 58.776C13.2853 59.144 13.0453 59.816 13.0453 61.24V61.832H15.2373L15.1253 62.968H13.0453V67.992C13.0453 68.152 13.1413 68.248 13.6533 68.28L14.1173 68.312L14.1653 69H9.73325L9.78125 68.312L10.1013 68.28C10.4853 68.248 10.6453 68.168 10.6453 67.976V63.032L9.39725 62.888L9.49325 61.832H10.5653L10.5973 61.448C10.7733 59.4 12.4853 57.848 14.5813 57.848C15.7333 57.848 16.7413 58.44 16.7413 59.336ZM27.4039 61.672L27.3559 62.36L26.8279 62.44C26.4759 62.488 26.2839 62.84 26.1559 63.176L24.1879 68.28L23.1639 71.208C22.6679 72.632 21.9639 73.192 21.0039 73.192C20.2999 73.192 19.6439 72.728 19.6439 72.072C19.6439 71.544 19.9959 71.016 20.6519 71.016C21.2279 71.016 21.6279 71.448 21.7559 71.832C22.0279 71.736 22.2519 71.432 22.5079 70.568L22.6839 69.976V69.816L19.8359 63.064C19.7239 62.792 19.5319 62.664 19.2279 62.536L18.8119 62.36L18.7639 61.672H23.1799L23.1319 62.36L22.5719 62.552C22.3319 62.632 22.2839 62.856 22.4119 63.192L23.8679 66.968L25.1639 63.272C25.3079 62.872 25.1959 62.648 24.9719 62.568L24.3479 62.36L24.2999 61.672H27.4039ZM35.8853 65.288C35.8853 67.496 34.1252 69.24 31.6452 69.24C29.1492 69.24 27.7572 67.48 27.7572 65.416C27.7572 63.208 29.5492 61.432 32.0132 61.432C34.5093 61.432 35.8853 63.224 35.8853 65.288ZM33.1972 65.656C33.1972 64.2 32.9732 63.048 32.5412 62.616C32.3333 62.376 32.0773 62.264 31.7892 62.264C30.9572 62.264 30.4452 63.336 30.4452 65.048C30.4452 66.568 30.5252 67.624 31.0532 68.152C31.2452 68.344 31.5972 68.44 31.8372 68.44C32.6852 68.44 33.1972 67.272 33.1972 65.656ZM45.8105 68.36L45.7625 68.888L42.4505 69.24V68.008H42.3705C41.4265 68.744 40.5785 69.24 39.6825 69.24C39.1865 69.24 38.6745 69.016 38.2745 68.616C37.8745 68.216 37.6665 67.592 37.6665 66.728V62.696C37.6665 62.552 37.5865 62.472 37.0105 62.392L36.7545 62.36L36.7065 61.672H40.1465L40.0985 65.64C40.0825 67.224 40.5785 67.528 41.4105 67.528C41.7945 67.528 42.2905 67.352 42.4505 67.208V62.68C42.4505 62.52 42.3545 62.44 41.8425 62.392L41.5385 62.36L41.4745 61.672H44.8825V67.4C44.8825 67.784 44.9785 68.104 45.2505 68.184L45.8105 68.36ZM53.3 62.776C53.3 63.4 52.868 63.976 52.244 63.976C51.62 63.976 51.284 63.672 51.044 63.24C50.66 63.512 50.164 63.928 49.796 64.456V67.992C49.796 68.152 49.892 68.232 50.404 68.28L50.868 68.312L50.916 69H46.484L46.532 68.312L46.82 68.28C47.204 68.248 47.364 68.168 47.364 67.976V64.328C47.364 63.32 47.22 63.176 46.676 63.016L46.436 62.936L46.452 62.376L49.796 61.432V63.4H49.876C50.436 62.408 51.06 61.432 51.988 61.432C52.772 61.432 53.3 61.912 53.3 62.776ZM65.8671 65C65.8671 67.32 64.2191 69.24 61.6271 69.24C61.0511 69.24 60.3151 69.064 59.4991 68.76H59.4831L58.3631 69.336H58.1071V60.504C58.1071 60.12 57.9951 59.928 57.7391 59.784L57.1791 59.464L57.2271 58.936L60.5391 57.848V62.744H60.6191C61.1791 62.056 61.9151 61.512 62.8751 61.512C64.5391 61.512 65.8671 63.032 65.8671 65ZM63.2591 65.784C63.2591 64.152 62.4911 63.144 61.4351 63.144C61.0831 63.144 60.7311 63.24 60.5391 63.368V67.48C61.1631 68.232 61.5791 68.456 61.9951 68.456C62.6831 68.456 63.2591 67.544 63.2591 65.784ZM75.773 68.36L75.725 68.888L72.413 69.24V68.008H72.333C71.389 68.744 70.541 69.24 69.645 69.24C69.149 69.24 68.637 69.016 68.237 68.616C67.837 68.216 67.629 67.592 67.629 66.728V62.696C67.629 62.552 67.549 62.472 66.973 62.392L66.717 62.36L66.669 61.672H70.109L70.061 65.64C70.045 67.224 70.541 67.528 71.373 67.528C71.757 67.528 72.253 67.352 72.413 67.208V62.68C72.413 62.52 72.317 62.44 71.805 62.392L71.501 62.36L71.437 61.672H74.845V67.4C74.845 67.784 74.941 68.104 75.213 68.184L75.773 68.36ZM82.8625 66.824C82.8625 68.216 81.6305 69.24 79.4225 69.24C78.5105 69.24 77.3745 69.096 76.6545 68.808L76.5905 66.68H77.9505L78.3665 68.168C78.6545 68.264 79.0705 68.424 79.5025 68.424C80.3985 68.424 80.8785 67.992 80.8785 67.4C80.8785 66.728 79.9505 66.504 79.0385 66.184C77.7585 65.736 76.6865 65.24 76.6865 63.768C76.6865 62.36 77.8705 61.432 79.7905 61.432C80.4625 61.432 81.1825 61.544 81.6465 61.688L82.5585 61.528L82.6225 63.992H81.3905L80.8465 62.52C80.5905 62.392 80.2705 62.264 79.8225 62.264C79.0865 62.264 78.6545 62.632 78.6545 63.144C78.6545 63.864 79.2625 64.024 80.3505 64.392C81.6465 64.84 82.8625 65.336 82.8625 66.824ZM87.379 59.176C87.379 59.96 86.723 60.6 85.939 60.6C85.155 60.6 84.531 59.96 84.531 59.176C84.531 58.392 85.155 57.752 85.939 57.752C86.723 57.752 87.379 58.392 87.379 59.176ZM88.147 69H83.955L84.003 68.312L84.291 68.28C84.675 68.248 84.835 68.168 84.835 67.976V64.328C84.835 63.32 84.691 63.176 84.147 63.016L83.907 62.936L83.923 62.376L87.267 61.432V67.992C87.267 68.152 87.363 68.232 87.875 68.28L88.099 68.312L88.147 69ZM98.14 69H93.948L93.996 68.312L94.204 68.28C94.668 68.248 94.748 68.136 94.748 67.976V65.032C94.748 63.432 94.268 63.144 93.436 63.144C93.052 63.144 92.556 63.32 92.396 63.464V67.992C92.396 68.152 92.492 68.232 93.004 68.28L93.308 68.312L93.356 69H89.052L89.1 68.312L89.42 68.28C89.804 68.248 89.964 68.168 89.964 67.976V64.328C89.964 63.32 89.82 63.176 89.276 63.016L89.036 62.936L89.052 62.376L92.396 61.432V62.664H92.476C93.42 61.928 94.268 61.432 95.164 61.432C95.66 61.432 96.172 61.656 96.572 62.056C96.972 62.456 97.18 63.08 97.18 63.944V67.976C97.18 68.12 97.26 68.2 97.836 68.28L98.092 68.312L98.14 69ZM105.946 66.712C105.482 68.328 104.266 69.24 102.442 69.24C100.506 69.24 98.9221 67.864 98.9221 65.592C98.9221 63.272 100.586 61.432 103.018 61.432C104.57 61.432 105.914 62.312 105.914 63.992C105.914 64.248 105.882 64.6 105.818 64.888L101.482 64.824V65C101.514 66.68 102.25 67.672 103.498 67.672C104.282 67.672 105.018 67.208 105.562 66.504L105.946 66.712ZM103.626 64.2C103.69 62.936 103.338 62.232 102.778 62.232C102.042 62.232 101.53 62.888 101.466 64.264L103.626 64.2ZM113.341 66.824C113.341 68.216 112.109 69.24 109.901 69.24C108.989 69.24 107.853 69.096 107.133 68.808L107.069 66.68H108.429L108.845 68.168C109.133 68.264 109.549 68.424 109.981 68.424C110.877 68.424 111.357 67.992 111.357 67.4C111.357 66.728 110.429 66.504 109.517 66.184C108.237 65.736 107.165 65.24 107.165 63.768C107.165 62.36 108.349 61.432 110.269 61.432C110.941 61.432 111.661 61.544 112.125 61.688L113.037 61.528L113.101 63.992H111.869L111.325 62.52C111.069 62.392 110.749 62.264 110.301 62.264C109.565 62.264 109.133 62.632 109.133 63.144C109.133 63.864 109.741 64.024 110.829 64.392C112.125 64.84 113.341 65.336 113.341 66.824ZM120.753 66.824C120.753 68.216 119.521 69.24 117.313 69.24C116.401 69.24 115.265 69.096 114.545 68.808L114.481 66.68H115.841L116.257 68.168C116.545 68.264 116.961 68.424 117.393 68.424C118.289 68.424 118.769 67.992 118.769 67.4C118.769 66.728 117.841 66.504 116.929 66.184C115.649 65.736 114.577 65.24 114.577 63.768C114.577 62.36 115.761 61.432 117.681 61.432C118.353 61.432 119.073 61.544 119.537 61.688L120.449 61.528L120.513 63.992H119.281L118.737 62.52C118.481 62.392 118.161 62.264 117.713 62.264C116.977 62.264 116.545 62.632 116.545 63.144C116.545 63.864 117.153 64.024 118.241 64.392C119.537 64.84 120.753 65.336 120.753 66.824Z" fill="#484849" data-color-group="0"/></svg>